BeerawHex-Regular.ufo
<glyph name="exclam" format="2">
  <advance width="182"/>
  <unicode hex="0021"/>
  <outline>
    <contour>
      <point x="71" y="220" type="curve"/>
      <point x="111.0" y="220.0" type="line"/>
      <point x="125.66666666666666" y="222.0"/>
      <point x="134.0" y="230.33333333333331"/>
      <point x="136" y="245" type="curve"/>
      <point x="136.0" y="675.0" type="line"/>
      <point x="134.0" y="689.6666666666666"/>
      <point x="125.66666666666666" y="698.0"/>
      <point x="111" y="700" type="curve"/>
      <point x="71.0" y="700.0" type="line"/>
      <point x="56.33333333333333" y="698.0"/>
      <point x="48.0" y="689.6666666666666"/>
      <point x="46" y="675" type="curve"/>
      <point x="46.0" y="245.0" type="line"/>
      <point x="48.0" y="230.33333333333331"/>
      <point x="56.33333333333333" y="222.0"/>
    </contour>
    <contour>
      <point x="129" y="75" type="line"/>
      <point x="121.0" y="84.33333333333333"/>
      <point x="112.66666666666666" y="89.33333333333333"/>
      <point x="104.0" y="90.0" type="curve"/>
      <point x="84.66666666666666" y="90.0"/>
      <point x="73.33333333333333" y="89.66666666666666"/>
      <point x="70.0" y="89.0" type="curve"/>
      <point x="64.66666666666666" y="86.33333333333333"/>
      <point x="58.99999999999999" y="81.66666666666666"/>
      <point x="53" y="75" type="curve"/>
      <point x="52.0" y="75.0" type="line"/>
      <point x="48.666666666666664" y="69.66666666666666"/>
      <point x="46.666666666666664" y="64.0"/>
      <point x="46" y="58" type="curve"/>
      <point x="46.0" y="32.0" type="line"/>
      <point x="46.666666666666664" y="26.0"/>
      <point x="48.666666666666664" y="20.333333333333332"/>
      <point x="52" y="15" type="curve"/>
      <point x="53.0" y="15.0" type="line"/>
      <point x="60.99999999999999" y="5.666666666666668"/>
      <point x="69.33333333333333" y="0.6666666666666666"/>
      <point x="78.0" y="0.0" type="curve"/>
      <point x="97.33333333333333" y="0.0"/>
      <point x="108.66666666666666" y="0.33333333333333326"/>
      <point x="112.0" y="1.0" type="curve"/>
      <point x="117.33333333333333" y="3.6666666666666665"/>
      <point x="123.0" y="8.333333333333332"/>
      <point x="129" y="15" type="curve"/>
      <point x="130.0" y="15.0" type="line"/>
      <point x="133.33333333333331" y="20.333333333333332"/>
      <point x="135.33333333333331" y="26.0"/>
      <point x="136" y="32" type="curve"/>
      <point x="136.0" y="58.0" type="line"/>
      <point x="135.33333333333331" y="64.0"/>
      <point x="133.33333333333331" y="69.66666666666666"/>
      <point x="130" y="75" type="curve"/>
    </contour>
  </outline>
</glyph>
<glyph name="quotedbl" format="2">
  <advance width="332"/>
  <unicode hex="0022"/>
  <outline>
    <contour>
      <point x="221" y="510" type="curve"/>
      <point x="261.0" y="510.0" type="line"/>
      <point x="275.66666666666663" y="512.0"/>
      <point x="284.0" y="520.3333333333333"/>
      <point x="286" y="535" type="curve"/>
      <point x="286.0" y="675.0" type="line"/>
      <point x="284.0" y="689.6666666666666"/>
      <point x="275.66666666666663" y="698.0"/>
      <point x="261" y="700" type="curve"/>
      <point x="221.0" y="700.0" type="line"/>
      <point x="206.33333333333331" y="698.0"/>
      <point x="198.0" y="689.6666666666666"/>
      <point x="196" y="675" type="curve"/>
      <point x="196.0" y="535.0" type="line"/>
      <point x="198.0" y="520.3333333333333"/>
      <point x="206.33333333333331" y="512.0"/>
    </contour>
    <contour>
      <point x="71" y="510" type="curve"/>
      <point x="111.0" y="510.0" type="line"/>
      <point x="125.66666666666666" y="512.0"/>
      <point x="134.0" y="520.3333333333333"/>
      <point x="136" y="535" type="curve"/>
      <point x="136.0" y="675.0" type="line"/>
      <point x="134.0" y="689.6666666666666"/>
      <point x="125.66666666666666" y="698.0"/>
      <point x="111" y="700" type="curve"/>
      <point x="71.0" y="700.0" type="line"/>
      <point x="56.33333333333333" y="698.0"/>
      <point x="48.0" y="689.6666666666666"/>
      <point x="46" y="675" type="curve"/>
      <point x="46.0" y="535.0" type="line"/>
      <point x="48.0" y="520.3333333333333"/>
      <point x="56.33333333333333" y="512.0"/>
    </contour>
  </outline>
</glyph>
<glyph name="numbersign" format="2">
  <advance width="542"/>
  <unicode hex="0023"/>
  <outline>
    <contour>
      <point x="142" y="671" type="line"/>
      <point x="147" y="584"/>
      <point x="149" y="539"/>
      <point x="149" y="536" type="curve"/>
      <point x="148" y="533"/>
      <point x="146" y="531"/>
      <point x="145" y="529" type="curve"/>
      <point x="143" y="527"/>
      <point x="141" y="526"/>
      <point x="138" y="525" type="curve" smooth="yes"/>
      <point x="135" y="524"/>
      <point x="113" y="524"/>
      <point x="73" y="524" type="curve" smooth="yes"/>
      <point x="71" y="524" type="line"/>
      <point x="56" y="522"/>
      <point x="48" y="514"/>
      <point x="46" y="499" type="curve"/>
      <point x="46" y="459" type="line"/>
      <point x="48" y="444"/>
      <point x="56" y="436"/>
      <point x="71" y="434" type="curve"/>
      <point x="73" y="434" type="line"/>
      <point x="140" y="434" type="line" smooth="yes"/>
      <point x="143" y="434"/>
      <point x="145" y="433"/>
      <point x="148" y="432" type="curve"/>
      <point x="153" y="429"/>
      <point x="155" y="424"/>
      <point x="156" y="419" type="curve"/>
      <point x="160" y="350"/>
      <point x="162" y="315"/>
      <point x="162" y="312" type="curve"/>
      <point x="161" y="309"/>
      <point x="159" y="307"/>
      <point x="158" y="305" type="curve"/>
      <point x="155" y="303"/>
      <point x="153" y="302"/>
      <point x="150" y="301" type="curve" smooth="yes"/>
      <point x="147" y="300"/>
      <point x="122" y="300"/>
      <point x="73" y="300" type="curve" smooth="yes"/>
      <point x="71" y="300" type="line"/>
      <point x="56" y="298"/>
      <point x="48" y="290"/>
      <point x="46" y="275" type="curve"/>
      <point x="46" y="235" type="line"/>
      <point x="48" y="220"/>
      <point x="56" y="212"/>
      <point x="71" y="210" type="curve"/>
      <point x="73" y="210" type="line" smooth="yes"/>
      <point x="126" y="210"/>
      <point x="154" y="210"/>
      <point x="157" y="210" type="curve"/>
      <point x="160" y="209"/>
      <point x="162" y="207"/>
      <point x="164" y="206" type="curve"/>
      <point x="165" y="204"/>
      <point x="167" y="202"/>
      <point x="168" y="199" type="curve" smooth="yes"/>
      <point x="169" y="196"/>
      <point x="172" y="138"/>
      <point x="179" y="25" type="curve"/>
      <point x="179" y="24" type="line"/>
      <point x="182" y="10"/>
      <point x="190" y="2"/>
      <point x="204" y="0" type="curve"/>
      <point x="226" y="0" type="line"/>
      <point x="241" y="4"/>
      <point x="249" y="13"/>
      <point x="250" y="28" type="curve"/>
      <point x="250" y="29" type="line"/>
      <point x="241" y="194" type="line"/>
      <point x="241" y="197"/>
      <point x="242" y="199"/>
      <point x="243" y="202" type="curve"/>
      <point x="246" y="207"/>
      <point x="251" y="209"/>
      <point x="257" y="210" type="curve"/>
      <point x="288" y="210"/>
      <point x="304" y="210"/>
      <point x="307" y="210" type="curve"/>
      <point x="310" y="209"/>
      <point x="312" y="207"/>
      <point x="314" y="206" type="curve"/>
      <point x="315" y="204"/>
      <point x="317" y="202"/>
      <point x="318" y="199" type="curve" smooth="yes"/>
      <point x="319" y="196"/>
      <point x="322" y="138"/>
      <point x="329" y="25" type="curve"/>
      <point x="329" y="24" type="line"/>
      <point x="332" y="10"/>
      <point x="340" y="2"/>
      <point x="354" y="0" type="curve"/>
      <point x="376" y="0" type="line"/>
      <point x="391" y="4"/>
      <point x="399" y="13"/>
      <point x="400" y="28" type="curve"/>
      <point x="400" y="29" type="line"/>
      <point x="394" y="139"/>
      <point x="391" y="195"/>
      <point x="391" y="198" type="curve"/>
      <point x="392" y="201"/>
      <point x="394" y="203"/>
      <point x="395" y="205" type="curve"/>
      <point x="398" y="207"/>
      <point x="400" y="208"/>
      <point x="402" y="209" type="curve"/>
      <point x="405" y="210"/>
      <point x="428" y="210"/>
      <point x="469" y="210" type="curve" smooth="yes"/>
      <point x="471" y="210" type="line"/>
      <point x="486" y="212"/>
      <point x="494" y="220"/>
      <point x="496" y="235" type="curve"/>
      <point x="496" y="275" type="line"/>
      <point x="494" y="290"/>
      <point x="486" y="298"/>
      <point x="471" y="300" type="curve"/>
      <point x="469" y="300" type="line"/>
      <point x="400" y="300" type="line" smooth="yes"/>
      <point x="397" y="300"/>
      <point x="395" y="301"/>
      <point x="392" y="302" type="curve"/>
      <point x="388" y="305"/>
      <point x="385" y="310"/>
      <point x="384" y="315" type="curve"/>
      <point x="380" y="384"/>
      <point x="378" y="419"/>
      <point x="379" y="422" type="curve" smooth="yes"/>
      <point x="380" y="425"/>
      <point x="381" y="427"/>
      <point x="382" y="429" type="curve"/>
      <point x="385" y="431"/>
      <point x="387" y="432"/>
      <point x="390" y="433" type="curve" smooth="yes"/>
      <point x="393" y="434"/>
      <point x="419" y="434"/>
      <point x="469" y="434" type="curve" smooth="yes"/>
      <point x="471" y="434" type="line"/>
      <point x="486" y="436"/>
      <point x="494" y="444"/>
      <point x="496" y="459" type="curve"/>
      <point x="496" y="499" type="line"/>
      <point x="494" y="514"/>
      <point x="486" y="522"/>
      <point x="471" y="524" type="curve"/>
      <point x="469" y="524" type="line" smooth="yes"/>
      <point x="414" y="524"/>
      <point x="386" y="524"/>
      <point x="383" y="524" type="curve"/>
      <point x="380" y="525"/>
      <point x="378" y="527"/>
      <point x="376" y="528" type="curve"/>
      <point x="375" y="530"/>
      <point x="373" y="532"/>
      <point x="372" y="535" type="curve" smooth="yes"/>
      <point x="371" y="538"/>
      <point x="368" y="584"/>
      <point x="363" y="675" type="curve"/>
      <point x="363" y="676" type="line"/>
      <point x="360" y="690"/>
      <point x="352" y="698"/>
      <point x="338" y="700" type="curve"/>
      <point x="316" y="700" type="line"/>
      <point x="301" y="696"/>
      <point x="293" y="687"/>
      <point x="292" y="672" type="curve"/>
      <point x="292" y="671" type="line"/>
      <point x="299" y="540" type="line"/>
      <point x="299" y="537"/>
      <point x="298" y="535"/>
      <point x="297" y="532" type="curve"/>
      <point x="294" y="527"/>
      <point x="289" y="525"/>
      <point x="283" y="524" type="curve"/>
      <point x="252" y="524"/>
      <point x="236" y="524"/>
      <point x="233" y="524" type="curve"/>
      <point x="230" y="525"/>
      <point x="228" y="527"/>
      <point x="226" y="528" type="curve"/>
      <point x="225" y="530"/>
      <point x="223" y="532"/>
      <point x="222" y="535" type="curve" smooth="yes"/>
      <point x="221" y="538"/>
      <point x="218" y="584"/>
      <point x="213" y="675" type="curve"/>
      <point x="213" y="676" type="line"/>
      <point x="210" y="690"/>
      <point x="202" y="698"/>
      <point x="188" y="700" type="curve"/>
      <point x="166" y="700" type="line"/>
      <point x="151" y="696"/>
      <point x="143" y="687"/>
      <point x="142" y="672" type="curve"/>
    </contour>
    <contour>
      <point x="244" y="434" type="curve"/>
      <point x="290" y="434" type="line"/>
      <point x="294" y="433"/>
      <point x="298" y="432"/>
      <point x="301" y="430" type="curve"/>
      <point x="304" y="427"/>
      <point x="305" y="423"/>
      <point x="306" y="419" type="curve"/>
      <point x="312" y="316" type="line"/>
      <point x="312" y="313"/>
      <point x="311" y="311"/>
      <point x="310" y="308" type="curve"/>
      <point x="307" y="305"/>
      <point x="304" y="302"/>
      <point x="300" y="301" type="curve"/>
      <point x="283" y="298"/>
      <point x="265" y="298"/>
      <point x="246" y="300" type="curve"/>
      <point x="242" y="302"/>
      <point x="239" y="304"/>
      <point x="236" y="307" type="curve"/>
      <point x="235" y="311" type="line"/>
      <point x="234" y="314"/>
      <point x="232" y="349"/>
      <point x="228" y="418" type="curve"/>
      <point x="229" y="422"/>
      <point x="230" y="426"/>
      <point x="232" y="429" type="curve"/>
      <point x="235" y="432"/>
      <point x="239" y="433"/>
    </contour>
  </outline>
</glyph>
<glyph name="dollar" format="2">
  <advance width="512"/>
  <unicode hex="0024"/>
  <outline>
    <contour>
      <point x="109" y="73" type="line"/>
      <point x="143.66666666666666" y="47.666666666666664"/>
      <point x="163.0" y="34.0"/>
      <point x="167.0" y="32.0" type="curve"/>
      <point x="171.0" y="30.666666666666664"/>
      <point x="180.33333333333331" y="30.0"/>
      <point x="195.0" y="30.0" type="curve"/>
      <point x="203.1666666666666" y="28.833333333333336"/>
      <point x="208.4444444444444" y="24.222222222222253"/>
      <point x="210.0" y="18.0" type="curve" smooth="yes"/>
      <point x="210.66666666666666" y="15.333333333333332"/>
      <point x="211.0" y="-8.333333333333329"/>
      <point x="211" y="-53" type="curve" smooth="yes"/>
      <point x="211.0" y="-55.0" type="line"/>
      <point x="213.0" y="-69.66666666666666"/>
      <point x="221.33333333333331" y="-78.0"/>
      <point x="236" y="-80" type="curve"/>
      <point x="276.0" y="-80.0" type="line"/>
      <point x="290.66666666666663" y="-78.0"/>
      <point x="299.0" y="-69.66666666666666"/>
      <point x="301" y="-55" type="curve"/>
      <point x="301" y="-53" type="line"/>
      <point x="301.0" y="14.0" type="line"/>
      <point x="301.66666666666663" y="16.666666666666664"/>
      <point x="302.3333333333333" y="19.333333333333332"/>
      <point x="303.0" y="22.0" type="curve"/>
      <point x="306.3333333333333" y="26.666666666666664"/>
      <point x="311.0" y="29.333333333333332"/>
      <point x="317.0" y="30.0" type="curve"/>
      <point x="329.66666666666663" y="30.0"/>
      <point x="338.3333333333333" y="30.333333333333332"/>
      <point x="343.0" y="31.0" type="curve"/>
      <point x="344.3333333333333" y="31.666666666666664"/>
      <point x="346.66666666666663" y="33.0"/>
      <point x="350.0" y="35.0" type="curve"/>
      <point x="351.3333333333333" y="35.0"/>
      <point x="386.3333333333333" y="60.33333333333333"/>
      <point x="455" y="111" type="curve"/>
      <point x="456.0" y="111.0" type="line"/>
      <point x="462.0" y="116.33333333333333"/>
      <point x="465.3333333333333" y="123.0"/>
      <point x="466" y="131" type="curve"/>
      <point x="466.0" y="370.0" type="line"/>
      <point x="463.99999999999994" y="384.66666666666663"/>
      <point x="455.66666666666663" y="393.0"/>
      <point x="441" y="395" type="curve"/>
      <point x="439" y="395" type="line"/>
      <point x="317.0" y="395.0" type="line"/>
      <point x="314.3333333333333" y="395.66666666666663"/>
      <point x="311.66666666666663" y="396.3333333333333"/>
      <point x="309.0" y="397.0" type="curve"/>
      <point x="304.3333333333333" y="400.3333333333333"/>
      <point x="301.66666666666663" y="405.0"/>
      <point x="301.0" y="411.0" type="curve"/>
      <point x="301.0" y="513.0"/>
      <point x="301.3333333333333" y="565.3333333333333"/>
      <point x="302.0" y="568.0" type="curve" smooth="yes"/>
      <point x="303.33333333333326" y="573.3333333333333"/>
      <point x="307.66666666666663" y="577.6666666666665"/>
      <point x="313.0" y="579.0" type="curve" smooth="yes"/>
      <point x="315.66666666666663" y="579.6666666666666"/>
      <point x="340.3333333333333" y="580.0"/>
      <point x="387" y="580" type="curve" smooth="yes"/>
      <point x="388.0" y="580.0" type="line"/>
      <point x="399.3333333333333" y="581.3333333333333"/>
      <point x="407.3333333333333" y="587.0"/>
      <point x="412.0" y="597.0" type="curve"/>
      <point x="415.99999999999994" y="608.3333333333333"/>
      <point x="413.33333333333326" y="618.3333333333333"/>
      <point x="404" y="627" type="curve"/>
      <point x="403.0" y="627.0" type="line"/>
      <point x="368.3333333333333" y="652.3333333333333"/>
      <point x="349.0" y="666.0"/>
      <point x="345.0" y="668.0" type="curve"/>
      <point x="341.0" y="669.3333333333333"/>
      <point x="331.66666666666663" y="670.0"/>
      <point x="317.0" y="670.0" type="curve"/>
      <point x="308.8333333333333" y="671.1666666666666"/>
      <point x="303.5555555555555" y="675.7777777777776"/>
      <point x="302.0" y="682.0" type="curve" smooth="yes"/>
      <point x="301.3333333333333" y="684.6666666666666"/>
      <point x="301.0" y="708.3333333333333"/>
      <point x="301" y="753" type="curve" smooth="yes"/>
      <point x="301.0" y="755.0" type="line"/>
      <point x="299.0" y="769.6666666666666"/>
      <point x="290.66666666666663" y="778.0"/>
      <point x="276" y="780" type="curve"/>
      <point x="236.0" y="780.0" type="line"/>
      <point x="221.33333333333331" y="778.0"/>
      <point x="213.0" y="769.6666666666666"/>
      <point x="211" y="755" type="curve"/>
      <point x="211" y="753" type="line"/>
      <point x="211.0" y="686.0" type="line"/>
      <point x="210.33333333333331" y="683.3333333333333"/>
      <point x="209.66666666666666" y="680.6666666666666"/>
      <point x="209.0" y="678.0" type="curve"/>
      <point x="205.66666666666666" y="673.3333333333333"/>
      <point x="201.0" y="670.6666666666666"/>
      <point x="195.0" y="670.0" type="curve"/>
      <point x="182.33333333333331" y="670.0"/>
      <point x="173.66666666666666" y="669.6666666666666"/>
      <point x="169.0" y="669.0" type="curve"/>
      <point x="167.66666666666666" y="668.3333333333333"/>
      <point x="165.33333333333331" y="667.0"/>
      <point x="162.0" y="665.0" type="curve"/>
      <point x="160.66666666666666" y="665.0"/>
      <point x="125.66666666666666" y="639.6666666666666"/>
      <point x="57" y="589" type="curve"/>
      <point x="56.0" y="589.0" type="line"/>
      <point x="50.0" y="583.6666666666666"/>
      <point x="46.666666666666664" y="577.0"/>
      <point x="46" y="569" type="curve"/>
      <point x="46.0" y="330.0" type="line"/>
      <point x="48.0" y="315.3333333333333"/>
      <point x="56.33333333333333" y="307.0"/>
      <point x="71" y="305" type="curve"/>
      <point x="73" y="305" type="line"/>
      <point x="195.0" y="305.0" type="line"/>
      <point x="197.66666666666666" y="304.3333333333333"/>
      <point x="200.33333333333331" y="303.66666666666663"/>
      <point x="203.0" y="303.0" type="curve"/>
      <point x="207.66666666666666" y="299.66666666666663"/>
      <point x="210.33333333333331" y="295.0"/>
      <point x="211.0" y="289.0" type="curve"/>
      <point x="211.0" y="187.0"/>
      <point x="210.66666666666666" y="134.66666666666666"/>
      <point x="210.0" y="132.0" type="curve" smooth="yes"/>
      <point x="208.66666666666663" y="126.66666666666659"/>
      <point x="204.33333333333323" y="122.3333333333333"/>
      <point x="199.0" y="121.0" type="curve" smooth="yes"/>
      <point x="196.33333333333331" y="120.33333333333333"/>
      <point x="171.66666666666666" y="120.0"/>
      <point x="125" y="120" type="curve" smooth="yes"/>
      <point x="124.0" y="120.0" type="line"/>
      <point x="112.66666666666666" y="118.66666666666666"/>
      <point x="104.66666666666666" y="112.99999999999999"/>
      <point x="100.0" y="103.0" type="curve"/>
      <point x="96.0" y="91.66666666666666"/>
      <point x="98.66666666666666" y="81.66666666666666"/>
      <point x="108" y="73" type="curve"/>
    </contour>
    <contour>
      <point x="301" y="141" type="curve"/>
      <point x="301.0" y="289.0" type="line"/>
      <point x="302.33333333333326" y="298.33333333333314"/>
      <point x="307.6666666666665" y="303.66666666666663"/>
      <point x="317.0" y="305.0" type="curve"/>
      <point x="347.66666666666663" y="305.0"/>
      <point x="364.66666666666663" y="304.3333333333333"/>
      <point x="368.0" y="303.0" type="curve"/>
      <point x="371.3333333333333" y="300.3333333333333"/>
      <point x="373.66666666666663" y="297.0"/>
      <point x="375" y="293" type="curve"/>
      <point x="376.0" y="289.0" type="line"/>
      <point x="376.0" y="211.0"/>
      <point x="376.0" y="171.0"/>
      <point x="376.0" y="169.0" type="curve"/>
      <point x="374.66666666666663" y="165.66666666666666"/>
      <point x="372.66666666666663" y="162.66666666666666"/>
      <point x="370" y="160" type="curve"/>
      <point x="326.0" y="128.0" type="line"/>
      <point x="323.3333333333333" y="126.66666666666666"/>
      <point x="320.66666666666663" y="125.66666666666666"/>
      <point x="318.0" y="125.0" type="curve"/>
      <point x="313.3333333333333" y="125.0"/>
      <point x="309.3333333333333" y="126.33333333333333"/>
      <point x="306.0" y="129.0" type="curve"/>
      <point x="303.3333333333333" y="132.33333333333331"/>
      <point x="301.66666666666663" y="136.33333333333331"/>
    </contour>
    <contour>
      <point x="142" y="540" type="curve"/>
      <point x="186.0" y="572.0" type="line"/>
      <point x="190.0" y="574.0"/>
      <point x="194.0" y="575.0"/>
      <point x="198.0" y="575.0" type="curve"/>
      <point x="202.66666666666666" y="573.6666666666666"/>
      <point x="206.33333333333331" y="571.3333333333333"/>
      <point x="209" y="568" type="curve"/>
      <point x="210" y="564" type="line"/>
      <point x="211" y="559" type="line"/>
      <point x="211.0" y="411.0" type="line"/>
      <point x="209.66666666666663" y="401.6666666666666"/>
      <point x="204.33333333333323" y="396.33333333333326"/>
      <point x="195.0" y="395.0" type="curve"/>
      <point x="164.33333333333331" y="395.0"/>
      <point x="147.33333333333331" y="395.66666666666663"/>
      <point x="144.0" y="397.0" type="curve"/>
      <point x="140.66666666666666" y="399.66666666666663"/>
      <point x="138.33333333333331" y="403.0"/>
      <point x="137" y="407" type="curve"/>
      <point x="136.0" y="411.0" type="line"/>
      <point x="136.0" y="489.0"/>
      <point x="136.0" y="529.0"/>
      <point x="136.0" y="531.0" type="curve"/>
      <point x="137.33333333333331" y="534.3333333333333"/>
      <point x="139.33333333333331" y="537.3333333333333"/>
    </contour>
  </outline>
</glyph>
<glyph name="percent" format="2">
  <advance width="729"/>
  <unicode hex="0025"/>
  <outline>
    <contour>
      <point x="80" y="0" type="line" smooth="yes"/>
      <point x="107" y="0"/>
      <point x="122" y="1"/>
      <point x="125" y="2" type="curve" smooth="yes"/>
      <point x="128" y="3"/>
      <point x="130" y="4"/>
      <point x="131" y="5" type="curve"/>
      <point x="136" y="9" type="line"/>
      <point x="137" y="10"/>
      <point x="317" y="224"/>
      <point x="677" y="651" type="curve"/>
      <point x="678" y="652" type="line"/>
      <point x="682" y="658"/>
      <point x="683" y="663"/>
      <point x="683" y="668" type="curve" smooth="yes"/>
      <point x="683" y="675"/>
      <point x="681" y="681"/>
      <point x="675" y="687" type="curve"/>
      <point x="667" y="694" type="line"/>
      <point x="662" y="697"/>
      <point x="656" y="699"/>
      <point x="651" y="700" type="curve"/>
      <point x="650" y="700" type="line" smooth="yes"/>
      <point x="623" y="700"/>
      <point x="608" y="699"/>
      <point x="604" y="698" type="curve"/>
      <point x="601" y="697"/>
      <point x="599" y="696"/>
      <point x="598" y="695" type="curve"/>
      <point x="593" y="691" type="line"/>
      <point x="593" y="690"/>
      <point x="413" y="476"/>
      <point x="52" y="49" type="curve"/>
      <point x="52" y="48" type="line"/>
      <point x="48" y="42"/>
      <point x="46" y="37"/>
      <point x="46" y="32" type="curve" smooth="yes"/>
      <point x="46" y="25"/>
      <point x="49" y="19"/>
      <point x="55" y="13" type="curve"/>
      <point x="63" y="6" type="line"/>
      <point x="68" y="3"/>
      <point x="73" y="1"/>
      <point x="79" y="0" type="curve"/>
    </contour>
    <contour>
      <point x="653" y="180" type="curve"/>
      <point x="627" y="209"/>
      <point x="612" y="225"/>
      <point x="609" y="226" type="curve"/>
      <point x="604" y="229"/>
      <point x="600" y="230"/>
      <point x="596" y="230" type="curve" smooth="yes"/>
      <point x="528" y="230"/>
      <point x="493" y="230"/>
      <point x="492" y="230" type="curve"/>
      <point x="489" y="229"/>
      <point x="486" y="229"/>
      <point x="485" y="229" type="curve"/>
      <point x="482" y="227"/>
      <point x="479" y="226"/>
      <point x="478" y="225" type="curve" smooth="yes"/>
      <point x="475" y="222"/>
      <point x="462" y="207"/>
      <point x="437" y="180" type="curve"/>
      <point x="436" y="180" type="line"/>
      <point x="433" y="175"/>
      <point x="431" y="169"/>
      <point x="430" y="163" type="curve"/>
      <point x="430" y="67" type="line"/>
      <point x="431" y="61"/>
      <point x="433" y="55"/>
      <point x="436" y="50" type="curve"/>
      <point x="437" y="50" type="line"/>
      <point x="463" y="21"/>
      <point x="477" y="5"/>
      <point x="480" y="4" type="curve"/>
      <point x="485" y="1"/>
      <point x="489" y="0"/>
      <point x="494" y="0" type="curve" smooth="yes"/>
      <point x="562" y="0"/>
      <point x="596" y="0"/>
      <point x="597" y="0" type="curve"/>
      <point x="600" y="1"/>
      <point x="603" y="1"/>
      <point x="604" y="1" type="curve"/>
      <point x="607" y="3"/>
      <point x="610" y="4"/>
      <point x="611" y="5" type="curve" smooth="yes"/>
      <point x="614" y="8"/>
      <point x="628" y="23"/>
      <point x="653" y="50" type="curve"/>
      <point x="656" y="55"/>
      <point x="659" y="61"/>
      <point x="660" y="67" type="curve"/>
      <point x="660" y="163" type="line"/>
      <point x="659" y="169"/>
      <point x="656" y="175"/>
    </contour>
    <contour>
      <point x="520" y="106" type="curve" smooth="yes"/>
      <point x="520" y="124" type="line" smooth="yes"/>
      <point x="520" y="129"/>
      <point x="521" y="132"/>
      <point x="524" y="135" type="curve" smooth="yes"/>
      <point x="527" y="138"/>
      <point x="531" y="139"/>
      <point x="535" y="140" type="curve"/>
      <point x="550" y="140"/>
      <point x="559" y="139"/>
      <point x="562" y="138" type="curve"/>
      <point x="565" y="135"/>
      <point x="568" y="132"/>
      <point x="569" y="128" type="curve"/>
      <point x="570" y="119"/>
      <point x="570" y="111"/>
      <point x="569" y="102" type="curve"/>
      <point x="568" y="98"/>
      <point x="565" y="95"/>
      <point x="562" y="92" type="curve"/>
      <point x="559" y="91"/>
      <point x="550" y="90"/>
      <point x="535" y="90" type="curve"/>
      <point x="531" y="91"/>
      <point x="527" y="92"/>
      <point x="524" y="95" type="curve" smooth="yes"/>
      <point x="521" y="98"/>
      <point x="520" y="101"/>
    </contour>
    <contour>
      <point x="300" y="537" type="curve"/>
      <point x="300" y="633" type="line"/>
      <point x="299" y="639"/>
      <point x="296" y="645"/>
      <point x="293" y="650" type="curve"/>
      <point x="267" y="679"/>
      <point x="252" y="695"/>
      <point x="249" y="696" type="curve"/>
      <point x="244" y="699"/>
      <point x="240" y="700"/>
      <point x="236" y="700" type="curve" smooth="yes"/>
      <point x="168" y="700"/>
      <point x="133" y="700"/>
      <point x="132" y="700" type="curve"/>
      <point x="129" y="699"/>
      <point x="126" y="699"/>
      <point x="125" y="699" type="curve"/>
      <point x="122" y="697"/>
      <point x="119" y="696"/>
      <point x="118" y="695" type="curve" smooth="yes"/>
      <point x="115" y="692"/>
      <point x="102" y="677"/>
      <point x="77" y="650" type="curve"/>
      <point x="76" y="650" type="line"/>
      <point x="73" y="645"/>
      <point x="71" y="639"/>
      <point x="70" y="633" type="curve"/>
      <point x="70" y="537" type="line"/>
      <point x="71" y="531"/>
      <point x="73" y="525"/>
      <point x="76" y="520" type="curve"/>
      <point x="77" y="520" type="line"/>
      <point x="103" y="491"/>
      <point x="117" y="475"/>
      <point x="120" y="474" type="curve"/>
      <point x="125" y="471"/>
      <point x="129" y="470"/>
      <point x="134" y="470" type="curve" smooth="yes"/>
      <point x="202" y="470"/>
      <point x="236" y="470"/>
      <point x="237" y="470" type="curve"/>
      <point x="240" y="471"/>
      <point x="243" y="471"/>
      <point x="244" y="471" type="curve"/>
      <point x="247" y="473"/>
      <point x="250" y="474"/>
      <point x="251" y="475" type="curve" smooth="yes"/>
      <point x="254" y="478"/>
      <point x="268" y="493"/>
      <point x="293" y="520" type="curve"/>
      <point x="296" y="525"/>
      <point x="299" y="531"/>
    </contour>
    <contour>
      <point x="160" y="576" type="curve" smooth="yes"/>
      <point x="160" y="594" type="line" smooth="yes"/>
      <point x="160" y="599"/>
      <point x="161" y="602"/>
      <point x="164" y="605" type="curve" smooth="yes"/>
      <point x="167" y="608"/>
      <point x="171" y="609"/>
      <point x="175" y="610" type="curve"/>
      <point x="190" y="610"/>
      <point x="199" y="609"/>
      <point x="202" y="608" type="curve"/>
      <point x="205" y="605"/>
      <point x="208" y="602"/>
      <point x="209" y="598" type="curve"/>
      <point x="210" y="589"/>
      <point x="210" y="581"/>
      <point x="209" y="572" type="curve"/>
      <point x="208" y="568"/>
      <point x="205" y="565"/>
      <point x="202" y="562" type="curve"/>
      <point x="199" y="561"/>
      <point x="190" y="560"/>
      <point x="175" y="560" type="curve"/>
      <point x="171" y="561"/>
      <point x="167" y="562"/>
      <point x="164" y="565" type="curve" smooth="yes"/>
      <point x="161" y="568"/>
      <point x="160" y="571"/>
    </contour>
  </outline>
</glyph>
<glyph name="ampersand" format="2">
  <advance width="695"/>
  <unicode hex="0026"/>
  <outline>
    <contour>
      <point x="391" y="633" type="line"/>
      <point x="453" y="584"/>
      <point x="485" y="559"/>
      <point x="487" y="559" type="curve"/>
      <point x="506" y="560"/>
      <point x="519" y="562"/>
      <point x="526" y="565" type="curve"/>
      <point x="527" y="566"/>
      <point x="528" y="568"/>
      <point x="529" y="570" type="curve"/>
      <point x="529" y="571"/>
      <point x="529" y="589"/>
      <point x="528" y="625" type="curve" smooth="yes"/>
      <point x="528" y="626"/>
      <point x="528" y="628"/>
      <point x="527" y="629" type="curve" smooth="yes"/>
      <point x="526" y="630"/>
      <point x="526" y="630"/>
      <point x="525" y="631" type="curve"/>
      <point x="454" y="682"/>
      <point x="418" y="708"/>
      <point x="417" y="708" type="curve"/>
      <point x="416" y="709"/>
      <point x="415" y="709"/>
      <point x="414" y="709" type="curve" smooth="yes"/>
      <point x="413" y="709" type="line"/>
      <point x="282" y="690"/>
      <point x="217" y="680"/>
      <point x="216" y="680" type="curve"/>
      <point x="214" y="679"/>
      <point x="191" y="646"/>
      <point x="147" y="583" type="curve"/>
      <point x="147" y="582"/>
      <point x="147" y="581"/>
      <point x="146" y="580" type="curve"/>
      <point x="146" y="579"/>
      <point x="156" y="528"/>
      <point x="177" y="426" type="curve"/>
      <point x="102" y="363"/>
      <point x="65" y="331"/>
      <point x="65" y="330" type="curve"/>
      <point x="64" y="329"/>
      <point x="54" y="301"/>
      <point x="34" y="245" type="curve"/>
      <point x="34" y="244"/>
      <point x="34" y="242"/>
      <point x="34" y="241" type="curve"/>
      <point x="61" y="134"/>
      <point x="75" y="81"/>
      <point x="76" y="80" type="curve" smooth="yes"/>
      <point x="77" y="79"/>
      <point x="106" y="55"/>
      <point x="163" y="6" type="curve"/>
      <point x="164" y="5"/>
      <point x="197" y="-5"/>
      <point x="262" y="-25" type="curve"/>
      <point x="263" y="-25"/>
      <point x="316" y="-16"/>
      <point x="419" y="1" type="curve"/>
      <point x="420" y="2"/>
      <point x="451" y="22"/>
      <point x="512" y="61" type="curve"/>
      <point x="599" y="14"/>
      <point x="642" y="-9"/>
      <point x="643" y="-10" type="curve"/>
      <point x="644" y="-10"/>
      <point x="645" y="-10"/>
      <point x="646" y="-10" type="curve"/>
      <point x="648" y="-9"/>
      <point x="650" y="-8"/>
      <point x="651" y="-6" type="curve"/>
      <point x="652" y="-5"/>
      <point x="656" y="14"/>
      <point x="665" y="51" type="curve"/>
      <point x="665" y="54"/>
      <point x="665" y="55"/>
      <point x="664" y="56" type="curve" smooth="yes"/>
      <point x="663" y="57"/>
      <point x="634" y="83"/>
      <point x="576" y="134" type="curve"/>
      <point x="604" y="195"/>
      <point x="618" y="227"/>
      <point x="619" y="228" type="curve"/>
      <point x="619" y="229" type="line"/>
      <point x="616" y="285"/>
      <point x="615" y="314"/>
      <point x="615" y="315" type="curve"/>
      <point x="614" y="317"/>
      <point x="613" y="318"/>
      <point x="611" y="319" type="curve"/>
      <point x="603" y="321"/>
      <point x="595" y="322"/>
      <point x="587" y="322" type="curve" smooth="yes"/>
      <point x="579" y="322"/>
      <point x="572" y="321"/>
      <point x="564" y="319" type="curve"/>
      <point x="563" y="319"/>
      <point x="563" y="319"/>
      <point x="562" y="318" type="curve" smooth="yes"/>
      <point x="561" y="317"/>
      <point x="545" y="277"/>
      <point x="512" y="196" type="curve"/>
      <point x="482" y="202" type="line"/>
      <point x="323" y="362" type="line"/>
      <point x="223" y="536" type="line"/>
      <point x="236" y="584" type="line"/>
      <point x="303" y="634" type="line"/>
    </contour>
    <contour>
      <point x="197" y="78" type="line"/>
      <point x="149" y="125" type="line"/>
      <point x="121" y="182" type="line"/>
      <point x="121" y="266" type="line"/>
      <point x="137" y="298" type="line"/>
      <point x="184" y="345" type="line"/>
      <point x="221" y="357" type="line"/>
      <point x="377" y="188" type="line"/>
      <point x="378" y="188"/>
      <point x="400" y="170"/>
      <point x="445" y="133" type="curve"/>
      <point x="453" y="112" type="line"/>
      <point x="407" y="78" type="line"/>
      <point x="362" y="62" type="line"/>
      <point x="292" y="55" type="line"/>
    </contour>
  </outline>
</glyph>
<glyph name="parenleft" format="2">
  <advance width="242"/>
  <unicode hex="0028"/>
  <outline>
    <contour>
      <point x="127" y="761" type="line"/>
      <point x="73.66666666666666" y="575.6666666666666"/>
      <point x="47.0" y="482.66666666666663"/>
      <point x="47.0" y="482.0" type="curve"/>
      <point x="46.33333333333333" y="478.0"/>
      <point x="46.0" y="475.66666666666663"/>
      <point x="46.0" y="475.0" type="curve" smooth="yes"/>
      <point x="46.0" y="308.3333333333333"/>
      <point x="46.0" y="224.66666666666666"/>
      <point x="46" y="224" type="curve"/>
      <point x="47.0" y="218.0" type="line"/>
      <point x="47.0" y="217.33333333333331"/>
      <point x="73.66666666666666" y="124.33333333333331"/>
      <point x="127" y="-61" type="curve"/>
      <point x="128.0" y="-62.0" type="line"/>
      <point x="132.66666666666666" y="-72.66666666666666"/>
      <point x="140.66666666666666" y="-78.66666666666666"/>
      <point x="152" y="-80" type="curve"/>
      <point x="171.0" y="-80.0" type="line"/>
      <point x="185.66666666666666" y="-78.0"/>
      <point x="194.0" y="-69.66666666666666"/>
      <point x="196" y="-55" type="curve"/>
      <point x="196.0" y="-53.0" type="line" smooth="yes"/>
      <point x="196.0" y="-3.0"/>
      <point x="196.0" y="22.333333333333332"/>
      <point x="196.0" y="23.0" type="curve"/>
      <point x="195.33333333333331" y="27.0"/>
      <point x="195.0" y="29.333333333333332"/>
      <point x="195.0" y="30.0" type="curve"/>
      <point x="156.33333333333331" y="164.0"/>
      <point x="136.66666666666666" y="231.66666666666666"/>
      <point x="136.0" y="233.0" type="curve"/>
      <point x="136.0" y="233.66666666666666"/>
      <point x="136.0" y="235.0"/>
      <point x="136.0" y="237.0" type="curve" smooth="yes"/>
      <point x="136.0" y="387.66666666666663"/>
      <point x="136.0" y="463.99999999999994"/>
      <point x="136.0" y="466.0" type="curve" smooth="yes"/>
      <point x="136.0" y="466.66666666666663"/>
      <point x="136.33333333333331" y="467.66666666666663"/>
      <point x="137.0" y="469.0" type="curve"/>
      <point x="175.66666666666666" y="603.0"/>
      <point x="195.0" y="670.3333333333333"/>
      <point x="195.0" y="671.0" type="curve"/>
      <point x="195.66666666666666" y="675.6666666666666"/>
      <point x="196.0" y="703.0"/>
      <point x="196" y="753" type="curve" smooth="yes"/>
      <point x="196.0" y="755.0" type="line"/>
      <point x="194.0" y="769.6666666666666"/>
      <point x="185.66666666666666" y="778.0"/>
      <point x="171" y="780" type="curve"/>
      <point x="152.0" y="780.0" type="line"/>
      <point x="140.66666666666666" y="778.6666666666666"/>
      <point x="132.66666666666666" y="772.6666666666666"/>
      <point x="128" y="762" type="curve"/>
    </contour>
  </outline>
</glyph>
<glyph name="parenright" format="2">
  <advance width="242"/>
  <unicode hex="0029"/>
  <outline>
    <contour>
      <point x="115" y="-61" type="line"/>
      <point x="168.33333333333331" y="124.33333333333331"/>
      <point x="195.0" y="217.33333333333331"/>
      <point x="195.0" y="218.0" type="curve"/>
      <point x="195.66666666666666" y="221.99999999999997"/>
      <point x="196.0" y="224.33333333333331"/>
      <point x="196.0" y="225.0" type="curve" smooth="yes"/>
      <point x="196.0" y="391.66666666666663"/>
      <point x="196.0" y="475.33333333333326"/>
      <point x="196" y="476" type="curve"/>
      <point x="195.0" y="482.0" type="line"/>
      <point x="195.0" y="482.66666666666663"/>
      <point x="168.33333333333331" y="575.6666666666666"/>
      <point x="115" y="761" type="curve"/>
      <point x="114.0" y="762.0" type="line"/>
      <point x="109.33333333333333" y="772.6666666666666"/>
      <point x="101.33333333333333" y="778.6666666666666"/>
      <point x="90" y="780" type="curve"/>
      <point x="71.0" y="780.0" type="line"/>
      <point x="56.33333333333333" y="778.0"/>
      <point x="48.0" y="769.6666666666666"/>
      <point x="46" y="755" type="curve"/>
      <point x="46.0" y="753.0" type="line" smooth="yes"/>
      <point x="46.0" y="703.0"/>
      <point x="46.0" y="677.6666666666666"/>
      <point x="46.0" y="677.0" type="curve"/>
      <point x="46.666666666666664" y="673.0"/>
      <point x="47.0" y="670.6666666666666"/>
      <point x="47.0" y="670.0" type="curve"/>
      <point x="85.66666666666667" y="536.0"/>
      <point x="105.33333333333333" y="468.33333333333326"/>
      <point x="106.0" y="467.0" type="curve"/>
      <point x="105.99999999999999" y="466.33333333333326"/>
      <point x="105.99999999999999" y="464.99999999999994"/>
      <point x="106.0" y="463.0" type="curve" smooth="yes"/>
      <point x="105.99999999999999" y="312.3333333333333"/>
      <point x="105.99999999999999" y="236.0"/>
      <point x="106.0" y="234.0" type="curve" smooth="yes"/>
      <point x="105.99999999999999" y="233.33333333333331"/>
      <point x="105.66666666666666" y="232.33333333333331"/>
      <point x="105.0" y="231.0" type="curve"/>
      <point x="66.33333333333333" y="97.0"/>
      <point x="47.0" y="29.666666666666664"/>
      <point x="47.0" y="29.0" type="curve"/>
      <point x="46.33333333333333" y="24.333333333333332"/>
      <point x="46.0" y="-3.0"/>
      <point x="46" y="-53" type="curve" smooth="yes"/>
      <point x="46.0" y="-55.0" type="line"/>
      <point x="48.0" y="-69.66666666666666"/>
      <point x="56.33333333333333" y="-78.0"/>
      <point x="71" y="-80" type="curve"/>
      <point x="90.0" y="-80.0" type="line"/>
      <point x="101.33333333333333" y="-78.66666666666666"/>
      <point x="109.33333333333333" y="-72.66666666666666"/>
      <point x="114" y="-62" type="curve"/>
    </contour>
  </outline>
</glyph>
<glyph name="asterisk" format="2">
  <advance width="386"/>
  <unicode hex="002A"/>
  <outline>
    <contour>
      <point x="96" y="435" type="curve"/>
      <point x="113" y="423" type="line"/>
      <point x="118" y="420"/>
      <point x="124" y="419"/>
      <point x="129" y="419" type="curve" smooth="yes"/>
      <point x="136" y="419"/>
      <point x="143" y="422"/>
      <point x="149" y="428" type="curve"/>
      <point x="149" y="429" type="line"/>
      <point x="170" y="457"/>
      <point x="181" y="472"/>
      <point x="183" y="474" type="curve"/>
      <point x="186" y="476"/>
      <point x="188" y="477"/>
      <point x="191" y="478" type="curve"/>
      <point x="194" y="478"/>
      <point x="196" y="478"/>
      <point x="199" y="477" type="curve"/>
      <point x="203" y="474" type="line"/>
      <point x="205" y="472"/>
      <point x="216" y="457"/>
      <point x="236" y="429" type="curve"/>
      <point x="237" y="428" type="line" smooth="yes"/>
      <point x="243" y="422"/>
      <point x="250" y="419"/>
      <point x="257" y="419" type="curve" smooth="yes"/>
      <point x="262" y="419"/>
      <point x="268" y="420"/>
      <point x="273" y="423" type="curve"/>
      <point x="290" y="435" type="line"/>
      <point x="296" y="441"/>
      <point x="299" y="447"/>
      <point x="299" y="455" type="curve" smooth="yes"/>
      <point x="299" y="459"/>
      <point x="298" y="465"/>
      <point x="295" y="470" type="curve"/>
      <point x="295" y="471" type="line"/>
      <point x="274" y="500"/>
      <point x="263" y="515"/>
      <point x="262" y="517" type="curve"/>
      <point x="261" y="520"/>
      <point x="261" y="523"/>
      <point x="261" y="526" type="curve"/>
      <point x="262" y="529"/>
      <point x="263" y="531"/>
      <point x="265" y="533" type="curve" smooth="yes"/>
      <point x="268" y="536" type="line"/>
      <point x="271" y="537"/>
      <point x="288" y="543"/>
      <point x="321" y="554" type="curve"/>
      <point x="322" y="554" type="line"/>
      <point x="336" y="561"/>
      <point x="342" y="571"/>
      <point x="339" y="586" type="curve"/>
      <point x="332" y="606" type="line"/>
      <point x="325" y="620"/>
      <point x="315" y="626"/>
      <point x="300" y="623" type="curve"/>
      <point x="299" y="622" type="line"/>
      <point x="266" y="611"/>
      <point x="248" y="606"/>
      <point x="245" y="605" type="curve"/>
      <point x="242" y="606"/>
      <point x="240" y="606"/>
      <point x="237" y="607" type="curve"/>
      <point x="235" y="609"/>
      <point x="233" y="611"/>
      <point x="231" y="613" type="curve"/>
      <point x="229" y="617" type="line"/>
      <point x="229" y="620"/>
      <point x="229" y="638"/>
      <point x="229" y="673" type="curve" smooth="yes"/>
      <point x="229" y="675" type="line"/>
      <point x="227" y="690"/>
      <point x="218" y="698"/>
      <point x="203" y="700" type="curve"/>
      <point x="182" y="700" type="line"/>
      <point x="167" y="698"/>
      <point x="159" y="690"/>
      <point x="157" y="675" type="curve"/>
      <point x="157" y="673" type="line" smooth="yes"/>
      <point x="157" y="638"/>
      <point x="157" y="620"/>
      <point x="156" y="617" type="curve"/>
      <point x="155" y="612"/>
      <point x="150" y="607"/>
      <point x="145" y="606" type="curve" smooth="yes"/>
      <point x="141" y="605" type="line"/>
      <point x="138" y="606"/>
      <point x="120" y="611"/>
      <point x="87" y="622" type="curve"/>
      <point x="86" y="623" type="line"/>
      <point x="71" y="626"/>
      <point x="60" y="620"/>
      <point x="54" y="606" type="curve"/>
      <point x="47" y="586" type="line"/>
      <point x="44" y="571"/>
      <point x="50" y="561"/>
      <point x="63" y="554" type="curve"/>
      <point x="64" y="554" type="line"/>
      <point x="97" y="543"/>
      <point x="115" y="537"/>
      <point x="118" y="536" type="curve"/>
      <point x="120" y="534"/>
      <point x="122" y="532"/>
      <point x="123" y="530" type="curve"/>
      <point x="124" y="527"/>
      <point x="125" y="524"/>
      <point x="125" y="521" type="curve"/>
      <point x="124" y="517" type="line"/>
      <point x="123" y="515"/>
      <point x="112" y="500"/>
      <point x="91" y="471" type="curve"/>
      <point x="91" y="470" type="line"/>
      <point x="88" y="465"/>
      <point x="87" y="459"/>
      <point x="87" y="455" type="curve" smooth="yes"/>
      <point x="87" y="447"/>
      <point x="90" y="441"/>
    </contour>
  </outline>
</glyph>
<glyph name="plus" format="2">
  <advance width="412"/>
  <unicode hex="002B"/>
  <outline>
    <contour>
      <point x="73" y="305" type="line" smooth="yes"/>
      <point x="120.99999999999999" y="305.0"/>
      <point x="146.33333333333331" y="304.66666666666663"/>
      <point x="149.0" y="304.0" type="curve" smooth="yes"/>
      <point x="154.33333333333331" y="302.66666666666663"/>
      <point x="158.66666666666663" y="298.33333333333326"/>
      <point x="160.0" y="293.0" type="curve" smooth="yes"/>
      <point x="160.66666666666666" y="290.3333333333333"/>
      <point x="161.0" y="265.0"/>
      <point x="161" y="217" type="curve" smooth="yes"/>
      <point x="161.0" y="215.0" type="line"/>
      <point x="163.0" y="200.33333333333331"/>
      <point x="171.33333333333331" y="192.0"/>
      <point x="186" y="190" type="curve"/>
      <point x="226.0" y="190.0" type="line"/>
      <point x="240.66666666666663" y="192.0"/>
      <point x="248.99999999999997" y="200.33333333333331"/>
      <point x="251" y="215" type="curve"/>
      <point x="251.0" y="217.0" type="line" smooth="yes"/>
      <point x="250.99999999999997" y="265.0"/>
      <point x="251.33333333333331" y="290.3333333333333"/>
      <point x="252.0" y="293.0" type="curve" smooth="yes"/>
      <point x="253.33333333333331" y="298.33333333333326"/>
      <point x="257.66666666666663" y="302.66666666666663"/>
      <point x="263.0" y="304.0" type="curve" smooth="yes"/>
      <point x="265.66666666666663" y="304.66666666666663"/>
      <point x="291.0" y="305.0"/>
      <point x="339" y="305" type="curve" smooth="yes"/>
      <point x="341.0" y="305.0" type="line"/>
      <point x="355.66666666666663" y="307.0"/>
      <point x="364.0" y="315.3333333333333"/>
      <point x="366" y="330" type="curve"/>
      <point x="366.0" y="370.0" type="line"/>
      <point x="364.0" y="384.66666666666663"/>
      <point x="355.66666666666663" y="393.0"/>
      <point x="341" y="395" type="curve"/>
      <point x="339.0" y="395.0" type="line" smooth="yes"/>
      <point x="291.0" y="395.0"/>
      <point x="265.66666666666663" y="395.3333333333333"/>
      <point x="263.0" y="396.0" type="curve" smooth="yes"/>
      <point x="257.6666666666667" y="397.33333333333326"/>
      <point x="253.33333333333334" y="401.66666666666646"/>
      <point x="252.0" y="407.0" type="curve" smooth="yes"/>
      <point x="251.33333333333331" y="409.66666666666663"/>
      <point x="250.99999999999997" y="435.0"/>
      <point x="251" y="483" type="curve" smooth="yes"/>
      <point x="251.0" y="485.0" type="line"/>
      <point x="248.99999999999997" y="499.66666666666663"/>
      <point x="240.66666666666663" y="508.0"/>
      <point x="226" y="510" type="curve"/>
      <point x="186.0" y="510.0" type="line"/>
      <point x="171.33333333333331" y="508.0"/>
      <point x="163.0" y="499.66666666666663"/>
      <point x="161" y="485" type="curve"/>
      <point x="161.0" y="483.0" type="line" smooth="yes"/>
      <point x="161.0" y="435.0"/>
      <point x="160.66666666666666" y="409.66666666666663"/>
      <point x="160.0" y="407.0" type="curve" smooth="yes"/>
      <point x="158.6666666666666" y="401.66666666666646"/>
      <point x="154.33333333333323" y="397.33333333333326"/>
      <point x="149.0" y="396.0" type="curve" smooth="yes"/>
      <point x="146.33333333333331" y="395.3333333333333"/>
      <point x="120.99999999999999" y="395.0"/>
      <point x="73" y="395" type="curve" smooth="yes"/>
      <point x="71.0" y="395.0" type="line"/>
      <point x="56.33333333333333" y="393.0"/>
      <point x="48.0" y="384.66666666666663"/>
      <point x="46" y="370" type="curve"/>
      <point x="46.0" y="330.0" type="line"/>
      <point x="48.0" y="315.3333333333333"/>
      <point x="56.33333333333333" y="307.0"/>
      <point x="71" y="305" type="curve"/>
    </contour>
  </outline>
</glyph>
<glyph name="comma" format="2">
  <advance width="216"/>
  <unicode hex="002C"/>
  <outline>
    <contour>
      <point x="139" y="-150" type="line"/>
      <point x="154.33333333333331" y="-39.33333333333334"/>
      <point x="162.33333333333331" y="16.666666666666664"/>
      <point x="163.0" y="18.0" type="curve"/>
      <point x="163.0" y="19.333333333333332"/>
      <point x="163.33333333333331" y="21.0"/>
      <point x="164.0" y="23.0" type="curve"/>
      <point x="165.33333333333331" y="26.33333333333333"/>
      <point x="166.0" y="37.666666666666664"/>
      <point x="166" y="57" type="curve" smooth="yes"/>
      <point x="166.0" y="58.0" type="line"/>
      <point x="165.33333333333331" y="64.0"/>
      <point x="163.33333333333331" y="69.66666666666666"/>
      <point x="160" y="75" type="curve"/>
      <point x="159.0" y="75.0" type="line"/>
      <point x="151.0" y="84.33333333333333"/>
      <point x="142.66666666666666" y="89.33333333333333"/>
      <point x="134.0" y="90.0" type="curve"/>
      <point x="114.66666666666666" y="90.0"/>
      <point x="103.33333333333333" y="89.66666666666666"/>
      <point x="100.0" y="89.0" type="curve"/>
      <point x="94.66666666666666" y="86.33333333333333"/>
      <point x="89.0" y="81.66666666666666"/>
      <point x="83" y="75" type="curve"/>
      <point x="82.0" y="75.0" type="line"/>
      <point x="78.66666666666666" y="69.66666666666666"/>
      <point x="76.66666666666666" y="64.0"/>
      <point x="76" y="58" type="curve" smooth="yes"/>
      <point x="50.0" y="-139.0" type="line"/>
      <point x="49.99999999999999" y="-153.66666666666666"/>
      <point x="57.33333333333333" y="-163.0"/>
      <point x="72" y="-167" type="curve"/>
      <point x="110.0" y="-173.0" type="line"/>
      <point x="125.33333333333331" y="-173.0"/>
      <point x="135.0" y="-165.66666666666666"/>
      <point x="139" y="-151" type="curve"/>
    </contour>
  </outline>
</glyph>
<glyph name="hyphen" format="2">
  <advance width="348"/>
  <unicode hex="002D"/>
  <outline>
    <contour>
      <point x="304" y="330" type="curve"/>
      <point x="304.0" y="370.0" type="line"/>
      <point x="302.0" y="384.66666666666663"/>
      <point x="293.66666666666663" y="393.0"/>
      <point x="279" y="395" type="curve"/>
      <point x="69.0" y="395.0" type="line"/>
      <point x="54.33333333333333" y="393.0"/>
      <point x="46.0" y="384.66666666666663"/>
      <point x="44" y="370" type="curve"/>
      <point x="44.0" y="330.0" type="line"/>
      <point x="46.0" y="315.3333333333333"/>
      <point x="54.33333333333333" y="307.0"/>
      <point x="69" y="305" type="curve"/>
      <point x="279.0" y="305.0" type="line"/>
      <point x="293.66666666666663" y="307.0"/>
      <point x="302.0" y="315.3333333333333"/>
    </contour>
  </outline>
</glyph>
<glyph name="period" format="2">
  <advance width="190"/>
  <unicode hex="002E"/>
  <outline>
    <contour>
      <point x="133" y="75" type="line"/>
      <point x="124.99999999999999" y="84.33333333333333"/>
      <point x="116.66666666666666" y="89.33333333333333"/>
      <point x="108.0" y="90.0" type="curve"/>
      <point x="88.66666666666666" y="90.0"/>
      <point x="77.33333333333333" y="89.66666666666666"/>
      <point x="74.0" y="89.0" type="curve"/>
      <point x="68.66666666666666" y="86.33333333333333"/>
      <point x="63.0" y="81.66666666666666"/>
      <point x="57" y="75" type="curve"/>
      <point x="56.0" y="75.0" type="line"/>
      <point x="52.666666666666664" y="69.66666666666666"/>
      <point x="50.666666666666664" y="64.0"/>
      <point x="50" y="58" type="curve"/>
      <point x="50.0" y="32.0" type="line"/>
      <point x="50.666666666666664" y="26.0"/>
      <point x="52.666666666666664" y="20.333333333333332"/>
      <point x="56" y="15" type="curve"/>
      <point x="57.0" y="15.0" type="line"/>
      <point x="65.0" y="5.666666666666668"/>
      <point x="73.33333333333333" y="0.6666666666666666"/>
      <point x="82.0" y="0.0" type="curve"/>
      <point x="101.33333333333333" y="0.0"/>
      <point x="112.66666666666666" y="0.33333333333333326"/>
      <point x="116.0" y="1.0" type="curve"/>
      <point x="121.33333333333331" y="3.6666666666666665"/>
      <point x="126.99999999999999" y="8.333333333333332"/>
      <point x="133" y="15" type="curve"/>
      <point x="134.0" y="15.0" type="line"/>
      <point x="137.33333333333331" y="20.333333333333332"/>
      <point x="139.33333333333331" y="26.0"/>
      <point x="140" y="32" type="curve"/>
      <point x="140.0" y="58.0" type="line"/>
      <point x="139.33333333333331" y="64.0"/>
      <point x="137.33333333333331" y="69.66666666666666"/>
      <point x="134" y="75" type="curve"/>
    </contour>
  </outline>
</glyph>
<glyph name="slash" format="2">
  <advance width="380"/>
  <unicode hex="002F"/>
  <outline>
    <contour>
      <point x="339" y="754" type="curve"/>
      <point x="302.0" y="766.0" type="line"/>
      <point x="286.66666666666663" y="768.6666666666665"/>
      <point x="276.0" y="762.9999999999999"/>
      <point x="270" y="749" type="curve"/>
      <point x="25.0" y="-22.0" type="line"/>
      <point x="22.333333333333332" y="-36.666666666666664"/>
      <point x="28.0" y="-47.33333333333333"/>
      <point x="42" y="-54" type="curve"/>
      <point x="79.0" y="-66.0" type="line"/>
      <point x="93.66666666666666" y="-68.66666666666666"/>
      <point x="104.33333333333333" y="-63.0"/>
      <point x="111" y="-49" type="curve"/>
      <point x="355.0" y="722.0" type="line"/>
      <point x="357.66666666666663" y="736.6666666666666"/>
      <point x="352.3333333333333" y="747.3333333333333"/>
    </contour>
  </outline>
</glyph>
<glyph name="zero" format="2">
  <advance width="480"/>
  <unicode hex="0030"/>
  <outline>
    <contour>
      <point x="311" y="711" type="curve"/>
      <point x="168" y="711" type="line"/>
      <point x="165" y="710"/>
      <point x="163" y="710"/>
      <point x="162" y="710" type="curve"/>
      <point x="158" y="709"/>
      <point x="155" y="707"/>
      <point x="152" y="704" type="curve" smooth="yes"/>
      <point x="148" y="700" type="line"/>
      <point x="80" y="611"/>
      <point x="46" y="567"/>
      <point x="45" y="566" type="curve"/>
      <point x="42" y="560"/>
      <point x="41" y="555"/>
      <point x="40" y="550" type="curve"/>
      <point x="40" y="150" type="line" smooth="yes"/>
      <point x="40" y="149"/>
      <point x="40" y="147"/>
      <point x="41" y="142" type="curve"/>
      <point x="42" y="141"/>
      <point x="43" y="138"/>
      <point x="45" y="134" type="curve"/>
      <point x="46" y="133"/>
      <point x="80" y="88"/>
      <point x="149" y="-1" type="curve" smooth="yes"/>
      <point x="154" y="-7"/>
      <point x="161" y="-10"/>
      <point x="169" y="-11" type="curve"/>
      <point x="312" y="-11" type="line"/>
      <point x="315" y="-10"/>
      <point x="317" y="-10"/>
      <point x="318" y="-10" type="curve"/>
      <point x="322" y="-9"/>
      <point x="325" y="-7"/>
      <point x="328" y="-4" type="curve" smooth="yes"/>
      <point x="332" y="0" type="line"/>
      <point x="400" y="89"/>
      <point x="434" y="133"/>
      <point x="435" y="134" type="curve"/>
      <point x="438" y="140"/>
      <point x="439" y="145"/>
      <point x="440" y="150" type="curve"/>
      <point x="440" y="550" type="line" smooth="yes"/>
      <point x="440" y="551"/>
      <point x="440" y="553"/>
      <point x="439" y="558" type="curve"/>
      <point x="438" y="559"/>
      <point x="437" y="562"/>
      <point x="435" y="566" type="curve"/>
      <point x="434" y="567"/>
      <point x="400" y="612"/>
      <point x="331" y="701" type="curve" smooth="yes"/>
      <point x="326" y="707"/>
      <point x="319" y="710"/>
    </contour>
    <contour>
      <point x="133" y="533" type="curve"/>
      <point x="175" y="588"/>
      <point x="197" y="616"/>
      <point x="198" y="617" type="curve"/>
      <point x="200" y="618"/>
      <point x="202" y="620"/>
      <point x="205" y="621" type="curve"/>
      <point x="220" y="623"/>
      <point x="233" y="624"/>
      <point x="245" y="624" type="curve" smooth="yes"/>
      <point x="260" y="624"/>
      <point x="271" y="622"/>
      <point x="279" y="619" type="curve"/>
      <point x="281" y="618"/>
      <point x="283" y="616"/>
      <point x="284" y="615" type="curve"/>
      <point x="326" y="560"/>
      <point x="348" y="532"/>
      <point x="349" y="529" type="curve"/>
      <point x="350" y="524" type="line"/>
      <point x="350" y="176" type="line"/>
      <point x="349" y="173"/>
      <point x="348" y="170"/>
      <point x="347" y="167" type="curve"/>
      <point x="305" y="112"/>
      <point x="283" y="84"/>
      <point x="282" y="83" type="curve"/>
      <point x="280" y="82"/>
      <point x="278" y="80"/>
      <point x="275" y="79" type="curve"/>
      <point x="260" y="77"/>
      <point x="247" y="76"/>
      <point x="235" y="76" type="curve" smooth="yes"/>
      <point x="220" y="76"/>
      <point x="209" y="78"/>
      <point x="201" y="81" type="curve"/>
      <point x="199" y="82"/>
      <point x="197" y="84"/>
      <point x="196" y="85" type="curve"/>
      <point x="154" y="140"/>
      <point x="132" y="168"/>
      <point x="131" y="171" type="curve"/>
      <point x="130" y="176" type="line"/>
      <point x="130" y="524" type="line"/>
      <point x="131" y="527"/>
      <point x="132" y="530"/>
    </contour>
  </outline>
</glyph>
<glyph name="one" format="2">
  <advance width="464"/>
  <unicode hex="0031"/>
  <outline>
    <contour>
      <point x="121" y="509" type="line"/>
      <point x="161" y="562"/>
      <point x="182" y="589"/>
      <point x="184" y="591" type="curve"/>
      <point x="186" y="592"/>
      <point x="188" y="593"/>
      <point x="191" y="594" type="curve"/>
      <point x="198" y="595"/>
      <point x="203" y="592"/>
      <point x="207" y="586" type="curve"/>
      <point x="208" y="584"/>
      <point x="209" y="582"/>
      <point x="209" y="579" type="curve" smooth="yes"/>
      <point x="209" y="106" type="line" smooth="yes"/>
      <point x="209" y="103"/>
      <point x="208" y="101"/>
      <point x="207" y="98" type="curve"/>
      <point x="206" y="96"/>
      <point x="204" y="94"/>
      <point x="201" y="92" type="curve"/>
      <point x="198" y="91" type="line" smooth="yes"/>
      <point x="195" y="90"/>
      <point x="170" y="90"/>
      <point x="121" y="90" type="curve" smooth="yes"/>
      <point x="120" y="90" type="line"/>
      <point x="105" y="88"/>
      <point x="96" y="80"/>
      <point x="94" y="65" type="curve"/>
      <point x="94" y="25" type="line"/>
      <point x="96" y="10"/>
      <point x="105" y="2"/>
      <point x="120" y="0" type="curve"/>
      <point x="389" y="0" type="line"/>
      <point x="404" y="2"/>
      <point x="412" y="10"/>
      <point x="414" y="25" type="curve"/>
      <point x="414" y="65" type="line"/>
      <point x="412" y="80"/>
      <point x="404" y="88"/>
      <point x="389" y="90" type="curve"/>
      <point x="388" y="90" type="line" smooth="yes"/>
      <point x="339" y="90"/>
      <point x="314" y="90"/>
      <point x="311" y="91" type="curve"/>
      <point x="306" y="92"/>
      <point x="301" y="97"/>
      <point x="300" y="102" type="curve"/>
      <point x="299" y="105"/>
      <point x="299" y="295"/>
      <point x="299" y="673" type="curve" smooth="yes"/>
      <point x="299" y="675" type="line"/>
      <point x="297" y="690"/>
      <point x="289" y="698"/>
      <point x="274" y="700" type="curve"/>
      <point x="273" y="700" type="line" smooth="yes"/>
      <point x="201" y="700"/>
      <point x="164" y="700"/>
      <point x="161" y="699" type="curve"/>
      <point x="160" y="699"/>
      <point x="158" y="699"/>
      <point x="155" y="698" type="curve"/>
      <point x="154" y="697"/>
      <point x="152" y="696"/>
      <point x="150" y="695" type="curve"/>
      <point x="149" y="693" type="line"/>
      <point x="146" y="690"/>
      <point x="113" y="647"/>
      <point x="49" y="563" type="curve"/>
      <point x="49" y="562" type="line"/>
      <point x="46" y="557"/>
      <point x="45" y="552"/>
      <point x="45" y="547" type="curve" smooth="yes"/>
      <point x="45" y="540"/>
      <point x="48" y="533"/>
      <point x="54" y="527" type="curve"/>
      <point x="85" y="503" type="line"/>
      <point x="90" y="500"/>
      <point x="96" y="499"/>
      <point x="100" y="499" type="curve" smooth="yes"/>
      <point x="108" y="499"/>
      <point x="114" y="502"/>
      <point x="120" y="508" type="curve" smooth="yes"/>
    </contour>
  </outline>
</glyph>
<glyph name="two" format="2">
  <advance width="470"/>
  <unicode hex="0032"/>
  <outline>
    <contour>
      <point x="407" y="90" type="line"/>
      <point x="140.0" y="90.0" type="line"/>
      <point x="137.33333333333331" y="90.66666666666666"/>
      <point x="134.66666666666666" y="91.33333333333333"/>
      <point x="132.0" y="92.0" type="curve"/>
      <point x="127.33333333333333" y="95.33333333333331"/>
      <point x="124.66666666666666" y="99.99999999999999"/>
      <point x="124.0" y="106.0" type="curve"/>
      <point x="123.99999999999999" y="228.0"/>
      <point x="124.33333333333331" y="290.3333333333333"/>
      <point x="125.0" y="293.0" type="curve" smooth="yes"/>
      <point x="126.33333333333331" y="298.33333333333326"/>
      <point x="130.66666666666663" y="302.66666666666663"/>
      <point x="136" y="304" type="curve" smooth="yes"/>
      <point x="140" y="305" type="line"/>
      <point x="407" y="305" type="line"/>
      <point x="409.0" y="305.0" type="line"/>
      <point x="423.66666666666663" y="307.0"/>
      <point x="432.0" y="315.3333333333333"/>
      <point x="434" y="330" type="curve"/>
      <point x="434.0" y="675.0" type="line"/>
      <point x="432.0" y="689.6666666666666"/>
      <point x="423.66666666666663" y="698.0"/>
      <point x="409" y="700" type="curve"/>
      <point x="59.0" y="700.0" type="line"/>
      <point x="44.33333333333333" y="698.0"/>
      <point x="36.0" y="689.6666666666666"/>
      <point x="34" y="675" type="curve"/>
      <point x="34.0" y="635.0" type="line"/>
      <point x="36.0" y="620.3333333333333"/>
      <point x="44.33333333333333" y="612.0"/>
      <point x="59" y="610" type="curve"/>
      <point x="61" y="610" type="line"/>
      <point x="328.0" y="610.0" type="line"/>
      <point x="330.66666666666663" y="609.3333333333333"/>
      <point x="333.3333333333333" y="608.6666666666666"/>
      <point x="336.0" y="608.0" type="curve"/>
      <point x="340.66666666666663" y="604.6666666666666"/>
      <point x="343.3333333333333" y="600.0"/>
      <point x="344.0" y="594.0" type="curve"/>
      <point x="344.0" y="472.0"/>
      <point x="343.66666666666663" y="409.66666666666663"/>
      <point x="343.0" y="407.0" type="curve" smooth="yes"/>
      <point x="341.66666666666663" y="401.66666666666646"/>
      <point x="337.3333333333332" y="397.33333333333326"/>
      <point x="332" y="396" type="curve" smooth="yes"/>
      <point x="328" y="395" type="line"/>
      <point x="61" y="395" type="line"/>
      <point x="59.0" y="395.0" type="line"/>
      <point x="44.33333333333333" y="393.0"/>
      <point x="36.0" y="384.66666666666663"/>
      <point x="34" y="370" type="curve"/>
      <point x="34.0" y="25.0" type="line"/>
      <point x="36.0" y="10.333333333333332"/>
      <point x="44.33333333333333" y="2.0"/>
      <point x="59" y="0" type="curve"/>
      <point x="409.0" y="0.0" type="line"/>
      <point x="423.66666666666663" y="2.0"/>
      <point x="432.0" y="10.333333333333332"/>
      <point x="434" y="25" type="curve"/>
      <point x="434.0" y="65.0" type="line"/>
      <point x="432.0" y="79.66666666666666"/>
      <point x="423.66666666666663" y="88.0"/>
      <point x="409" y="90" type="curve"/>
    </contour>
  </outline>
</glyph>
<glyph name="three" format="2">
  <advance width="468"/>
  <unicode hex="0033"/>
  <outline>
    <contour>
      <point x="34" y="65" type="curve"/>
      <point x="34.0" y="25.0" type="line"/>
      <point x="36.0" y="10.333333333333332"/>
      <point x="44.33333333333333" y="2.0"/>
      <point x="59" y="0" type="curve"/>
      <point x="409.0" y="0.0" type="line"/>
      <point x="423.66666666666663" y="2.0"/>
      <point x="432.0" y="10.333333333333332"/>
      <point x="434" y="25" type="curve"/>
      <point x="434.0" y="675.0" type="line"/>
      <point x="432.0" y="689.6666666666666"/>
      <point x="423.66666666666663" y="698.0"/>
      <point x="409" y="700" type="curve"/>
      <point x="59.0" y="700.0" type="line"/>
      <point x="44.33333333333333" y="698.0"/>
      <point x="36.0" y="689.6666666666666"/>
      <point x="34" y="675" type="curve"/>
      <point x="34.0" y="635.0" type="line"/>
      <point x="36.0" y="620.3333333333333"/>
      <point x="44.33333333333333" y="612.0"/>
      <point x="59" y="610" type="curve"/>
      <point x="61" y="610" type="line"/>
      <point x="328.0" y="610.0" type="line"/>
      <point x="330.66666666666663" y="609.3333333333333"/>
      <point x="333.3333333333333" y="608.6666666666666"/>
      <point x="336.0" y="608.0" type="curve"/>
      <point x="340.66666666666663" y="604.6666666666666"/>
      <point x="343.3333333333333" y="600.0"/>
      <point x="344.0" y="594.0" type="curve"/>
      <point x="344.0" y="472.0"/>
      <point x="343.66666666666663" y="409.66666666666663"/>
      <point x="343.0" y="407.0" type="curve" smooth="yes"/>
      <point x="341.66666666666663" y="401.66666666666646"/>
      <point x="337.3333333333332" y="397.33333333333326"/>
      <point x="332.0" y="396.0" type="curve" smooth="yes"/>
      <point x="329.3333333333333" y="395.3333333333333"/>
      <point x="292.3333333333333" y="395.0"/>
      <point x="221" y="395" type="curve" smooth="yes"/>
      <point x="219.0" y="395.0" type="line"/>
      <point x="204.33333333333331" y="393.0"/>
      <point x="195.99999999999997" y="384.66666666666663"/>
      <point x="194" y="370" type="curve"/>
      <point x="194.0" y="330.0" type="line"/>
      <point x="195.99999999999997" y="315.3333333333333"/>
      <point x="204.33333333333331" y="307.0"/>
      <point x="219" y="305" type="curve"/>
      <point x="221" y="305" type="line"/>
      <point x="328.0" y="305.0" type="line"/>
      <point x="330.66666666666663" y="304.3333333333333"/>
      <point x="333.3333333333333" y="303.66666666666663"/>
      <point x="336.0" y="303.0" type="curve"/>
      <point x="340.66666666666663" y="299.66666666666663"/>
      <point x="343.3333333333333" y="295.0"/>
      <point x="344.0" y="289.0" type="curve"/>
      <point x="344.0" y="167.0"/>
      <point x="343.66666666666663" y="104.66666666666666"/>
      <point x="343.0" y="102.0" type="curve" smooth="yes"/>
      <point x="341.66666666666663" y="96.66666666666666"/>
      <point x="337.33333333333326" y="92.33333333333331"/>
      <point x="332" y="91" type="curve" smooth="yes"/>
      <point x="328" y="90" type="line"/>
      <point x="61" y="90" type="line"/>
      <point x="59.0" y="90.0" type="line"/>
      <point x="44.33333333333333" y="88.0"/>
      <point x="36.0" y="79.66666666666666"/>
    </contour>
  </outline>
</glyph>
<glyph name="four" format="2">
  <advance width="487"/>
  <unicode hex="0034"/>
  <outline>
    <contour>
      <point x="37" y="234" type="curve"/>
      <point x="38" y="232"/>
      <point x="40" y="230"/>
      <point x="41" y="228" type="curve"/>
      <point x="42" y="225"/>
      <point x="43" y="218"/>
      <point x="43" y="206" type="curve" smooth="yes"/>
      <point x="43" y="204" type="line"/>
      <point x="45" y="189"/>
      <point x="54" y="181"/>
      <point x="69" y="179" type="curve"/>
      <point x="70" y="179" type="line" smooth="yes"/>
      <point x="235" y="179"/>
      <point x="319" y="179"/>
      <point x="322" y="178" type="curve"/>
      <point x="326" y="177"/>
      <point x="330" y="172"/>
      <point x="333" y="167" type="curve"/>
      <point x="333" y="163" type="line"/>
      <point x="333" y="27" type="line"/>
      <point x="333" y="25" type="line"/>
      <point x="335" y="10"/>
      <point x="344" y="2"/>
      <point x="359" y="0" type="curve"/>
      <point x="398" y="0" type="line"/>
      <point x="413" y="2"/>
      <point x="421" y="10"/>
      <point x="423" y="25" type="curve"/>
      <point x="423" y="27" type="line"/>
      <point x="423" y="165" type="line"/>
      <point x="424" y="168"/>
      <point x="424" y="170"/>
      <point x="425" y="173" type="curve"/>
      <point x="428" y="176"/>
      <point x="431" y="179"/>
      <point x="435" y="180" type="curve"/>
      <point x="446" y="185"/>
      <point x="452" y="193"/>
      <point x="453" y="204" type="curve"/>
      <point x="453" y="244" type="line"/>
      <point x="452" y="255"/>
      <point x="446" y="263"/>
      <point x="435" y="268" type="curve"/>
      <point x="431" y="269"/>
      <point x="428" y="272"/>
      <point x="425" y="275" type="curve"/>
      <point x="424" y="279" type="line"/>
      <point x="423" y="282"/>
      <point x="423" y="413"/>
      <point x="423" y="673" type="curve" smooth="yes"/>
      <point x="423" y="675" type="line"/>
      <point x="421" y="690"/>
      <point x="413" y="698"/>
      <point x="398" y="700" type="curve"/>
      <point x="295" y="700" type="line"/>
      <point x="286" y="699"/>
      <point x="279" y="695"/>
      <point x="274" y="688" type="curve"/>
      <point x="27" y="269" type="line"/>
      <point x="25" y="264"/>
      <point x="24" y="260"/>
      <point x="24" y="256" type="curve" smooth="yes"/>
      <point x="24" y="248"/>
      <point x="28" y="240"/>
    </contour>
    <contour>
      <point x="146" y="293" type="curve"/>
      <point x="304" y="562" type="line"/>
      <point x="306" y="564"/>
      <point x="308" y="566"/>
      <point x="310" y="568" type="curve"/>
      <point x="313" y="569"/>
      <point x="317" y="570"/>
      <point x="322" y="569" type="curve"/>
      <point x="325" y="568"/>
      <point x="328" y="565"/>
      <point x="331" y="562" type="curve"/>
      <point x="333" y="558" type="line"/>
      <point x="333" y="554" type="line"/>
      <point x="333" y="285" type="line"/>
      <point x="332" y="276"/>
      <point x="326" y="270"/>
      <point x="317" y="269" type="curve"/>
      <point x="159" y="269" type="line"/>
      <point x="156" y="270"/>
      <point x="154" y="270"/>
      <point x="151" y="271" type="curve"/>
      <point x="148" y="274"/>
      <point x="145" y="277"/>
      <point x="144" y="281" type="curve" smooth="yes"/>
      <point x="143" y="285"/>
      <point x="144" y="289"/>
    </contour>
  </outline>
</glyph>
<glyph name="five" format="2">
  <advance width="472"/>
  <unicode hex="0035"/>
  <outline>
    <contour>
      <point x="36" y="65" type="curve"/>
      <point x="36.0" y="25.0" type="line"/>
      <point x="38.0" y="10.333333333333332"/>
      <point x="46.33333333333333" y="2.0"/>
      <point x="61" y="0" type="curve"/>
      <point x="63" y="0" type="line"/>
      <point x="323.0" y="0.0" type="line" smooth="yes"/>
      <point x="323.66666666666663" y="0.0"/>
      <point x="326.0" y="0.33333333333333326"/>
      <point x="330.0" y="1.0" type="curve"/>
      <point x="331.3333333333333" y="1.6666666666666665"/>
      <point x="334.0" y="3.0"/>
      <point x="338.0" y="5.0" type="curve"/>
      <point x="338.66666666666663" y="5.0"/>
      <point x="367.66666666666663" y="26.0"/>
      <point x="425" y="68" type="curve"/>
      <point x="426.0" y="68.0" type="line"/>
      <point x="432.0" y="73.33333333333333"/>
      <point x="435.3333333333333" y="80.0"/>
      <point x="436" y="88" type="curve"/>
      <point x="436.0" y="370.0" type="line"/>
      <point x="433.99999999999994" y="384.66666666666663"/>
      <point x="425.66666666666663" y="393.0"/>
      <point x="411" y="395" type="curve"/>
      <point x="409" y="395" type="line"/>
      <point x="142.0" y="395.0" type="line"/>
      <point x="139.33333333333331" y="395.66666666666663"/>
      <point x="136.66666666666666" y="396.3333333333333"/>
      <point x="134.0" y="397.0" type="curve"/>
      <point x="129.33333333333331" y="400.3333333333333"/>
      <point x="126.66666666666666" y="405.0"/>
      <point x="126.0" y="411.0" type="curve"/>
      <point x="126.0" y="533.0"/>
      <point x="126.33333333333333" y="595.3333333333333"/>
      <point x="127.0" y="598.0" type="curve" smooth="yes"/>
      <point x="128.33333333333331" y="603.3333333333333"/>
      <point x="132.66666666666663" y="607.6666666666665"/>
      <point x="138" y="609" type="curve" smooth="yes"/>
      <point x="142" y="610" type="line"/>
      <point x="409" y="610" type="line"/>
      <point x="411.0" y="610.0" type="line"/>
      <point x="425.66666666666663" y="612.0"/>
      <point x="433.99999999999994" y="620.3333333333333"/>
      <point x="436" y="635" type="curve"/>
      <point x="436.0" y="675.0" type="line"/>
      <point x="433.99999999999994" y="689.6666666666666"/>
      <point x="425.66666666666663" y="698.0"/>
      <point x="411" y="700" type="curve"/>
      <point x="61.0" y="700.0" type="line"/>
      <point x="46.33333333333333" y="698.0"/>
      <point x="38.0" y="689.6666666666666"/>
      <point x="36" y="675" type="curve"/>
      <point x="36.0" y="330.0" type="line"/>
      <point x="38.0" y="315.3333333333333"/>
      <point x="46.33333333333333" y="307.0"/>
      <point x="61" y="305" type="curve"/>
      <point x="63" y="305" type="line"/>
      <point x="330" y="305" type="line"/>
      <point x="334.0" y="304.0" type="line" smooth="yes"/>
      <point x="339.33333333333326" y="302.66666666666663"/>
      <point x="343.66666666666663" y="298.33333333333326"/>
      <point x="345.0" y="293.0" type="curve" smooth="yes"/>
      <point x="345.66666666666663" y="290.3333333333333"/>
      <point x="346.0" y="236.0"/>
      <point x="346.0" y="130.0" type="curve"/>
      <point x="345.3333333333333" y="124.66666666666666"/>
      <point x="343.3333333333333" y="120.33333333333333"/>
      <point x="340.0" y="117.0" type="curve"/>
      <point x="318.0" y="101.0"/>
      <point x="305.3333333333333" y="92.33333333333333"/>
      <point x="302.0" y="91.0" type="curve"/>
      <point x="298.66666666666663" y="90.33333333333333"/>
      <point x="219.0" y="90.0"/>
      <point x="63" y="90" type="curve" smooth="yes"/>
      <point x="61.0" y="90.0" type="line"/>
      <point x="46.33333333333333" y="88.0"/>
      <point x="38.0" y="79.66666666666666"/>
    </contour>
  </outline>
</glyph>
<glyph name="six" format="2">
  <advance width="480"/>
  <unicode hex="0036"/>
  <outline>
    <contour>
      <point x="429" y="329" type="line"/>
      <point x="331" y="401" type="line"/>
      <point x="330" y="401"/>
      <point x="328" y="402"/>
      <point x="325" y="404" type="curve"/>
      <point x="323" y="405"/>
      <point x="320" y="405"/>
      <point x="316" y="406" type="curve"/>
      <point x="315" y="406"/>
      <point x="265" y="406"/>
      <point x="165" y="406" type="curve"/>
      <point x="160" y="405"/>
      <point x="156" y="404"/>
      <point x="153" y="403" type="curve"/>
      <point x="148" y="401"/>
      <point x="142" y="401"/>
      <point x="137" y="403" type="curve"/>
      <point x="134" y="406"/>
      <point x="132" y="409"/>
      <point x="131" y="413" type="curve"/>
      <point x="130" y="416"/>
      <point x="130" y="465"/>
      <point x="130" y="561" type="curve" smooth="yes"/>
      <point x="130" y="566"/>
      <point x="133" y="570"/>
      <point x="136" y="574" type="curve"/>
      <point x="166" y="596"/>
      <point x="183" y="608"/>
      <point x="186" y="609" type="curve" smooth="yes"/>
      <point x="189" y="610"/>
      <point x="224" y="610"/>
      <point x="290" y="610" type="curve" smooth="yes"/>
      <point x="293" y="610"/>
      <point x="295" y="610"/>
      <point x="296" y="609" type="curve"/>
      <point x="301" y="607"/>
      <point x="305" y="606"/>
      <point x="310" y="606" type="curve" smooth="yes"/>
      <point x="314" y="606"/>
      <point x="317" y="606"/>
      <point x="321" y="608" type="curve"/>
      <point x="324" y="609"/>
      <point x="329" y="610"/>
      <point x="337" y="610" type="curve" smooth="yes"/>
      <point x="339" y="610" type="line"/>
      <point x="354" y="612"/>
      <point x="362" y="620"/>
      <point x="364" y="635" type="curve"/>
      <point x="364" y="675" type="line"/>
      <point x="362" y="690"/>
      <point x="354" y="698"/>
      <point x="339" y="700" type="curve"/>
      <point x="337" y="700" type="line" smooth="yes"/>
      <point x="222" y="700"/>
      <point x="163" y="700"/>
      <point x="158" y="699" type="curve"/>
      <point x="156" y="698"/>
      <point x="153" y="697"/>
      <point x="150" y="695" type="curve"/>
      <point x="149" y="695"/>
      <point x="116" y="671"/>
      <point x="51" y="623" type="curve"/>
      <point x="50" y="622" type="line"/>
      <point x="44" y="617"/>
      <point x="41" y="610"/>
      <point x="40" y="602" type="curve"/>
      <point x="40" y="98" type="line"/>
      <point x="41" y="90"/>
      <point x="44" y="83"/>
      <point x="50" y="78" type="curve"/>
      <point x="51" y="77" type="line"/>
      <point x="149" y="5" type="line"/>
      <point x="150" y="5"/>
      <point x="152" y="4"/>
      <point x="155" y="2" type="curve"/>
      <point x="158" y="1"/>
      <point x="162" y="0"/>
      <point x="165" y="0" type="curve" smooth="yes"/>
      <point x="315" y="0" type="line" smooth="yes"/>
      <point x="316" y="0"/>
      <point x="318" y="0"/>
      <point x="322" y="1" type="curve"/>
      <point x="324" y="2"/>
      <point x="327" y="3"/>
      <point x="330" y="5" type="curve"/>
      <point x="331" y="5"/>
      <point x="364" y="29"/>
      <point x="429" y="77" type="curve"/>
      <point x="430" y="78" type="line"/>
      <point x="436" y="83"/>
      <point x="439" y="90"/>
      <point x="440" y="98" type="curve"/>
      <point x="440" y="308" type="line"/>
      <point x="439" y="316"/>
      <point x="436" y="323"/>
      <point x="430" y="328" type="curve"/>
    </contour>
    <contour>
      <point x="130" y="139" type="curve"/>
      <point x="130" y="224"/>
      <point x="130" y="268"/>
      <point x="130" y="271" type="curve"/>
      <point x="131" y="273"/>
      <point x="133" y="275"/>
      <point x="134" y="277" type="curve"/>
      <point x="159" y="301"/>
      <point x="178" y="314"/>
      <point x="191" y="316" type="curve"/>
      <point x="256" y="316"/>
      <point x="291" y="316"/>
      <point x="294" y="315" type="curve" smooth="yes"/>
      <point x="297" y="314"/>
      <point x="314" y="302"/>
      <point x="344" y="280" type="curve"/>
      <point x="347" y="277"/>
      <point x="349" y="272"/>
      <point x="350" y="267" type="curve"/>
      <point x="350" y="182"/>
      <point x="350" y="138"/>
      <point x="350" y="135" type="curve"/>
      <point x="349" y="133"/>
      <point x="347" y="131"/>
      <point x="346" y="129" type="curve"/>
      <point x="321" y="105"/>
      <point x="302" y="92"/>
      <point x="289" y="90" type="curve"/>
      <point x="224" y="90"/>
      <point x="189" y="90"/>
      <point x="186" y="91" type="curve" smooth="yes"/>
      <point x="183" y="92"/>
      <point x="166" y="104"/>
      <point x="136" y="126" type="curve"/>
      <point x="133" y="129"/>
      <point x="131" y="134"/>
    </contour>
  </outline>
</glyph>
<glyph name="seven" format="2">
  <advance width="464"/>
  <unicode hex="0037"/>
  <outline>
    <contour>
      <point x="133" y="8" type="line"/>
      <point x="143.0" y="3.333333333333333"/>
      <point x="150.66666666666666" y="0.6666666666666666"/>
      <point x="156.0" y="0.0" type="curve"/>
      <point x="176.0" y="0.0"/>
      <point x="187.66666666666666" y="0.33333333333333326"/>
      <point x="191.0" y="1.0" type="curve"/>
      <point x="196.33333333333331" y="3.6666666666666665"/>
      <point x="200.33333333333331" y="6.666666666666666"/>
      <point x="203.0" y="10.0" type="curve"/>
      <point x="204.99999999999997" y="13.333333333333332"/>
      <point x="206.33333333333331" y="15.333333333333332"/>
      <point x="207" y="16" type="curve"/>
      <point x="422.0" y="477.0" type="line" smooth="yes"/>
      <point x="422.66666666666663" y="478.3333333333333"/>
      <point x="423.66666666666663" y="480.0"/>
      <point x="425.0" y="482.0" type="curve" smooth="yes"/>
      <point x="427.0" y="485.33333333333326"/>
      <point x="428.3333333333333" y="488.33333333333326"/>
      <point x="429" y="491" type="curve"/>
      <point x="430.0" y="497.0" type="line"/>
      <point x="429.99999999999994" y="497.66666666666663"/>
      <point x="429.99999999999994" y="556.3333333333333"/>
      <point x="430" y="673" type="curve" smooth="yes"/>
      <point x="430.0" y="675.0" type="line"/>
      <point x="427.99999999999994" y="689.6666666666666"/>
      <point x="419.66666666666663" y="698.0"/>
      <point x="405" y="700" type="curve"/>
      <point x="55.0" y="700.0" type="line"/>
      <point x="40.33333333333333" y="698.0"/>
      <point x="32.0" y="689.6666666666666"/>
      <point x="30" y="675" type="curve"/>
      <point x="30.0" y="635.0" type="line"/>
      <point x="32.0" y="620.3333333333333"/>
      <point x="40.33333333333333" y="612.0"/>
      <point x="55" y="610" type="curve"/>
      <point x="57" y="610" type="line"/>
      <point x="324" y="610" type="line"/>
      <point x="328.0" y="609.0" type="line"/>
      <point x="332.0" y="607.6666666666666"/>
      <point x="335.3333333333333" y="605.3333333333333"/>
      <point x="338" y="602" type="curve"/>
      <point x="339.0" y="598.0" type="line" smooth="yes"/>
      <point x="339.66666666666663" y="595.3333333333333"/>
      <point x="340.0" y="568.6666666666666"/>
      <point x="340" y="518" type="curve" smooth="yes"/>
      <point x="340.0" y="515.0" type="line"/>
      <point x="339.3333333333333" y="513.0"/>
      <point x="266.0" y="355.66666666666663"/>
      <point x="120" y="43" type="curve"/>
      <point x="120.0" y="42.0" type="line"/>
      <point x="115.33333333333333" y="27.333333333333332"/>
      <point x="119.33333333333333" y="15.999999999999998"/>
      <point x="132" y="8" type="curve"/>
    </contour>
  </outline>
</glyph>
<glyph name="eight" format="2">
  <advance width="480"/>
  <unicode hex="0038"/>
  <outline>
    <contour>
      <point x="51" y="382" type="line"/>
      <point x="69.66666666666666" y="369.3333333333333"/>
      <point x="80.0" y="362.0"/>
      <point x="82.0" y="360.0" type="curve"/>
      <point x="83.33333333333333" y="357.3333333333333"/>
      <point x="84.33333333333333" y="354.66666666666663"/>
      <point x="85.0" y="352.0" type="curve"/>
      <point x="85.0" y="349.3333333333333"/>
      <point x="84.66666666666666" y="346.66666666666663"/>
      <point x="84.0" y="344.0" type="curve"/>
      <point x="82.0" y="340.66666666666663"/>
      <point x="71.0" y="332.0"/>
      <point x="51" y="318" type="curve"/>
      <point x="51.0" y="317.0" type="line"/>
      <point x="45.0" y="311.66666666666663"/>
      <point x="41.33333333333333" y="305.0"/>
      <point x="40" y="297" type="curve"/>
      <point x="40.0" y="95.0" type="line"/>
      <point x="41.33333333333333" y="87.0"/>
      <point x="45.0" y="80.33333333333333"/>
      <point x="51" y="75" type="curve"/>
      <point x="51.0" y="74.0" type="line"/>
      <point x="116.33333333333333" y="28.0"/>
      <point x="151.0" y="3.9999999999999996"/>
      <point x="155.0" y="2.0" type="curve"/>
      <point x="158.33333333333331" y="0.6666666666666665"/>
      <point x="161.66666666666666" y="0.0"/>
      <point x="165" y="0" type="curve" smooth="yes"/>
      <point x="315.0" y="0.0" type="line" smooth="yes"/>
      <point x="315.66666666666663" y="0.0"/>
      <point x="318.0" y="0.33333333333333326"/>
      <point x="322.0" y="1.0" type="curve"/>
      <point x="324.0" y="1.6666666666666665"/>
      <point x="326.66666666666663" y="3.0"/>
      <point x="330.0" y="5.0" type="curve"/>
      <point x="330.66666666666663" y="5.0"/>
      <point x="363.66666666666663" y="28.0"/>
      <point x="429" y="74" type="curve"/>
      <point x="429.0" y="75.0" type="line"/>
      <point x="435.0" y="80.33333333333333"/>
      <point x="438.66666666666663" y="87.0"/>
      <point x="440" y="95" type="curve"/>
      <point x="440.0" y="297.0" type="line"/>
      <point x="438.66666666666663" y="305.0"/>
      <point x="435.0" y="311.66666666666663"/>
      <point x="429" y="317" type="curve"/>
      <point x="429.0" y="318.0" type="line"/>
      <point x="410.3333333333333" y="330.66666666666663"/>
      <point x="400.0" y="338.0"/>
      <point x="398.0" y="340.0" type="curve"/>
      <point x="396.66666666666663" y="342.66666666666663"/>
      <point x="395.66666666666663" y="345.3333333333333"/>
      <point x="395.0" y="348.0" type="curve"/>
      <point x="395.0" y="350.66666666666663"/>
      <point x="395.3333333333333" y="353.3333333333333"/>
      <point x="396.0" y="356.0" type="curve"/>
      <point x="398.0" y="359.3333333333333"/>
      <point x="409.0" y="368.0"/>
      <point x="429" y="382" type="curve"/>
      <point x="429.0" y="383.0" type="line"/>
      <point x="435.0" y="388.33333333333326"/>
      <point x="438.66666666666663" y="394.99999999999994"/>
      <point x="440" y="403" type="curve"/>
      <point x="440.0" y="605.0" type="line"/>
      <point x="438.66666666666663" y="613.0"/>
      <point x="435.0" y="619.6666666666666"/>
      <point x="429" y="625" type="curve"/>
      <point x="429.0" y="626.0" type="line"/>
      <point x="363.66666666666663" y="672.0"/>
      <point x="329.0" y="696.0"/>
      <point x="325.0" y="698.0" type="curve"/>
      <point x="321.66666666666663" y="699.3333333333333"/>
      <point x="318.3333333333333" y="700.0"/>
      <point x="315" y="700" type="curve" smooth="yes"/>
      <point x="165.0" y="700.0" type="line" smooth="yes"/>
      <point x="164.33333333333331" y="700.0"/>
      <point x="162.0" y="699.6666666666666"/>
      <point x="158.0" y="699.0" type="curve"/>
      <point x="156.0" y="698.3333333333333"/>
      <point x="153.33333333333331" y="697.0"/>
      <point x="150.0" y="695.0" type="curve"/>
      <point x="149.33333333333331" y="695.0"/>
      <point x="116.33333333333333" y="672.0"/>
      <point x="51" y="626" type="curve"/>
      <point x="51.0" y="625.0" type="line"/>
      <point x="45.0" y="619.6666666666666"/>
      <point x="41.33333333333333" y="613.0"/>
      <point x="40" y="605" type="curve"/>
      <point x="40.0" y="403.0" type="line"/>
      <point x="41.33333333333333" y="394.99999999999994"/>
      <point x="45.0" y="388.33333333333326"/>
      <point x="51" y="383" type="curve"/>
    </contour>
    <contour>
      <point x="130.0" y="137.0" type="curve"/>
      <point x="130.0" y="215.66666666666666"/>
      <point x="130.0" y="256.3333333333333"/>
      <point x="130.0" y="259.0" type="curve"/>
      <point x="131.33333333333331" y="261.0"/>
      <point x="132.66666666666666" y="263.0"/>
      <point x="134.0" y="265.0" type="curve"/>
      <point x="158.66666666666666" y="287.66666666666663"/>
      <point x="177.33333333333331" y="300.0"/>
      <point x="190.0" y="302.0" type="curve"/>
      <point x="256.66666666666663" y="302.0"/>
      <point x="291.66666666666663" y="301.66666666666663"/>
      <point x="295.0" y="301.0" type="curve"/>
      <point x="297.66666666666663" y="299.66666666666663"/>
      <point x="313.66666666666663" y="288.66666666666663"/>
      <point x="343.0" y="268.0" type="curve"/>
      <point x="347.0" y="264.66666666666663"/>
      <point x="349.3333333333333" y="260.3333333333333"/>
      <point x="350.0" y="255.0" type="curve"/>
      <point x="350.0" y="176.33333333333331"/>
      <point x="350.0" y="135.66666666666666"/>
      <point x="350.0" y="133.0" type="curve"/>
      <point x="348.66666666666663" y="131.0"/>
      <point x="347.3333333333333" y="129.0"/>
      <point x="346.0" y="127.0" type="curve"/>
      <point x="321.3333333333333" y="104.33333333333333"/>
      <point x="302.66666666666663" y="92.0"/>
      <point x="290.0" y="90.0" type="curve"/>
      <point x="223.33333333333331" y="90.0"/>
      <point x="188.33333333333331" y="90.33333333333333"/>
      <point x="185.0" y="91.0" type="curve"/>
      <point x="182.33333333333331" y="92.33333333333333"/>
      <point x="166.33333333333331" y="103.33333333333333"/>
      <point x="137.0" y="124.0" type="curve"/>
      <point x="133.0" y="127.33333333333333"/>
      <point x="130.66666666666666" y="131.66666666666666"/>
    </contour>
    <contour>
      <point x="130.0" y="445.0" type="curve"/>
      <point x="130.0" y="523.6666666666666"/>
      <point x="130.0" y="564.3333333333333"/>
      <point x="130.0" y="567.0" type="curve"/>
      <point x="131.33333333333331" y="569.0"/>
      <point x="132.66666666666666" y="571.0"/>
      <point x="134.0" y="573.0" type="curve"/>
      <point x="158.66666666666666" y="595.6666666666666"/>
      <point x="177.33333333333331" y="608.0"/>
      <point x="190.0" y="610.0" type="curve"/>
      <point x="256.66666666666663" y="610.0"/>
      <point x="291.66666666666663" y="609.6666666666666"/>
      <point x="295.0" y="609.0" type="curve"/>
      <point x="297.66666666666663" y="607.6666666666666"/>
      <point x="313.66666666666663" y="596.6666666666666"/>
      <point x="343.0" y="576.0" type="curve"/>
      <point x="347.0" y="572.6666666666666"/>
      <point x="349.3333333333333" y="568.3333333333333"/>
      <point x="350.0" y="563.0" type="curve"/>
      <point x="350.0" y="484.33333333333326"/>
      <point x="350.0" y="443.66666666666663"/>
      <point x="350.0" y="441.0" type="curve"/>
      <point x="348.66666666666663" y="439.0"/>
      <point x="347.3333333333333" y="437.0"/>
      <point x="346.0" y="435.0" type="curve"/>
      <point x="321.3333333333333" y="412.3333333333333"/>
      <point x="302.66666666666663" y="400.0"/>
      <point x="290.0" y="398.0" type="curve"/>
      <point x="223.33333333333331" y="398.0"/>
      <point x="188.33333333333331" y="398.3333333333333"/>
      <point x="185.0" y="399.0" type="curve"/>
      <point x="182.33333333333331" y="400.3333333333333"/>
      <point x="166.33333333333331" y="411.3333333333333"/>
      <point x="137.0" y="432.0" type="curve"/>
      <point x="133.0" y="435.3333333333333"/>
      <point x="130.66666666666666" y="439.66666666666663"/>
    </contour>
  </outline>
</glyph>
<glyph name="nine" format="2">
  <advance width="480"/>
  <unicode hex="0039"/>
  <outline>
    <contour>
      <point x="40" y="602" type="curve"/>
      <point x="40" y="392" type="line"/>
      <point x="41" y="384"/>
      <point x="44" y="377"/>
      <point x="50" y="372" type="curve"/>
      <point x="51" y="371" type="line"/>
      <point x="149" y="299" type="line"/>
      <point x="150" y="299"/>
      <point x="152" y="298"/>
      <point x="155" y="296" type="curve"/>
      <point x="157" y="295"/>
      <point x="160" y="295"/>
      <point x="164" y="294" type="curve"/>
      <point x="165" y="294"/>
      <point x="215" y="294"/>
      <point x="315" y="294" type="curve"/>
      <point x="320" y="295"/>
      <point x="324" y="296"/>
      <point x="327" y="297" type="curve"/>
      <point x="332" y="299"/>
      <point x="338" y="299"/>
      <point x="343" y="297" type="curve"/>
      <point x="346" y="294"/>
      <point x="348" y="291"/>
      <point x="349" y="287" type="curve"/>
      <point x="350" y="284"/>
      <point x="350" y="235"/>
      <point x="350" y="139" type="curve" smooth="yes"/>
      <point x="350" y="134"/>
      <point x="347" y="130"/>
      <point x="344" y="126" type="curve"/>
      <point x="314" y="104"/>
      <point x="297" y="92"/>
      <point x="294" y="91" type="curve" smooth="yes"/>
      <point x="291" y="90"/>
      <point x="256" y="90"/>
      <point x="190" y="90" type="curve" smooth="yes"/>
      <point x="187" y="90"/>
      <point x="185" y="90"/>
      <point x="184" y="91" type="curve"/>
      <point x="179" y="93"/>
      <point x="175" y="94"/>
      <point x="170" y="94" type="curve" smooth="yes"/>
      <point x="166" y="94"/>
      <point x="163" y="94"/>
      <point x="159" y="92" type="curve"/>
      <point x="156" y="91"/>
      <point x="151" y="90"/>
      <point x="143" y="90" type="curve" smooth="yes"/>
      <point x="141" y="90" type="line"/>
      <point x="126" y="88"/>
      <point x="118" y="80"/>
      <point x="116" y="65" type="curve"/>
      <point x="116" y="25" type="line"/>
      <point x="118" y="10"/>
      <point x="126" y="2"/>
      <point x="141" y="0" type="curve"/>
      <point x="143" y="0" type="line" smooth="yes"/>
      <point x="258" y="0"/>
      <point x="317" y="0"/>
      <point x="322" y="1" type="curve"/>
      <point x="324" y="2"/>
      <point x="327" y="3"/>
      <point x="330" y="5" type="curve"/>
      <point x="331" y="5"/>
      <point x="364" y="29"/>
      <point x="429" y="77" type="curve"/>
      <point x="430" y="78" type="line"/>
      <point x="436" y="83"/>
      <point x="439" y="90"/>
      <point x="440" y="98" type="curve"/>
      <point x="440" y="602" type="line"/>
      <point x="439" y="610"/>
      <point x="436" y="617"/>
      <point x="430" y="622" type="curve"/>
      <point x="429" y="623" type="line"/>
      <point x="331" y="695" type="line"/>
      <point x="330" y="695"/>
      <point x="328" y="696"/>
      <point x="325" y="698" type="curve"/>
      <point x="322" y="699"/>
      <point x="318" y="700"/>
      <point x="315" y="700" type="curve" smooth="yes"/>
      <point x="165" y="700" type="line" smooth="yes"/>
      <point x="164" y="700"/>
      <point x="162" y="700"/>
      <point x="158" y="699" type="curve"/>
      <point x="156" y="698"/>
      <point x="153" y="697"/>
      <point x="150" y="695" type="curve"/>
      <point x="149" y="695"/>
      <point x="116" y="671"/>
      <point x="51" y="623" type="curve"/>
      <point x="50" y="622" type="line"/>
      <point x="44" y="617"/>
      <point x="41" y="610"/>
    </contour>
    <contour>
      <point x="136" y="574" type="curve"/>
      <point x="166" y="596"/>
      <point x="183" y="608"/>
      <point x="186" y="609" type="curve" smooth="yes"/>
      <point x="189" y="610"/>
      <point x="224" y="610"/>
      <point x="289" y="610" type="curve"/>
      <point x="302" y="608"/>
      <point x="321" y="595"/>
      <point x="346" y="571" type="curve"/>
      <point x="347" y="569"/>
      <point x="349" y="567"/>
      <point x="350" y="565" type="curve"/>
      <point x="350" y="562"/>
      <point x="350" y="518"/>
      <point x="350" y="433" type="curve"/>
      <point x="349" y="428"/>
      <point x="347" y="423"/>
      <point x="344" y="420" type="curve"/>
      <point x="314" y="398"/>
      <point x="297" y="386"/>
      <point x="294" y="385" type="curve" smooth="yes"/>
      <point x="291" y="384"/>
      <point x="256" y="384"/>
      <point x="191" y="384" type="curve"/>
      <point x="178" y="386"/>
      <point x="159" y="399"/>
      <point x="134" y="423" type="curve"/>
      <point x="133" y="425"/>
      <point x="131" y="427"/>
      <point x="130" y="429" type="curve"/>
      <point x="130" y="432"/>
      <point x="130" y="476"/>
      <point x="130" y="561" type="curve"/>
      <point x="131" y="566"/>
      <point x="133" y="571"/>
    </contour>
  </outline>
</glyph>
<glyph name="semicolon" format="2">
  <advance width="208"/>
  <unicode hex="003B"/>
  <outline>
    <contour>
      <point x="68" y="-167" type="curve"/>
      <point x="106.0" y="-173.0" type="line"/>
      <point x="121.33333333333333" y="-173.0"/>
      <point x="131.0" y="-165.66666666666666"/>
      <point x="135" y="-151" type="curve"/>
      <point x="135.0" y="-150.0" type="line"/>
      <point x="150.33333333333331" y="-39.33333333333334"/>
      <point x="158.33333333333331" y="16.666666666666664"/>
      <point x="159.0" y="18.0" type="curve"/>
      <point x="159.0" y="19.333333333333332"/>
      <point x="159.33333333333331" y="21.0"/>
      <point x="160.0" y="23.0" type="curve"/>
      <point x="161.33333333333331" y="26.33333333333333"/>
      <point x="162.0" y="37.666666666666664"/>
      <point x="162" y="57" type="curve" smooth="yes"/>
      <point x="162.0" y="58.0" type="line"/>
      <point x="161.33333333333331" y="64.0"/>
      <point x="159.33333333333331" y="69.66666666666666"/>
      <point x="156" y="75" type="curve"/>
      <point x="155.0" y="75.0" type="line"/>
      <point x="147.0" y="84.33333333333333"/>
      <point x="138.66666666666666" y="89.33333333333333"/>
      <point x="130.0" y="90.0" type="curve"/>
      <point x="110.66666666666666" y="90.0"/>
      <point x="99.33333333333333" y="89.66666666666666"/>
      <point x="96.0" y="89.0" type="curve"/>
      <point x="90.66666666666666" y="86.33333333333333"/>
      <point x="85.0" y="81.66666666666666"/>
      <point x="79" y="75" type="curve"/>
      <point x="78.0" y="75.0" type="line"/>
      <point x="74.66666666666666" y="69.66666666666666"/>
      <point x="72.66666666666666" y="64.0"/>
      <point x="72" y="58" type="curve" smooth="yes"/>
      <point x="46.0" y="-139.0" type="line"/>
      <point x="46.0" y="-153.66666666666666"/>
      <point x="53.33333333333333" y="-163.0"/>
    </contour>
    <contour>
      <point x="155" y="485" type="line"/>
      <point x="147.0" y="494.33333333333326"/>
      <point x="138.66666666666666" y="499.33333333333326"/>
      <point x="130.0" y="500.0" type="curve"/>
      <point x="110.66666666666666" y="500.0"/>
      <point x="99.33333333333333" y="499.66666666666663"/>
      <point x="96.0" y="499.0" type="curve"/>
      <point x="90.66666666666666" y="496.3333333333333"/>
      <point x="85.0" y="491.66666666666663"/>
      <point x="79" y="485" type="curve"/>
      <point x="78.0" y="485.0" type="line"/>
      <point x="74.66666666666666" y="479.66666666666663"/>
      <point x="72.66666666666666" y="474.0"/>
      <point x="72" y="468" type="curve"/>
      <point x="72.0" y="442.0" type="line"/>
      <point x="72.66666666666666" y="435.99999999999994"/>
      <point x="74.66666666666666" y="430.33333333333326"/>
      <point x="78" y="425" type="curve"/>
      <point x="79.0" y="425.0" type="line"/>
      <point x="87.0" y="415.66666666666663"/>
      <point x="95.33333333333333" y="410.66666666666663"/>
      <point x="104.0" y="410.0" type="curve"/>
      <point x="123.33333333333331" y="410.0"/>
      <point x="134.66666666666666" y="410.3333333333333"/>
      <point x="138.0" y="411.0" type="curve"/>
      <point x="143.33333333333331" y="413.66666666666663"/>
      <point x="149.0" y="418.33333333333326"/>
      <point x="155" y="425" type="curve"/>
      <point x="156.0" y="425.0" type="line"/>
      <point x="159.33333333333331" y="430.33333333333326"/>
      <point x="161.33333333333331" y="435.99999999999994"/>
      <point x="162" y="442" type="curve"/>
      <point x="162.0" y="468.0" type="line"/>
      <point x="161.33333333333331" y="474.0"/>
      <point x="159.33333333333331" y="479.66666666666663"/>
      <point x="156" y="485" type="curve"/>
    </contour>
  </outline>
</glyph>
<glyph name="less" format="2">
  <advance width="412"/>
  <unicode hex="003C"/>
  <outline>
    <contour>
      <point x="85" y="329" type="curve"/>
      <point x="318" y="165" type="line"/>
      <point x="323" y="162"/>
      <point x="328" y="161"/>
      <point x="333" y="161" type="curve" smooth="yes"/>
      <point x="340" y="161"/>
      <point x="347" y="164"/>
      <point x="353" y="171" type="curve"/>
      <point x="366" y="189" type="line"/>
      <point x="369" y="194"/>
      <point x="370" y="199"/>
      <point x="370" y="204" type="curve" smooth="yes"/>
      <point x="370" y="212"/>
      <point x="367" y="219"/>
      <point x="360" y="225" type="curve"/>
      <point x="359" y="225" type="line"/>
      <point x="254" y="300"/>
      <point x="200" y="338"/>
      <point x="198" y="340" type="curve"/>
      <point x="197" y="343"/>
      <point x="196" y="345"/>
      <point x="195" y="348" type="curve"/>
      <point x="195" y="351"/>
      <point x="195" y="353"/>
      <point x="196" y="356" type="curve"/>
      <point x="198" y="360" type="line"/>
      <point x="200" y="362"/>
      <point x="254" y="400"/>
      <point x="359" y="475" type="curve"/>
      <point x="360" y="475" type="line"/>
      <point x="367" y="481"/>
      <point x="370" y="488"/>
      <point x="370" y="496" type="curve" smooth="yes"/>
      <point x="370" y="501"/>
      <point x="369" y="506"/>
      <point x="366" y="511" type="curve"/>
      <point x="353" y="529" type="line"/>
      <point x="347" y="536"/>
      <point x="340" y="539"/>
      <point x="333" y="539" type="curve" smooth="yes"/>
      <point x="328" y="539"/>
      <point x="323" y="538"/>
      <point x="318" y="535" type="curve"/>
      <point x="85" y="371" type="line"/>
      <point x="79" y="365"/>
      <point x="76" y="359"/>
      <point x="75" y="352" type="curve"/>
      <point x="75" y="343"/>
      <point x="78" y="336"/>
    </contour>
  </outline>
</glyph>
<glyph name="equal" format="2">
  <advance width="412"/>
  <unicode hex="003D"/>
  <outline>
    <contour>
      <point x="71" y="230" type="curve"/>
      <point x="341.0" y="230.0" type="line"/>
      <point x="355.66666666666663" y="231.99999999999997"/>
      <point x="364.0" y="240.33333333333331"/>
      <point x="366" y="255" type="curve"/>
      <point x="366.0" y="295.0" type="line"/>
      <point x="364.0" y="309.66666666666663"/>
      <point x="355.66666666666663" y="318.0"/>
      <point x="341" y="320" type="curve"/>
      <point x="71.0" y="320.0" type="line"/>
      <point x="56.33333333333333" y="318.0"/>
      <point x="48.0" y="309.66666666666663"/>
      <point x="46" y="295" type="curve"/>
      <point x="46.0" y="255.0" type="line"/>
      <point x="48.0" y="240.33333333333331"/>
      <point x="56.33333333333333" y="231.99999999999997"/>
    </contour>
    <contour>
      <point x="71" y="380" type="curve"/>
      <point x="341.0" y="380.0" type="line"/>
      <point x="355.66666666666663" y="382.0"/>
      <point x="364.0" y="390.3333333333333"/>
      <point x="366" y="405" type="curve"/>
      <point x="366.0" y="445.0" type="line"/>
      <point x="364.0" y="459.66666666666663"/>
      <point x="355.66666666666663" y="468.0"/>
      <point x="341" y="470" type="curve"/>
      <point x="71.0" y="470.0" type="line"/>
      <point x="56.33333333333333" y="468.0"/>
      <point x="48.0" y="459.66666666666663"/>
      <point x="46" y="445" type="curve"/>
      <point x="46.0" y="405.0" type="line"/>
      <point x="48.0" y="390.3333333333333"/>
      <point x="56.33333333333333" y="382.0"/>
    </contour>
  </outline>
</glyph>
<glyph name="greater" format="2">
  <advance width="412"/>
  <unicode hex="003E"/>
  <outline>
    <contour>
      <point x="86" y="475" type="line"/>
      <point x="191" y="400"/>
      <point x="245" y="362"/>
      <point x="247" y="360" type="curve"/>
      <point x="248" y="357"/>
      <point x="250" y="355"/>
      <point x="251" y="352" type="curve"/>
      <point x="251" y="349"/>
      <point x="250" y="347"/>
      <point x="249" y="344" type="curve"/>
      <point x="247" y="340" type="line"/>
      <point x="245" y="338"/>
      <point x="191" y="300"/>
      <point x="86" y="225" type="curve"/>
      <point x="85" y="225" type="line"/>
      <point x="78" y="218"/>
      <point x="75" y="211"/>
      <point x="75" y="204" type="curve" smooth="yes"/>
      <point x="75" y="199"/>
      <point x="76" y="194"/>
      <point x="79" y="189" type="curve"/>
      <point x="93" y="171" type="line" smooth="yes"/>
      <point x="99" y="164"/>
      <point x="106" y="161"/>
      <point x="113" y="161" type="curve" smooth="yes"/>
      <point x="118" y="161"/>
      <point x="123" y="162"/>
      <point x="128" y="165" type="curve"/>
      <point x="360" y="329" type="line"/>
      <point x="366" y="335"/>
      <point x="370" y="341"/>
      <point x="371" y="348" type="curve"/>
      <point x="371" y="357"/>
      <point x="367" y="364"/>
      <point x="360" y="371" type="curve"/>
      <point x="128" y="535" type="line"/>
      <point x="123" y="538"/>
      <point x="118" y="539"/>
      <point x="113" y="539" type="curve" smooth="yes"/>
      <point x="106" y="539"/>
      <point x="99" y="536"/>
      <point x="93" y="529" type="curve" smooth="yes"/>
      <point x="79" y="511" type="line"/>
      <point x="76" y="506"/>
      <point x="75" y="501"/>
      <point x="75" y="496" type="curve" smooth="yes"/>
      <point x="75" y="489"/>
      <point x="78" y="482"/>
      <point x="85" y="475" type="curve"/>
    </contour>
  </outline>
</glyph>
<glyph name="question" format="2">
  <advance width="392"/>
  <unicode hex="003F"/>
  <outline>
    <contour>
      <point x="136" y="581" type="line" smooth="yes"/>
      <point x="136" y="584"/>
      <point x="137" y="587"/>
      <point x="138" y="590" type="curve" smooth="yes"/>
      <point x="139" y="593"/>
      <point x="146" y="598"/>
      <point x="158" y="607" type="curve"/>
      <point x="162" y="609" type="line"/>
      <point x="165" y="610"/>
      <point x="186" y="610"/>
      <point x="225" y="610" type="curve"/>
      <point x="229" y="609"/>
      <point x="237" y="605"/>
      <point x="250" y="596" type="curve"/>
      <point x="253" y="593"/>
      <point x="255" y="590"/>
      <point x="256" y="587" type="curve"/>
      <point x="257" y="575"/>
      <point x="258" y="562"/>
      <point x="258" y="550" type="curve" smooth="yes"/>
      <point x="258" y="538"/>
      <point x="257" y="525"/>
      <point x="256" y="513" type="curve"/>
      <point x="255" y="510"/>
      <point x="253" y="507"/>
      <point x="250" y="504" type="curve"/>
      <point x="239" y="497"/>
      <point x="233" y="492"/>
      <point x="230" y="491" type="curve" smooth="yes"/>
      <point x="227" y="490"/>
      <point x="209" y="490"/>
      <point x="178" y="490" type="curve" smooth="yes"/>
      <point x="176" y="490" type="line"/>
      <point x="161" y="488"/>
      <point x="153" y="480"/>
      <point x="151" y="465" type="curve"/>
      <point x="151" y="265" type="line"/>
      <point x="153" y="250"/>
      <point x="161" y="242"/>
      <point x="176" y="240" type="curve"/>
      <point x="216" y="240" type="line"/>
      <point x="231" y="242"/>
      <point x="239" y="250"/>
      <point x="241" y="265" type="curve"/>
      <point x="241" y="267" type="line" smooth="yes"/>
      <point x="241" y="346"/>
      <point x="241" y="387"/>
      <point x="242" y="390" type="curve"/>
      <point x="243" y="394"/>
      <point x="246" y="397"/>
      <point x="250" y="399" type="curve" smooth="yes"/>
      <point x="254" y="401" type="line"/>
      <point x="256" y="401"/>
      <point x="258" y="401"/>
      <point x="260" y="402" type="curve"/>
      <point x="265" y="405" type="line"/>
      <point x="266" y="405"/>
      <point x="289" y="422"/>
      <point x="335" y="455" type="curve"/>
      <point x="336" y="456" type="line"/>
      <point x="342" y="461"/>
      <point x="345" y="468"/>
      <point x="346" y="476" type="curve"/>
      <point x="346" y="624" type="line"/>
      <point x="345" y="632"/>
      <point x="342" y="639"/>
      <point x="336" y="644" type="curve"/>
      <point x="335" y="645" type="line"/>
      <point x="266" y="695" type="line"/>
      <point x="265" y="695"/>
      <point x="263" y="696"/>
      <point x="260" y="698" type="curve"/>
      <point x="257" y="699"/>
      <point x="253" y="700"/>
      <point x="250" y="700" type="curve" smooth="yes"/>
      <point x="142" y="700" type="line" smooth="yes"/>
      <point x="141" y="700"/>
      <point x="139" y="700"/>
      <point x="135" y="699" type="curve"/>
      <point x="133" y="698"/>
      <point x="130" y="697"/>
      <point x="127" y="695" type="curve"/>
      <point x="126" y="695"/>
      <point x="103" y="678"/>
      <point x="57" y="645" type="curve"/>
      <point x="56" y="644" type="line"/>
      <point x="50" y="639"/>
      <point x="47" y="632"/>
      <point x="46" y="624" type="curve"/>
      <point x="46" y="579" type="line"/>
      <point x="48" y="564"/>
      <point x="56" y="556"/>
      <point x="71" y="554" type="curve"/>
      <point x="111" y="554" type="line"/>
      <point x="126" y="556"/>
      <point x="134" y="564"/>
      <point x="136" y="579" type="curve"/>
    </contour>
    <contour>
      <point x="234" y="120" type="line"/>
      <point x="226" y="129"/>
      <point x="218" y="134"/>
      <point x="209" y="135" type="curve"/>
      <point x="190" y="135"/>
      <point x="178" y="135"/>
      <point x="175" y="134" type="curve"/>
      <point x="170" y="131"/>
      <point x="164" y="127"/>
      <point x="158" y="120" type="curve"/>
      <point x="157" y="120" type="line"/>
      <point x="154" y="115"/>
      <point x="152" y="109"/>
      <point x="151" y="103" type="curve"/>
      <point x="151" y="77" type="line"/>
      <point x="152" y="71"/>
      <point x="154" y="65"/>
      <point x="157" y="60" type="curve"/>
      <point x="158" y="60" type="line"/>
      <point x="166" y="51"/>
      <point x="174" y="46"/>
      <point x="183" y="45" type="curve"/>
      <point x="202" y="45"/>
      <point x="214" y="45"/>
      <point x="217" y="46" type="curve"/>
      <point x="222" y="49"/>
      <point x="228" y="53"/>
      <point x="234" y="60" type="curve"/>
      <point x="235" y="60" type="line"/>
      <point x="238" y="65"/>
      <point x="240" y="71"/>
      <point x="241" y="77" type="curve"/>
      <point x="241" y="103" type="line"/>
      <point x="240" y="109"/>
      <point x="238" y="115"/>
      <point x="235" y="120" type="curve"/>
    </contour>
  </outline>
</glyph>
<glyph name="at" format="2">
  <advance width="738"/>
  <unicode hex="0040"/>
  <outline>
    <contour>
      <point x="90" y="662" type="line"/>
      <point x="46" y="612" type="line"/>
      <point x="51" y="77" type="line"/>
      <point x="127" y="20" type="line"/>
      <point x="630" y="20" type="line"/>
      <point x="623" y="88" type="line"/>
      <point x="127" y="122" type="line"/>
      <point x="114" y="557" type="line"/>
      <point x="210" y="626" type="line"/>
      <point x="594" y="594" type="line"/>
      <point x="607" y="230" type="line"/>
      <point x="542" y="235" type="line"/>
      <point x="525" y="551" type="line"/>
      <point x="265" y="556" type="line"/>
      <point x="198" y="502" type="line"/>
      <point x="198" y="198" type="line"/>
      <point x="279" y="144" type="line"/>
      <point x="625" y="144" type="line"/>
      <point x="692" y="212" type="line"/>
      <point x="674" y="623" type="line"/>
      <point x="611" y="680" type="line"/>
    </contour>
    <contour>
      <point x="302" y="473" type="line"/>
      <point x="431" y="473" type="line"/>
      <point x="444" y="464" type="line"/>
      <point x="444" y="254" type="line"/>
      <point x="437" y="242" type="line"/>
      <point x="409" y="227" type="line"/>
      <point x="307" y="227" type="line"/>
      <point x="280" y="248" type="line"/>
      <point x="280" y="447" type="line"/>
    </contour>
  </outline>
</glyph>
<glyph name="A" format="2">
  <advance width="607"/>
  <unicode hex="0041"/>
  <outline>
    <contour>
      <point x="107" y="18" type="line"/>
      <point x="180.0" y="228.0" type="line"/>
      <point x="181.33333333333331" y="230.0"/>
      <point x="182.66666666666666" y="232.0"/>
      <point x="184.0" y="234.0" type="curve"/>
      <point x="187.33333333333331" y="236.0"/>
      <point x="191.0" y="237.33333333333331"/>
      <point x="195" y="238" type="curve"/>
      <point x="412.0" y="238.0" type="line" smooth="yes"/>
      <point x="417.33333333333326" y="238.0"/>
      <point x="421.0" y="235.0"/>
      <point x="425.0" y="231.0" type="curve"/>
      <point x="426.33333333333326" y="229.0"/>
      <point x="450.99999999999994" y="158.0"/>
      <point x="499" y="18" type="curve"/>
      <point x="500.0" y="17.0" type="line"/>
      <point x="504.66666666666663" y="7.0"/>
      <point x="512.6666666666666" y="1.3333333333333333"/>
      <point x="524" y="0" type="curve"/>
      <point x="525.0" y="0.0" type="line" smooth="yes"/>
      <point x="540.3333333333333" y="0.0"/>
      <point x="548.6666666666666" y="0.0"/>
      <point x="550.0" y="0.0" type="curve"/>
      <point x="554.6666666666666" y="0.6666666666666666"/>
      <point x="561.6666666666666" y="2.6666666666666665"/>
      <point x="571" y="6" type="curve"/>
      <point x="572.0" y="6.0" type="line"/>
      <point x="585.3333333333333" y="13.333333333333332"/>
      <point x="590.3333333333333" y="24.333333333333332"/>
      <point x="587" y="39" type="curve"/>
      <point x="361.0" y="691.0" type="line"/>
      <point x="356.3333333333333" y="701.0"/>
      <point x="348.3333333333333" y="706.6666666666666"/>
      <point x="337" y="708" type="curve"/>
      <point x="270.0" y="708.0" type="line"/>
      <point x="258.66666666666663" y="706.6666666666666"/>
      <point x="250.66666666666666" y="701.0"/>
      <point x="246" y="691" type="curve"/>
      <point x="19.0" y="39.0" type="line"/>
      <point x="16.333333333333332" y="24.333333333333332"/>
      <point x="21.666666666666664" y="13.333333333333332"/>
      <point x="35" y="6" type="curve"/>
      <point x="36.0" y="6.0" type="line"/>
      <point x="44.666666666666664" y="3.333333333333333"/>
      <point x="49.33333333333333" y="1.6666666666666665"/>
      <point x="50.0" y="1.0" type="curve"/>
      <point x="55.33333333333333" y="0.33333333333333326"/>
      <point x="66.0" y="0.0"/>
      <point x="82" y="0" type="curve" smooth="yes"/>
      <point x="83.0" y="0.0" type="line"/>
      <point x="93.66666666666666" y="1.3333333333333333"/>
      <point x="101.66666666666666" y="7.0"/>
      <point x="107" y="17" type="curve"/>
    </contour>
    <contour>
      <point x="222.0" y="349.0" type="curve"/>
      <point x="266.66666666666663" y="476.3333333333333"/>
      <point x="289.3333333333333" y="541.3333333333333"/>
      <point x="290.0" y="544.0" type="curve"/>
      <point x="293.3333333333333" y="547.3333333333333"/>
      <point x="297.0" y="549.6666666666666"/>
      <point x="301.0" y="551.0" type="curve"/>
      <point x="305.66666666666663" y="551.0"/>
      <point x="309.66666666666663" y="549.6666666666666"/>
      <point x="313" y="547" type="curve"/>
      <point x="316.0" y="544.0" type="line"/>
      <point x="317.3333333333333" y="541.3333333333333"/>
      <point x="340.3333333333333" y="476.3333333333333"/>
      <point x="385.0" y="349.0" type="curve"/>
      <point x="385.66666666666663" y="344.3333333333333"/>
      <point x="385.3333333333333" y="340.0"/>
      <point x="384.0" y="336.0" type="curve"/>
      <point x="381.3333333333333" y="332.66666666666663"/>
      <point x="378.0" y="330.3333333333333"/>
      <point x="374" y="329" type="curve"/>
      <point x="370.0" y="328.0" type="line"/>
      <point x="281.3333333333333" y="328.0"/>
      <point x="235.66666666666666" y="328.3333333333333"/>
      <point x="233.0" y="329.0" type="curve"/>
      <point x="228.99999999999997" y="330.3333333333333"/>
      <point x="225.66666666666663" y="332.66666666666663"/>
      <point x="223.0" y="336.0" type="curve"/>
      <point x="221.66666666666663" y="340.0"/>
      <point x="221.33333333333331" y="344.3333333333333"/>
    </contour>
  </outline>
</glyph>
<glyph name="B" format="2">
  <advance width="586"/>
  <unicode hex="0042"/>
  <outline>
    <contour>
      <point x="407" y="3" type="curve"/>
      <point x="533.0" y="77.0" type="line"/>
      <point x="540.3333333333333" y="83.0"/>
      <point x="544.6666666666666" y="90.33333333333333"/>
      <point x="546" y="99" type="curve"/>
      <point x="546.0" y="303.0" type="line"/>
      <point x="544.6666666666666" y="312.3333333333333"/>
      <point x="540.3333333333333" y="319.66666666666663"/>
      <point x="533" y="325" type="curve"/>
      <point x="533.0" y="326.0" type="line"/>
      <point x="507.0" y="340.66666666666663"/>
      <point x="493.0" y="348.66666666666663"/>
      <point x="491.0" y="350.0" type="curve"/>
      <point x="488.33333333333326" y="353.3333333333333"/>
      <point x="486.99999999999994" y="357.0"/>
      <point x="487.0" y="361.0" type="curve"/>
      <point x="487.66666666666663" y="367.0"/>
      <point x="490.0" y="371.66666666666663"/>
      <point x="494.0" y="375.0" type="curve" smooth="yes"/>
      <point x="500.66666666666663" y="380.3333333333333"/>
      <point x="504.66666666666663" y="387.3333333333333"/>
      <point x="506" y="396" type="curve"/>
      <point x="506.0" y="602.0" type="line"/>
      <point x="504.66666666666663" y="610.6666666666666"/>
      <point x="500.66666666666663" y="617.6666666666666"/>
      <point x="494" y="623" type="curve"/>
      <point x="493" y="623" type="line"/>
      <point x="379.0" y="696.0" type="line"/>
      <point x="378.3333333333333" y="696.0"/>
      <point x="376.3333333333333" y="697.0"/>
      <point x="373.0" y="699.0" type="curve"/>
      <point x="371.66666666666663" y="699.0"/>
      <point x="369.3333333333333" y="699.3333333333333"/>
      <point x="366.0" y="700.0" type="curve"/>
      <point x="365.3333333333333" y="700.0"/>
      <point x="267.66666666666663" y="700.0"/>
      <point x="73" y="700" type="curve" smooth="yes"/>
      <point x="71.0" y="700.0" type="line"/>
      <point x="56.33333333333333" y="698.0"/>
      <point x="48.0" y="689.6666666666666"/>
      <point x="46" y="675" type="curve"/>
      <point x="46.0" y="25.0" type="line"/>
      <point x="48.0" y="10.333333333333332"/>
      <point x="56.33333333333333" y="2.0"/>
      <point x="71" y="0" type="curve"/>
      <point x="394.0" y="0.0" type="line"/>
      <point x="398.66666666666663" y="0.6666666666666666"/>
      <point x="403.0" y="1.6666666666666665"/>
    </contour>
    <contour>
      <point x="136" y="106" type="curve"/>
      <point x="136.0" y="297.0" type="line"/>
      <point x="136.66666666666666" y="299.66666666666663"/>
      <point x="137.33333333333331" y="302.0"/>
      <point x="138.0" y="304.0" type="curve"/>
      <point x="140.66666666666666" y="307.3333333333333"/>
      <point x="144.0" y="310.0"/>
      <point x="148" y="312" type="curve"/>
      <point x="152.0" y="312.0" type="line" smooth="yes"/>
      <point x="298.6666666666667" y="312.0"/>
      <point x="373.66666666666663" y="312.0"/>
      <point x="377.0" y="312.0" type="curve"/>
      <point x="403.66666666666663" y="300.66666666666663"/>
      <point x="428.3333333333333" y="286.0"/>
      <point x="451.0" y="268.0" type="curve"/>
      <point x="453.66666666666663" y="264.66666666666663"/>
      <point x="455.3333333333333" y="261.0"/>
      <point x="456" y="257" type="curve"/>
      <point x="456.0" y="145.0" type="line"/>
      <point x="455.3333333333333" y="142.33333333333331"/>
      <point x="454.66666666666663" y="139.66666666666666"/>
      <point x="454" y="137" type="curve"/>
      <point x="451.0" y="134.0" type="line"/>
      <point x="448.99999999999994" y="132.66666666666666"/>
      <point x="425.33333333333326" y="118.66666666666666"/>
      <point x="380" y="92" type="curve"/>
      <point x="377.0" y="91.0" type="line"/>
      <point x="373.66666666666663" y="90.33333333333333"/>
      <point x="298.6666666666667" y="90.0"/>
      <point x="152.0" y="90.0" type="curve"/>
      <point x="142.66666666666663" y="91.33333333333331"/>
      <point x="137.33333333333331" y="96.66666666666667"/>
    </contour>
    <contour>
      <point x="136" y="403" type="curve"/>
      <point x="136.0" y="594.0" type="line"/>
      <point x="137.3333333333333" y="603.3333333333331"/>
      <point x="142.66666666666652" y="608.6666666666665"/>
      <point x="152" y="610" type="curve"/>
      <point x="342.0" y="610.0" type="line"/>
      <point x="344.66666666666663" y="609.3333333333333"/>
      <point x="347.3333333333333" y="608.6666666666666"/>
      <point x="350" y="608" type="curve"/>
      <point x="409.0" y="571.0" type="line"/>
      <point x="410.99999999999994" y="569.0"/>
      <point x="412.66666666666663" y="567.0"/>
      <point x="414" y="565" type="curve"/>
      <point x="416.0" y="561.0" type="line"/>
      <point x="416.0" y="558.3333333333333"/>
      <point x="416.0" y="518.0"/>
      <point x="416.0" y="440.0" type="curve"/>
      <point x="415.33333333333326" y="436.0"/>
      <point x="413.99999999999994" y="432.66666666666663"/>
      <point x="412" y="430" type="curve"/>
      <point x="409.0" y="427.0" type="line"/>
      <point x="369.66666666666663" y="402.3333333333333"/>
      <point x="348.66666666666663" y="389.3333333333333"/>
      <point x="346" y="388" type="curve"/>
      <point x="342" y="388" type="line"/>
      <point x="179" y="388" type="line"/>
      <point x="152.0" y="388.0" type="line"/>
      <point x="147.33333333333331" y="388.66666666666663"/>
      <point x="143.66666666666666" y="390.0"/>
      <point x="141.0" y="392.0" type="curve"/>
      <point x="138.33333333333331" y="395.33333333333326"/>
      <point x="136.66666666666666" y="398.99999999999994"/>
    </contour>
  </outline>
</glyph>
<glyph name="C" format="2">
  <advance width="570"/>
  <unicode hex="0043"/>
  <outline>
    <contour>
      <point x="445" y="172" type="line"/>
      <point x="361.0" y="84.0" type="line" smooth="yes"/>
      <point x="359.0" y="82.0"/>
      <point x="356.66666666666663" y="80.66666666666666"/>
      <point x="354" y="80" type="curve" smooth="yes"/>
      <point x="350.0" y="79.0" type="line"/>
      <point x="270.0" y="79.0"/>
      <point x="228.66666666666663" y="79.33333333333333"/>
      <point x="226" y="80" type="curve" smooth="yes"/>
      <point x="222.0" y="81.0" type="line"/>
      <point x="220.0" y="83.0"/>
      <point x="190.66666666666666" y="113.33333333333333"/>
      <point x="134.0" y="172.0" type="curve"/>
      <point x="132.0" y="175.33333333333331"/>
      <point x="130.66666666666666" y="179.0"/>
      <point x="130" y="183" type="curve"/>
      <point x="130.0" y="517.0" type="line"/>
      <point x="130.66666666666666" y="519.6666666666666"/>
      <point x="131.33333333333331" y="522.3333333333333"/>
      <point x="132" y="525" type="curve"/>
      <point x="134.0" y="528.0" type="line"/>
      <point x="190.66666666666666" y="586.6666666666666"/>
      <point x="220.0" y="617.0"/>
      <point x="222" y="619" type="curve"/>
      <point x="226.0" y="620.0" type="line" smooth="yes"/>
      <point x="228.66666666666663" y="620.6666666666666"/>
      <point x="270.0" y="621.0"/>
      <point x="350.0" y="621.0" type="curve"/>
      <point x="352.66666666666663" y="620.3333333333333"/>
      <point x="355.3333333333333" y="619.6666666666666"/>
      <point x="358.0" y="619.0" type="curve"/>
      <point x="360.0" y="617.0"/>
      <point x="389.0" y="586.6666666666666"/>
      <point x="445" y="528" type="curve"/>
      <point x="446.0" y="528.0" type="line"/>
      <point x="451.33333333333326" y="523.3333333333333"/>
      <point x="457.33333333333326" y="520.6666666666666"/>
      <point x="464" y="520" type="curve"/>
      <point x="515.0" y="520.0" type="line"/>
      <point x="529.6666666666666" y="522.0"/>
      <point x="538.0" y="530.3333333333333"/>
      <point x="540" y="545" type="curve"/>
      <point x="540.0" y="549.0" type="line"/>
      <point x="539.3333333333333" y="555.6666666666666"/>
      <point x="537.0" y="561.6666666666666"/>
      <point x="533" y="567" type="curve"/>
      <point x="402.0" y="703.0" type="line"/>
      <point x="396.66666666666663" y="707.6666666666666"/>
      <point x="390.66666666666663" y="710.3333333333333"/>
      <point x="384" y="711" type="curve"/>
      <point x="196.0" y="711.0" type="line"/>
      <point x="189.33333333333331" y="710.3333333333333"/>
      <point x="183.33333333333331" y="707.6666666666666"/>
      <point x="178" y="703" type="curve"/>
      <point x="47.0" y="567.0" type="line"/>
      <point x="43.0" y="561.6666666666666"/>
      <point x="40.666666666666664" y="555.6666666666666"/>
      <point x="40" y="549" type="curve"/>
      <point x="40.0" y="151.0" type="line"/>
      <point x="40.666666666666664" y="144.33333333333331"/>
      <point x="43.0" y="138.33333333333331"/>
      <point x="47" y="133" type="curve"/>
      <point x="178.0" y="-3.0" type="line"/>
      <point x="183.33333333333331" y="-7.666666666666666"/>
      <point x="189.33333333333331" y="-10.333333333333332"/>
      <point x="196" y="-11" type="curve"/>
      <point x="384.0" y="-11.0" type="line"/>
      <point x="390.66666666666663" y="-10.333333333333332"/>
      <point x="396.66666666666663" y="-7.666666666666666"/>
      <point x="402" y="-3" type="curve"/>
      <point x="533.0" y="133.0" type="line"/>
      <point x="537.0" y="138.33333333333331"/>
      <point x="539.3333333333333" y="144.33333333333331"/>
      <point x="540" y="151" type="curve"/>
      <point x="540.0" y="155.0" type="line"/>
      <point x="538.0" y="169.66666666666666"/>
      <point x="529.6666666666666" y="178.0"/>
      <point x="515" y="180" type="curve"/>
      <point x="464.0" y="180.0" type="line"/>
      <point x="457.33333333333326" y="179.33333333333331"/>
      <point x="451.33333333333326" y="176.66666666666666"/>
      <point x="446" y="172" type="curve"/>
    </contour>
  </outline>
</glyph>
<glyph name="D" format="2">
  <advance width="586"/>
  <unicode hex="0044"/>
  <outline>
    <contour>
      <point x="391" y="700" type="curve"/>
      <point x="71.0" y="700.0" type="line"/>
      <point x="56.33333333333333" y="698.0"/>
      <point x="48.0" y="689.6666666666666"/>
      <point x="46" y="675" type="curve"/>
      <point x="46.0" y="25.0" type="line"/>
      <point x="48.0" y="10.333333333333332"/>
      <point x="56.33333333333333" y="2.0"/>
      <point x="71" y="0" type="curve"/>
      <point x="391.0" y="0.0" type="line"/>
      <point x="396.99999999999994" y="0.6666666666666666"/>
      <point x="402.66666666666663" y="3.0"/>
      <point x="408" y="7" type="curve"/>
      <point x="539.0" y="140.0" type="line"/>
      <point x="543.0" y="145.33333333333331"/>
      <point x="545.3333333333333" y="151.0"/>
      <point x="546" y="157" type="curve"/>
      <point x="546.0" y="543.0" type="line"/>
      <point x="545.3333333333333" y="549.0"/>
      <point x="543.0" y="554.6666666666666"/>
      <point x="539" y="560" type="curve"/>
      <point x="408.0" y="693.0" type="line"/>
      <point x="402.66666666666663" y="697.0"/>
      <point x="396.99999999999994" y="699.3333333333333"/>
    </contour>
    <contour>
      <point x="136" y="106" type="curve"/>
      <point x="136.0" y="594.0" type="line"/>
      <point x="136.66666666666666" y="596.6666666666666"/>
      <point x="137.33333333333331" y="599.3333333333333"/>
      <point x="138.0" y="602.0" type="curve"/>
      <point x="140.66666666666666" y="605.3333333333333"/>
      <point x="144.0" y="607.6666666666666"/>
      <point x="148" y="609" type="curve"/>
      <point x="152.0" y="610.0" type="line"/>
      <point x="288.6666666666667" y="610.0"/>
      <point x="358.3333333333333" y="609.6666666666666"/>
      <point x="361" y="609" type="curve" smooth="yes"/>
      <point x="365.0" y="608.0" type="line"/>
      <point x="367.0" y="606.0"/>
      <point x="396.0" y="577.0"/>
      <point x="452.0" y="521.0" type="curve"/>
      <point x="454.0" y="517.6666666666666"/>
      <point x="455.3333333333333" y="514.0"/>
      <point x="456" y="510" type="curve"/>
      <point x="456.0" y="190.0" type="line"/>
      <point x="455.3333333333333" y="187.33333333333331"/>
      <point x="454.66666666666663" y="185.0"/>
      <point x="454" y="183" type="curve"/>
      <point x="452.0" y="179.0" type="line"/>
      <point x="396.0" y="123.0"/>
      <point x="367.0" y="94.0"/>
      <point x="365" y="92" type="curve"/>
      <point x="361.0" y="91.0" type="line" smooth="yes"/>
      <point x="358.3333333333333" y="90.33333333333333"/>
      <point x="288.6666666666667" y="90.0"/>
      <point x="152.0" y="90.0" type="curve"/>
      <point x="142.66666666666663" y="91.33333333333331"/>
      <point x="137.33333333333331" y="96.66666666666667"/>
    </contour>
  </outline>
</glyph>
<glyph name="E" format="2">
  <advance width="536"/>
  <unicode hex="0045"/>
  <outline>
    <contour>
      <point x="479" y="90" type="line"/>
      <point x="152.0" y="90.0" type="line"/>
      <point x="149.33333333333331" y="90.66666666666666"/>
      <point x="146.66666666666666" y="91.33333333333333"/>
      <point x="144.0" y="92.0" type="curve"/>
      <point x="139.33333333333331" y="95.33333333333331"/>
      <point x="136.66666666666666" y="99.99999999999999"/>
      <point x="136.0" y="106.0" type="curve"/>
      <point x="136.0" y="228.0"/>
      <point x="136.33333333333331" y="290.3333333333333"/>
      <point x="137.0" y="293.0" type="curve" smooth="yes"/>
      <point x="138.33333333333331" y="298.33333333333326"/>
      <point x="142.66666666666663" y="302.66666666666663"/>
      <point x="148" y="304" type="curve" smooth="yes"/>
      <point x="152" y="305" type="line"/>
      <point x="429" y="305" type="line"/>
      <point x="431.0" y="305.0" type="line"/>
      <point x="445.66666666666663" y="307.0"/>
      <point x="454.0" y="315.3333333333333"/>
      <point x="456" y="330" type="curve"/>
      <point x="456.0" y="370.0" type="line"/>
      <point x="454.0" y="384.66666666666663"/>
      <point x="445.66666666666663" y="393.0"/>
      <point x="431" y="395" type="curve"/>
      <point x="429" y="395" type="line"/>
      <point x="152.0" y="395.0" type="line"/>
      <point x="149.33333333333331" y="395.66666666666663"/>
      <point x="146.66666666666666" y="396.3333333333333"/>
      <point x="144.0" y="397.0" type="curve"/>
      <point x="139.33333333333331" y="400.3333333333333"/>
      <point x="136.66666666666666" y="405.0"/>
      <point x="136.0" y="411.0" type="curve"/>
      <point x="136.0" y="533.0"/>
      <point x="136.33333333333331" y="595.3333333333333"/>
      <point x="137.0" y="598.0" type="curve" smooth="yes"/>
      <point x="138.33333333333331" y="603.3333333333333"/>
      <point x="142.66666666666663" y="607.6666666666665"/>
      <point x="148" y="609" type="curve" smooth="yes"/>
      <point x="152" y="610" type="line"/>
      <point x="479" y="610" type="line"/>
      <point x="481.0" y="610.0" type="line"/>
      <point x="495.66666666666663" y="612.0"/>
      <point x="504.0" y="620.3333333333333"/>
      <point x="506" y="635" type="curve"/>
      <point x="506.0" y="675.0" type="line"/>
      <point x="504.0" y="689.6666666666666"/>
      <point x="495.66666666666663" y="698.0"/>
      <point x="481" y="700" type="curve"/>
      <point x="71.0" y="700.0" type="line"/>
      <point x="56.33333333333333" y="698.0"/>
      <point x="48.0" y="689.6666666666666"/>
      <point x="46" y="675" type="curve"/>
      <point x="46.0" y="25.0" type="line"/>
      <point x="48.0" y="10.333333333333332"/>
      <point x="56.33333333333333" y="2.0"/>
      <point x="71" y="0" type="curve"/>
      <point x="481.0" y="0.0" type="line"/>
      <point x="495.66666666666663" y="2.0"/>
      <point x="504.0" y="10.333333333333332"/>
      <point x="506" y="25" type="curve"/>
      <point x="506.0" y="65.0" type="line"/>
      <point x="504.0" y="79.66666666666666"/>
      <point x="495.66666666666663" y="88.0"/>
      <point x="481" y="90" type="curve"/>
    </contour>
  </outline>
</glyph>
<glyph name="G" format="2">
  <advance width="570"/>
  <unicode hex="0047"/>
  <outline>
    <contour>
      <point x="327" y="305" type="line" smooth="yes"/>
      <point x="398.3333333333333" y="305.0"/>
      <point x="435.3333333333333" y="304.66666666666663"/>
      <point x="438.0" y="304.0" type="curve" smooth="yes"/>
      <point x="443.3333333333332" y="302.66666666666663"/>
      <point x="447.6666666666665" y="298.3333333333333"/>
      <point x="449.0" y="293.0" type="curve" smooth="yes"/>
      <point x="449.66666666666663" y="290.3333333333333"/>
      <point x="450.0" y="253.66666666666666"/>
      <point x="450.0" y="183.0" type="curve"/>
      <point x="449.3333333333333" y="180.33333333333331"/>
      <point x="448.66666666666663" y="177.66666666666666"/>
      <point x="448.0" y="175.0" type="curve"/>
      <point x="446.66666666666663" y="173.0"/>
      <point x="417.66666666666663" y="142.66666666666666"/>
      <point x="361.0" y="84.0" type="curve" smooth="yes"/>
      <point x="359.0" y="82.0"/>
      <point x="356.66666666666663" y="80.66666666666666"/>
      <point x="354.0" y="80.0" type="curve" smooth="yes"/>
      <point x="351.3333333333333" y="79.33333333333333"/>
      <point x="310.0" y="79.0"/>
      <point x="230.0" y="79.0" type="curve"/>
      <point x="227.33333333333331" y="79.66666666666666"/>
      <point x="224.66666666666666" y="80.33333333333333"/>
      <point x="222.0" y="81.0" type="curve"/>
      <point x="220.0" y="83.0"/>
      <point x="190.66666666666666" y="113.33333333333333"/>
      <point x="134.0" y="172.0" type="curve"/>
      <point x="132.66666666666666" y="174.0"/>
      <point x="131.66666666666666" y="176.33333333333331"/>
      <point x="131" y="179" type="curve" smooth="yes"/>
      <point x="130" y="183" type="line"/>
      <point x="130.0" y="517.0" type="line"/>
      <point x="130.66666666666666" y="519.6666666666666"/>
      <point x="131.33333333333331" y="522.3333333333333"/>
      <point x="132.0" y="525.0" type="curve"/>
      <point x="133.33333333333331" y="527.0"/>
      <point x="162.33333333333331" y="557.3333333333333"/>
      <point x="219.0" y="616.0" type="curve" smooth="yes"/>
      <point x="221.0" y="618.0"/>
      <point x="223.33333333333331" y="619.3333333333333"/>
      <point x="226.0" y="620.0" type="curve" smooth="yes"/>
      <point x="228.66666666666663" y="620.6666666666666"/>
      <point x="311.66666666666663" y="621.0"/>
      <point x="475" y="621" type="curve" smooth="yes"/>
      <point x="477.0" y="621.0" type="line"/>
      <point x="491.66666666666663" y="623.0"/>
      <point x="499.99999999999994" y="631.3333333333333"/>
      <point x="502" y="646" type="curve"/>
      <point x="502.0" y="686.0" type="line"/>
      <point x="499.99999999999994" y="700.6666666666666"/>
      <point x="491.66666666666663" y="709.0"/>
      <point x="477" y="711" type="curve"/>
      <point x="196.0" y="711.0" type="line"/>
      <point x="189.33333333333331" y="710.3333333333333"/>
      <point x="183.33333333333331" y="707.6666666666666"/>
      <point x="178" y="703" type="curve"/>
      <point x="47.0" y="567.0" type="line"/>
      <point x="43.0" y="561.6666666666666"/>
      <point x="40.666666666666664" y="555.6666666666666"/>
      <point x="40" y="549" type="curve"/>
      <point x="40.0" y="151.0" type="line"/>
      <point x="40.666666666666664" y="144.33333333333331"/>
      <point x="43.0" y="138.33333333333331"/>
      <point x="47" y="133" type="curve"/>
      <point x="178.0" y="-3.0" type="line"/>
      <point x="183.33333333333331" y="-7.666666666666666"/>
      <point x="189.33333333333331" y="-10.333333333333332"/>
      <point x="196" y="-11" type="curve"/>
      <point x="384.0" y="-11.0" type="line"/>
      <point x="390.66666666666663" y="-10.333333333333332"/>
      <point x="396.66666666666663" y="-7.666666666666666"/>
      <point x="402" y="-3" type="curve"/>
      <point x="533.0" y="133.0" type="line"/>
      <point x="537.0" y="138.33333333333331"/>
      <point x="539.3333333333333" y="144.33333333333331"/>
      <point x="540" y="151" type="curve"/>
      <point x="540.0" y="370.0" type="line"/>
      <point x="538.0" y="384.66666666666663"/>
      <point x="529.6666666666666" y="393.0"/>
      <point x="515" y="395" type="curve"/>
      <point x="325.0" y="395.0" type="line"/>
      <point x="310.3333333333333" y="393.0"/>
      <point x="302.0" y="384.66666666666663"/>
      <point x="300" y="370" type="curve"/>
      <point x="300.0" y="330.0" type="line"/>
      <point x="302.0" y="315.3333333333333"/>
      <point x="310.3333333333333" y="307.0"/>
      <point x="325" y="305" type="curve"/>
    </contour>
  </outline>
</glyph>
<glyph name="H" format="2">
  <advance width="592"/>
  <unicode hex="0048"/>
  <outline>
    <contour>
      <point x="136" y="27" type="line"/>
      <point x="136.0" y="289.0" type="line"/>
      <point x="136.66666666666666" y="291.66666666666663"/>
      <point x="137.33333333333331" y="294.3333333333333"/>
      <point x="138.0" y="297.0" type="curve"/>
      <point x="141.33333333333331" y="301.66666666666663"/>
      <point x="146.0" y="304.3333333333333"/>
      <point x="152" y="305" type="curve"/>
      <point x="440" y="305" type="line"/>
      <point x="444.0" y="304.0" type="line" smooth="yes"/>
      <point x="449.3333333333332" y="302.66666666666663"/>
      <point x="453.6666666666665" y="298.3333333333333"/>
      <point x="455" y="293" type="curve" smooth="yes"/>
      <point x="456" y="289" type="line"/>
      <point x="456" y="27" type="line"/>
      <point x="456.0" y="25.0" type="line"/>
      <point x="458.0" y="10.333333333333332"/>
      <point x="466.3333333333333" y="2.0"/>
      <point x="481" y="0" type="curve"/>
      <point x="521.0" y="0.0" type="line"/>
      <point x="535.6666666666666" y="2.0"/>
      <point x="544.0" y="10.333333333333332"/>
      <point x="546" y="25" type="curve"/>
      <point x="546.0" y="675.0" type="line"/>
      <point x="544.0" y="689.6666666666666"/>
      <point x="535.6666666666666" y="698.0"/>
      <point x="521" y="700" type="curve"/>
      <point x="481.0" y="700.0" type="line"/>
      <point x="466.3333333333333" y="698.0"/>
      <point x="458.0" y="689.6666666666666"/>
      <point x="456" y="675" type="curve"/>
      <point x="456" y="673" type="line"/>
      <point x="456.0" y="411.0" type="line"/>
      <point x="455.3333333333333" y="408.3333333333333"/>
      <point x="454.66666666666663" y="405.66666666666663"/>
      <point x="454.0" y="403.0" type="curve"/>
      <point x="450.66666666666663" y="398.3333333333333"/>
      <point x="446.0" y="395.66666666666663"/>
      <point x="440" y="395" type="curve"/>
      <point x="152" y="395" type="line"/>
      <point x="148.0" y="396.0" type="line" smooth="yes"/>
      <point x="142.6666666666667" y="397.33333333333326"/>
      <point x="138.33333333333334" y="401.66666666666646"/>
      <point x="137" y="407" type="curve" smooth="yes"/>
      <point x="136" y="411" type="line"/>
      <point x="136" y="673" type="line"/>
      <point x="136.0" y="675.0" type="line"/>
      <point x="134.0" y="689.6666666666666"/>
      <point x="125.66666666666666" y="698.0"/>
      <point x="111" y="700" type="curve"/>
      <point x="71.0" y="700.0" type="line"/>
      <point x="56.33333333333333" y="698.0"/>
      <point x="48.0" y="689.6666666666666"/>
      <point x="46" y="675" type="curve"/>
      <point x="46.0" y="25.0" type="line"/>
      <point x="48.0" y="10.333333333333332"/>
      <point x="56.33333333333333" y="2.0"/>
      <point x="71" y="0" type="curve"/>
      <point x="111.0" y="0.0" type="line"/>
      <point x="125.66666666666666" y="2.0"/>
      <point x="134.0" y="10.333333333333332"/>
      <point x="136" y="25" type="curve"/>
    </contour>
  </outline>
</glyph>
<glyph name="I" format="2">
  <advance width="182"/>
  <unicode hex="0049"/>
  <outline>
    <contour>
      <point x="136" y="25" type="curve"/>
      <point x="136.0" y="675.0" type="line"/>
      <point x="134.0" y="689.6666666666666"/>
      <point x="125.66666666666666" y="698.0"/>
      <point x="111" y="700" type="curve"/>
      <point x="71.0" y="700.0" type="line"/>
      <point x="56.33333333333333" y="698.0"/>
      <point x="48.0" y="689.6666666666666"/>
      <point x="46" y="675" type="curve"/>
      <point x="46.0" y="25.0" type="line"/>
      <point x="48.0" y="10.333333333333332"/>
      <point x="56.33333333333333" y="2.0"/>
      <point x="71" y="0" type="curve"/>
      <point x="111.0" y="0.0" type="line"/>
      <point x="125.66666666666666" y="2.0"/>
      <point x="134.0" y="10.333333333333332"/>
    </contour>
  </outline>
</glyph>
<glyph name="J" format="2">
  <advance width="504"/>
  <unicode hex="004A"/>
  <outline>
    <contour>
      <point x="368" y="673" type="line" smooth="yes"/>
      <point x="368.0" y="319.66666666666663"/>
      <point x="368.0" y="141.66666666666666"/>
      <point x="368.0" y="139.0" type="curve"/>
      <point x="366.66666666666663" y="137.0"/>
      <point x="365.3333333333333" y="135.0"/>
      <point x="364.0" y="133.0" type="curve"/>
      <point x="362.0" y="131.0"/>
      <point x="343.66666666666663" y="117.66666666666666"/>
      <point x="309.0" y="93.0" type="curve"/>
      <point x="305.66666666666663" y="91.66666666666666"/>
      <point x="302.66666666666663" y="90.66666666666666"/>
      <point x="300.0" y="90.0" type="curve"/>
      <point x="224.0" y="90.0"/>
      <point x="184.66666666666666" y="90.33333333333333"/>
      <point x="182.0" y="91.0" type="curve"/>
      <point x="178.66666666666666" y="92.33333333333333"/>
      <point x="159.66666666666666" y="105.33333333333333"/>
      <point x="125.0" y="130.0" type="curve"/>
      <point x="123.0" y="132.0"/>
      <point x="121.33333333333333" y="134.0"/>
      <point x="120.0" y="136.0" type="curve"/>
      <point x="118.66666666666666" y="138.66666666666666"/>
      <point x="117.99999999999999" y="154.33333333333331"/>
      <point x="118" y="183" type="curve" smooth="yes"/>
      <point x="118.0" y="185.0" type="line"/>
      <point x="115.99999999999999" y="199.66666666666666"/>
      <point x="107.66666666666666" y="208.0"/>
      <point x="93" y="210" type="curve"/>
      <point x="53.0" y="210.0" type="line"/>
      <point x="38.33333333333333" y="208.0"/>
      <point x="29.999999999999996" y="199.66666666666666"/>
      <point x="28" y="185" type="curve"/>
      <point x="28.0" y="101.0" type="line"/>
      <point x="29.333333333333332" y="93.0"/>
      <point x="33.0" y="86.33333333333333"/>
      <point x="39" y="81" type="curve"/>
      <point x="39" y="80" type="line"/>
      <point x="145.0" y="5.0" type="line"/>
      <point x="145.66666666666666" y="5.0"/>
      <point x="148.0" y="3.9999999999999996"/>
      <point x="152.0" y="2.0" type="curve" smooth="yes"/>
      <point x="154.66666666666666" y="0.6666666666666665"/>
      <point x="158.0" y="0.0"/>
      <point x="162" y="0" type="curve" smooth="yes"/>
      <point x="324.0" y="0.0" type="line" smooth="yes"/>
      <point x="325.3333333333333" y="0.0"/>
      <point x="328.0" y="0.33333333333333326"/>
      <point x="332.0" y="1.0" type="curve"/>
      <point x="333.3333333333333" y="1.6666666666666665"/>
      <point x="336.0" y="3.0"/>
      <point x="340.0" y="5.0" type="curve"/>
      <point x="340.66666666666663" y="5.0"/>
      <point x="376.3333333333333" y="30.0"/>
      <point x="447" y="80" type="curve"/>
      <point x="447.0" y="81.0" type="line"/>
      <point x="453.0" y="86.33333333333333"/>
      <point x="456.66666666666663" y="93.0"/>
      <point x="458" y="101" type="curve"/>
      <point x="458.0" y="675.0" type="line"/>
      <point x="456.0" y="689.6666666666666"/>
      <point x="447.66666666666663" y="698.0"/>
      <point x="433" y="700" type="curve"/>
      <point x="393.0" y="700.0" type="line"/>
      <point x="378.3333333333333" y="698.0"/>
      <point x="370.0" y="689.6666666666666"/>
      <point x="368" y="675" type="curve"/>
    </contour>
  </outline>
</glyph>
<glyph name="K" format="2">
  <advance width="584"/>
  <unicode hex="004B"/>
  <outline>
    <contour>
      <point x="136" y="27" type="line" smooth="yes"/>
      <point x="136" y="180"/>
      <point x="136" y="258"/>
      <point x="136" y="261" type="curve"/>
      <point x="138" y="264"/>
      <point x="140" y="267"/>
      <point x="143" y="270" type="curve"/>
      <point x="147" y="272"/>
      <point x="151" y="273"/>
      <point x="155" y="272" type="curve"/>
      <point x="158" y="271" type="line" smooth="yes"/>
      <point x="161" y="270"/>
      <point x="264" y="182"/>
      <point x="469" y="7" type="curve"/>
      <point x="470" y="6" type="line"/>
      <point x="475" y="3"/>
      <point x="480" y="1"/>
      <point x="486" y="0" type="curve"/>
      <point x="487" y="0" type="line" smooth="yes"/>
      <point x="520" y="0"/>
      <point x="539" y="1"/>
      <point x="542" y="2" type="curve"/>
      <point x="547" y="4"/>
      <point x="553" y="8"/>
      <point x="558" y="14" type="curve"/>
      <point x="559" y="15" type="line"/>
      <point x="563" y="21"/>
      <point x="564" y="26"/>
      <point x="564" y="31" type="curve" smooth="yes"/>
      <point x="564" y="38"/>
      <point x="562" y="45"/>
      <point x="556" y="51" type="curve"/>
      <point x="555" y="51" type="line"/>
      <point x="331" y="242"/>
      <point x="218" y="339"/>
      <point x="217" y="341" type="curve" smooth="yes"/>
      <point x="216" y="343"/>
      <point x="215" y="345"/>
      <point x="214" y="348" type="curve"/>
      <point x="214" y="351"/>
      <point x="214" y="353"/>
      <point x="215" y="356" type="curve"/>
      <point x="217" y="359" type="line"/>
      <point x="218" y="361"/>
      <point x="331" y="458"/>
      <point x="555" y="649" type="curve"/>
      <point x="556" y="649" type="line"/>
      <point x="562" y="655"/>
      <point x="564" y="662"/>
      <point x="564" y="669" type="curve" smooth="yes"/>
      <point x="564" y="674"/>
      <point x="563" y="679"/>
      <point x="559" y="685" type="curve"/>
      <point x="558" y="686" type="line"/>
      <point x="554" y="691"/>
      <point x="550" y="694"/>
      <point x="547" y="696" type="curve"/>
      <point x="544" y="697"/>
      <point x="541" y="698"/>
      <point x="540" y="699" type="curve"/>
      <point x="536" y="700"/>
      <point x="518" y="700"/>
      <point x="487" y="700" type="curve" smooth="yes"/>
      <point x="486" y="700" type="line"/>
      <point x="480" y="699"/>
      <point x="475" y="697"/>
      <point x="470" y="694" type="curve"/>
      <point x="469" y="693" type="line"/>
      <point x="264" y="518"/>
      <point x="161" y="430"/>
      <point x="158" y="429" type="curve" smooth="yes"/>
      <point x="155" y="428"/>
      <point x="151" y="427"/>
      <point x="147" y="428" type="curve"/>
      <point x="143" y="430"/>
      <point x="140" y="432"/>
      <point x="138" y="435" type="curve"/>
      <point x="136" y="439" type="line"/>
      <point x="136" y="442"/>
      <point x="136" y="520"/>
      <point x="136" y="673" type="curve" smooth="yes"/>
      <point x="136" y="675" type="line"/>
      <point x="134" y="690"/>
      <point x="126" y="698"/>
      <point x="111" y="700" type="curve"/>
      <point x="71" y="700" type="line"/>
      <point x="56" y="698"/>
      <point x="48" y="690"/>
      <point x="46" y="675" type="curve"/>
      <point x="46" y="25" type="line"/>
      <point x="48" y="10"/>
      <point x="56" y="2"/>
      <point x="71" y="0" type="curve"/>
      <point x="111" y="0" type="line"/>
      <point x="126" y="2"/>
      <point x="134" y="10"/>
      <point x="136" y="25" type="curve"/>
    </contour>
  </outline>
</glyph>
<glyph name="L" format="2">
  <advance width="516"/>
  <unicode hex="004C"/>
  <outline>
    <contour>
      <point x="459" y="90" type="line"/>
      <point x="152" y="90" type="line"/>
      <point x="148.0" y="91.0" type="line" smooth="yes"/>
      <point x="142.66666666666663" y="92.33333333333331"/>
      <point x="138.33333333333331" y="96.66666666666666"/>
      <point x="137.0" y="102.0" type="curve" smooth="yes"/>
      <point x="136.33333333333331" y="104.66666666666666"/>
      <point x="136.0" y="295.0"/>
      <point x="136" y="673" type="curve" smooth="yes"/>
      <point x="136.0" y="675.0" type="line"/>
      <point x="134.0" y="689.6666666666666"/>
      <point x="125.66666666666666" y="698.0"/>
      <point x="111" y="700" type="curve"/>
      <point x="71.0" y="700.0" type="line"/>
      <point x="56.33333333333333" y="698.0"/>
      <point x="48.0" y="689.6666666666666"/>
      <point x="46" y="675" type="curve"/>
      <point x="46.0" y="25.0" type="line"/>
      <point x="48.0" y="10.333333333333332"/>
      <point x="56.33333333333333" y="2.0"/>
      <point x="71" y="0" type="curve"/>
      <point x="461.0" y="0.0" type="line"/>
      <point x="475.66666666666663" y="2.0"/>
      <point x="484.0" y="10.333333333333332"/>
      <point x="486" y="25" type="curve"/>
      <point x="486.0" y="65.0" type="line"/>
      <point x="484.0" y="79.66666666666666"/>
      <point x="475.66666666666663" y="88.0"/>
      <point x="461" y="90" type="curve"/>
    </contour>
  </outline>
</glyph>
<glyph name="M" format="2">
  <advance width="592"/>
  <unicode hex="004D"/>
  <outline>
    <contour>
      <point x="519" y="700" type="line" smooth="yes"/>
      <point x="485.66666666666663" y="700.0"/>
      <point x="466.66666666666663" y="699.6666666666666"/>
      <point x="462.0" y="699.0" type="curve"/>
      <point x="458.0" y="697.6666666666666"/>
      <point x="454.0" y="695.3333333333333"/>
      <point x="450.0" y="692.0" type="curve"/>
      <point x="448.66666666666663" y="690.6666666666666"/>
      <point x="446.99999999999994" y="688.3333333333333"/>
      <point x="445.0" y="685.0" type="curve"/>
      <point x="444.99999999999994" y="684.3333333333333"/>
      <point x="399.99999999999994" y="583.0"/>
      <point x="310.0" y="381.0" type="curve"/>
      <point x="307.3333333333333" y="376.3333333333333"/>
      <point x="303.3333333333333" y="373.3333333333333"/>
      <point x="298.0" y="372.0" type="curve"/>
      <point x="292.66666666666663" y="372.0"/>
      <point x="288.0" y="374.0"/>
      <point x="284" y="378" type="curve"/>
      <point x="282" y="381" type="line"/>
      <point x="147.0" y="684.0" type="line"/>
      <point x="147.0" y="684.6666666666666"/>
      <point x="146.0" y="686.6666666666666"/>
      <point x="144.0" y="690.0" type="curve"/>
      <point x="140.66666666666666" y="693.3333333333333"/>
      <point x="136.66666666666666" y="696.0"/>
      <point x="132.0" y="698.0" type="curve" smooth="yes"/>
      <point x="128.66666666666666" y="699.3333333333333"/>
      <point x="108.99999999999999" y="700.0"/>
      <point x="73" y="700" type="curve" smooth="yes"/>
      <point x="71.0" y="700.0" type="line"/>
      <point x="56.33333333333333" y="698.0"/>
      <point x="48.0" y="689.6666666666666"/>
      <point x="46" y="675" type="curve"/>
      <point x="46.0" y="25.0" type="line"/>
      <point x="48.0" y="10.333333333333332"/>
      <point x="56.33333333333333" y="2.0"/>
      <point x="71" y="0" type="curve"/>
      <point x="111.0" y="0.0" type="line"/>
      <point x="125.66666666666666" y="2.0"/>
      <point x="134.0" y="10.333333333333332"/>
      <point x="136" y="25" type="curve"/>
      <point x="136" y="27" type="line"/>
      <point x="136.0" y="414.0" type="line"/>
      <point x="136.66666666666666" y="416.66666666666663"/>
      <point x="137.33333333333331" y="419.33333333333326"/>
      <point x="138.0" y="422.0" type="curve"/>
      <point x="140.66666666666666" y="425.33333333333326"/>
      <point x="144.0" y="427.66666666666663"/>
      <point x="148.0" y="429.0" type="curve"/>
      <point x="152.66666666666666" y="429.66666666666663"/>
      <point x="157.0" y="428.99999999999994"/>
      <point x="161" y="427" type="curve"/>
      <point x="164.0" y="424.0" type="line"/>
      <point x="165.33333333333331" y="421.3333333333333"/>
      <point x="192.0" y="361.3333333333333"/>
      <point x="244" y="244" type="curve"/>
      <point x="245.0" y="243.0" type="line"/>
      <point x="252.33333333333331" y="230.33333333333331"/>
      <point x="263.3333333333333" y="225.99999999999997"/>
      <point x="278" y="230" type="curve"/>
      <point x="279.0" y="231.0" type="line"/>
      <point x="286.3333333333333" y="233.66666666666666"/>
      <point x="291.3333333333333" y="235.33333333333331"/>
      <point x="294.0" y="236.0" type="curve"/>
      <point x="298.0" y="235.99999999999997"/>
      <point x="304.3333333333333" y="234.33333333333331"/>
      <point x="313" y="231" type="curve"/>
      <point x="314.0" y="230.0" type="line"/>
      <point x="328.66666666666663" y="225.99999999999997"/>
      <point x="339.66666666666663" y="230.33333333333331"/>
      <point x="347" y="243" type="curve"/>
      <point x="348" y="244" type="line"/>
      <point x="426.0" y="420.0" type="line" smooth="yes"/>
      <point x="427.3333333333333" y="422.66666666666663"/>
      <point x="429.0" y="424.99999999999994"/>
      <point x="431.0" y="427.0" type="curve"/>
      <point x="435.0" y="428.99999999999994"/>
      <point x="439.3333333333333" y="429.66666666666663"/>
      <point x="444.0" y="429.0" type="curve"/>
      <point x="448.0" y="427.66666666666663"/>
      <point x="451.3333333333333" y="425.33333333333326"/>
      <point x="454" y="422" type="curve"/>
      <point x="455.0" y="418.0" type="line" smooth="yes"/>
      <point x="455.66666666666663" y="415.3333333333333"/>
      <point x="456.0" y="285.0"/>
      <point x="456" y="27" type="curve" smooth="yes"/>
      <point x="456.0" y="25.0" type="line"/>
      <point x="458.0" y="10.333333333333332"/>
      <point x="466.3333333333333" y="2.0"/>
      <point x="481" y="0" type="curve"/>
      <point x="521.0" y="0.0" type="line"/>
      <point x="535.6666666666666" y="2.0"/>
      <point x="544.0" y="10.333333333333332"/>
      <point x="546" y="25" type="curve"/>
      <point x="546.0" y="675.0" type="line"/>
      <point x="544.0" y="689.6666666666666"/>
      <point x="535.6666666666666" y="698.0"/>
      <point x="521" y="700" type="curve"/>
    </contour>
  </outline>
</glyph>
<glyph name="N" format="2">
  <advance width="592"/>
  <unicode hex="004E"/>
  <outline>
    <contour>
      <point x="71" y="0" type="curve"/>
      <point x="111.0" y="0.0" type="line"/>
      <point x="125.66666666666666" y="2.0"/>
      <point x="134.0" y="10.333333333333332"/>
      <point x="136" y="25" type="curve"/>
      <point x="136" y="27" type="line"/>
      <point x="136.0" y="472.0" type="line"/>
      <point x="136.66666666666666" y="474.66666666666663"/>
      <point x="137.33333333333331" y="477.3333333333333"/>
      <point x="138.0" y="480.0" type="curve"/>
      <point x="140.66666666666666" y="483.3333333333333"/>
      <point x="144.0" y="485.66666666666663"/>
      <point x="148.0" y="487.0" type="curve"/>
      <point x="152.0" y="487.66666666666663"/>
      <point x="155.66666666666666" y="487.3333333333333"/>
      <point x="159" y="486" type="curve"/>
      <point x="163.0" y="483.0" type="line"/>
      <point x="164.33333333333331" y="481.0"/>
      <point x="256.0" y="324.3333333333333"/>
      <point x="438" y="13" type="curve"/>
      <point x="439.0" y="12.0" type="line"/>
      <point x="444.3333333333333" y="5.333333333333333"/>
      <point x="451.66666666666663" y="1.3333333333333333"/>
      <point x="461" y="0" type="curve"/>
      <point x="521.0" y="0.0" type="line"/>
      <point x="535.6666666666666" y="2.0"/>
      <point x="544.0" y="10.333333333333332"/>
      <point x="546" y="25" type="curve"/>
      <point x="546.0" y="675.0" type="line"/>
      <point x="544.0" y="689.6666666666666"/>
      <point x="535.6666666666666" y="698.0"/>
      <point x="521" y="700" type="curve"/>
      <point x="481.0" y="700.0" type="line"/>
      <point x="466.3333333333333" y="698.0"/>
      <point x="458.0" y="689.6666666666666"/>
      <point x="456" y="675" type="curve"/>
      <point x="456" y="673" type="line"/>
      <point x="456.0" y="228.0" type="line"/>
      <point x="455.3333333333333" y="225.33333333333331"/>
      <point x="454.66666666666663" y="222.66666666666663"/>
      <point x="454.0" y="220.0" type="curve"/>
      <point x="451.3333333333333" y="216.66666666666663"/>
      <point x="448.0" y="214.33333333333331"/>
      <point x="444.0" y="213.0" type="curve"/>
      <point x="440.0" y="212.33333333333331"/>
      <point x="436.3333333333333" y="212.66666666666663"/>
      <point x="433" y="214" type="curve"/>
      <point x="429.0" y="217.0" type="line"/>
      <point x="427.66666666666663" y="219.0"/>
      <point x="335.99999999999994" y="375.66666666666663"/>
      <point x="154" y="687" type="curve"/>
      <point x="153.0" y="688.0" type="line"/>
      <point x="147.66666666666666" y="694.6666666666666"/>
      <point x="140.33333333333331" y="698.6666666666666"/>
      <point x="131" y="700" type="curve"/>
      <point x="71.0" y="700.0" type="line"/>
      <point x="56.33333333333333" y="698.0"/>
      <point x="48.0" y="689.6666666666666"/>
      <point x="46" y="675" type="curve"/>
      <point x="46.0" y="25.0" type="line"/>
      <point x="48.0" y="10.333333333333332"/>
      <point x="56.33333333333333" y="2.0"/>
    </contour>
  </outline>
</glyph>
<glyph name="O" format="2">
  <advance width="580"/>
  <unicode hex="004F"/>
  <outline>
    <contour>
      <point x="384" y="711" type="curve"/>
      <point x="196.0" y="711.0" type="line"/>
      <point x="189.33333333333331" y="710.3333333333333"/>
      <point x="183.33333333333331" y="707.6666666666666"/>
      <point x="178" y="703" type="curve"/>
      <point x="47.0" y="567.0" type="line"/>
      <point x="43.0" y="561.6666666666666"/>
      <point x="40.666666666666664" y="555.6666666666666"/>
      <point x="40" y="549" type="curve"/>
      <point x="40.0" y="151.0" type="line"/>
      <point x="40.666666666666664" y="144.33333333333331"/>
      <point x="43.0" y="138.33333333333331"/>
      <point x="47" y="133" type="curve"/>
      <point x="178.0" y="-3.0" type="line"/>
      <point x="183.33333333333331" y="-7.666666666666666"/>
      <point x="189.33333333333331" y="-10.333333333333332"/>
      <point x="196" y="-11" type="curve"/>
      <point x="384.0" y="-11.0" type="line"/>
      <point x="390.66666666666663" y="-10.333333333333332"/>
      <point x="396.66666666666663" y="-7.666666666666666"/>
      <point x="402" y="-3" type="curve"/>
      <point x="533.0" y="133.0" type="line"/>
      <point x="537.0" y="138.33333333333331"/>
      <point x="539.3333333333333" y="144.33333333333331"/>
      <point x="540" y="151" type="curve"/>
      <point x="540.0" y="549.0" type="line"/>
      <point x="539.3333333333333" y="555.6666666666666"/>
      <point x="537.0" y="561.6666666666666"/>
      <point x="533" y="567" type="curve"/>
      <point x="402.0" y="703.0" type="line"/>
      <point x="396.66666666666663" y="707.6666666666666"/>
      <point x="390.66666666666663" y="710.3333333333333"/>
    </contour>
    <contour>
      <point x="130" y="183" type="curve"/>
      <point x="130" y="517" type="line"/>
      <point x="131.0" y="521.0" type="line" smooth="yes"/>
      <point x="131.66666666666666" y="523.6666666666666"/>
      <point x="132.66666666666666" y="526.0"/>
      <point x="134.0" y="528.0" type="curve"/>
      <point x="190.66666666666666" y="586.6666666666666"/>
      <point x="220.0" y="617.0"/>
      <point x="222.0" y="619.0" type="curve"/>
      <point x="224.66666666666666" y="619.6666666666666"/>
      <point x="227.33333333333331" y="620.3333333333333"/>
      <point x="230.0" y="621.0" type="curve"/>
      <point x="310.0" y="621.0"/>
      <point x="351.3333333333333" y="620.6666666666666"/>
      <point x="354.0" y="620.0" type="curve" smooth="yes"/>
      <point x="356.66666666666663" y="619.3333333333333"/>
      <point x="359.0" y="618.0"/>
      <point x="361.0" y="616.0" type="curve" smooth="yes"/>
      <point x="417.66666666666663" y="557.3333333333333"/>
      <point x="446.66666666666663" y="527.0"/>
      <point x="448.0" y="525.0" type="curve"/>
      <point x="448.66666666666663" y="522.3333333333333"/>
      <point x="449.3333333333333" y="519.6666666666666"/>
      <point x="450" y="517" type="curve"/>
      <point x="450" y="183" type="line"/>
      <point x="449.0" y="179.0" type="line" smooth="yes"/>
      <point x="448.33333333333326" y="176.33333333333331"/>
      <point x="447.33333333333326" y="174.0"/>
      <point x="446.0" y="172.0" type="curve"/>
      <point x="389.3333333333333" y="113.33333333333333"/>
      <point x="360.0" y="83.0"/>
      <point x="358.0" y="81.0" type="curve"/>
      <point x="355.3333333333333" y="80.33333333333333"/>
      <point x="352.66666666666663" y="79.66666666666666"/>
      <point x="350.0" y="79.0" type="curve"/>
      <point x="270.0" y="79.0"/>
      <point x="228.66666666666663" y="79.33333333333333"/>
      <point x="226.0" y="80.0" type="curve" smooth="yes"/>
      <point x="223.33333333333331" y="80.66666666666666"/>
      <point x="221.0" y="82.0"/>
      <point x="219.0" y="84.0" type="curve" smooth="yes"/>
      <point x="162.33333333333331" y="142.66666666666666"/>
      <point x="133.33333333333331" y="173.0"/>
      <point x="132.0" y="175.0" type="curve"/>
      <point x="131.33333333333331" y="177.66666666666666"/>
      <point x="130.66666666666666" y="180.33333333333331"/>
    </contour>
  </outline>
</glyph>
<glyph name="P" format="2">
  <advance width="576"/>
  <unicode hex="0050"/>
  <outline>
    <contour>
      <point x="71" y="0" type="curve"/>
      <point x="111.0" y="0.0" type="line"/>
      <point x="125.66666666666666" y="2.0"/>
      <point x="134.0" y="10.333333333333332"/>
      <point x="136" y="25" type="curve"/>
      <point x="136" y="27" type="line"/>
      <point x="136.0" y="222.0" type="line"/>
      <point x="136.66666666666666" y="224.66666666666666"/>
      <point x="137.33333333333331" y="227.33333333333331"/>
      <point x="138.0" y="230.0" type="curve"/>
      <point x="141.33333333333331" y="234.66666666666666"/>
      <point x="146.0" y="237.33333333333331"/>
      <point x="152" y="238" type="curve"/>
      <point x="385.0" y="238.0" type="line" smooth="yes"/>
      <point x="385.66666666666663" y="238.0"/>
      <point x="388.0" y="238.33333333333331"/>
      <point x="392.0" y="239.0" type="curve"/>
      <point x="394.0" y="239.66666666666666"/>
      <point x="396.66666666666663" y="240.66666666666666"/>
      <point x="400.0" y="242.0" type="curve"/>
      <point x="400.66666666666663" y="242.66666666666666"/>
      <point x="442.0" y="271.0"/>
      <point x="524" y="327" type="curve"/>
      <point x="525.0" y="328.0" type="line"/>
      <point x="531.0" y="333.3333333333333"/>
      <point x="534.6666666666666" y="340.0"/>
      <point x="536" y="348" type="curve"/>
      <point x="536.0" y="590.0" type="line"/>
      <point x="534.6666666666666" y="598.0"/>
      <point x="531.0" y="604.6666666666666"/>
      <point x="525" y="610" type="curve"/>
      <point x="524" y="611" type="line"/>
      <point x="401.0" y="695.0" type="line"/>
      <point x="400.33333333333326" y="695.6666666666666"/>
      <point x="398.33333333333326" y="696.6666666666666"/>
      <point x="395.0" y="698.0" type="curve"/>
      <point x="393.0" y="698.6666666666666"/>
      <point x="390.0" y="699.3333333333333"/>
      <point x="386.0" y="700.0" type="curve"/>
      <point x="385.33333333333326" y="700.0"/>
      <point x="280.99999999999994" y="700.0"/>
      <point x="73" y="700" type="curve" smooth="yes"/>
      <point x="71.0" y="700.0" type="line"/>
      <point x="56.33333333333333" y="698.0"/>
      <point x="48.0" y="689.6666666666666"/>
      <point x="46" y="675" type="curve"/>
      <point x="46.0" y="25.0" type="line"/>
      <point x="48.0" y="10.333333333333332"/>
      <point x="56.33333333333333" y="2.0"/>
    </contour>
    <contour>
      <point x="136" y="344" type="curve"/>
      <point x="136.0" y="594.0" type="line"/>
      <point x="136.66666666666666" y="596.6666666666666"/>
      <point x="137.33333333333331" y="599.3333333333333"/>
      <point x="138.0" y="602.0" type="curve"/>
      <point x="140.66666666666666" y="605.3333333333333"/>
      <point x="144.0" y="607.6666666666666"/>
      <point x="148" y="609" type="curve"/>
      <point x="152.0" y="610.0" type="line"/>
      <point x="291.3333333333333" y="610.0"/>
      <point x="362.66666666666663" y="609.6666666666666"/>
      <point x="366" y="609" type="curve"/>
      <point x="370.0" y="607.0" type="line"/>
      <point x="415.99999999999994" y="575.6666666666666"/>
      <point x="439.99999999999994" y="559.3333333333333"/>
      <point x="442.0" y="558.0" type="curve"/>
      <point x="443.99999999999994" y="554.6666666666666"/>
      <point x="445.33333333333326" y="551.0"/>
      <point x="446" y="547" type="curve"/>
      <point x="446.0" y="391.0" type="line" smooth="yes"/>
      <point x="446.0" y="388.3333333333333"/>
      <point x="445.3333333333333" y="386.0"/>
      <point x="444" y="384" type="curve"/>
      <point x="442.0" y="380.0" type="line"/>
      <point x="439.99999999999994" y="378.66666666666663"/>
      <point x="415.99999999999994" y="362.3333333333333"/>
      <point x="370" y="331" type="curve"/>
      <point x="366.0" y="329.0" type="line"/>
      <point x="362.66666666666663" y="328.3333333333333"/>
      <point x="291.3333333333333" y="328.0"/>
      <point x="152.0" y="328.0" type="curve"/>
      <point x="142.66666666666666" y="329.33333333333326"/>
      <point x="137.33333333333331" y="334.66666666666663"/>
    </contour>
  </outline>
</glyph>
<glyph name="Q" format="2">
  <advance width="680"/>
  <unicode hex="0051"/>
  <outline>
    <contour>
      <point x="403" y="-3" type="line"/>
      <point x="453" y="50"/>
      <point x="479" y="77"/>
      <point x="481" y="78" type="curve"/>
      <point x="484" y="79"/>
      <point x="486" y="80"/>
      <point x="489" y="81" type="curve"/>
      <point x="492" y="80"/>
      <point x="494" y="80"/>
      <point x="497" y="79" type="curve"/>
      <point x="499" y="77"/>
      <point x="523" y="53"/>
      <point x="569" y="7" type="curve"/>
      <point x="570" y="7" type="line"/>
      <point x="576" y="2"/>
      <point x="582" y="0"/>
      <point x="588" y="0" type="curve" smooth="yes"/>
      <point x="594" y="0"/>
      <point x="600" y="2"/>
      <point x="606" y="7" type="curve"/>
      <point x="633" y="35" type="line"/>
      <point x="637" y="41"/>
      <point x="639" y="47"/>
      <point x="640" y="53" type="curve"/>
      <point x="640" y="59"/>
      <point x="637" y="65"/>
      <point x="633" y="71" type="curve"/>
      <point x="632" y="72" type="line" smooth="yes"/>
      <point x="574" y="130"/>
      <point x="544" y="160"/>
      <point x="542" y="162" type="curve"/>
      <point x="541" y="166" type="line"/>
      <point x="540" y="169"/>
      <point x="540" y="296"/>
      <point x="540" y="548" type="curve" smooth="yes"/>
      <point x="540" y="549" type="line"/>
      <point x="539" y="556"/>
      <point x="537" y="562"/>
      <point x="533" y="567" type="curve"/>
      <point x="402" y="703" type="line" smooth="yes"/>
      <point x="397" y="708"/>
      <point x="391" y="710"/>
      <point x="384" y="711" type="curve"/>
      <point x="196" y="711" type="line"/>
      <point x="189" y="710"/>
      <point x="183" y="708"/>
      <point x="178" y="703" type="curve" smooth="yes"/>
      <point x="47" y="567" type="line"/>
      <point x="43" y="562"/>
      <point x="41" y="556"/>
      <point x="40" y="549" type="curve"/>
      <point x="40" y="151" type="line"/>
      <point x="41" y="144"/>
      <point x="43" y="138"/>
      <point x="47" y="133" type="curve"/>
      <point x="178" y="-3" type="line" smooth="yes"/>
      <point x="183" y="-8"/>
      <point x="189" y="-10"/>
      <point x="196" y="-11" type="curve"/>
      <point x="384" y="-11" type="line"/>
      <point x="391" y="-10"/>
      <point x="397" y="-8"/>
      <point x="402" y="-3" type="curve"/>
    </contour>
    <contour>
      <point x="130" y="183" type="curve"/>
      <point x="130" y="517" type="line"/>
      <point x="131" y="521" type="line"/>
      <point x="132" y="524"/>
      <point x="133" y="526"/>
      <point x="134" y="528" type="curve"/>
      <point x="191" y="587"/>
      <point x="220" y="617"/>
      <point x="222" y="619" type="curve"/>
      <point x="225" y="620"/>
      <point x="227" y="620"/>
      <point x="230" y="621" type="curve"/>
      <point x="310" y="621"/>
      <point x="351" y="621"/>
      <point x="354" y="620" type="curve" smooth="yes"/>
      <point x="357" y="619"/>
      <point x="359" y="618"/>
      <point x="361" y="616" type="curve" smooth="yes"/>
      <point x="418" y="557"/>
      <point x="447" y="527"/>
      <point x="448" y="525" type="curve"/>
      <point x="449" y="522"/>
      <point x="449" y="520"/>
      <point x="450" y="517" type="curve"/>
      <point x="450" y="183" type="line"/>
      <point x="449" y="179" type="line"/>
      <point x="448" y="176"/>
      <point x="447" y="174"/>
      <point x="446" y="172" type="curve"/>
      <point x="389" y="113"/>
      <point x="360" y="83"/>
      <point x="358" y="81" type="curve"/>
      <point x="355" y="80"/>
      <point x="353" y="80"/>
      <point x="350" y="79" type="curve"/>
      <point x="270" y="79"/>
      <point x="229" y="79"/>
      <point x="226" y="80" type="curve" smooth="yes"/>
      <point x="223" y="81"/>
      <point x="221" y="82"/>
      <point x="219" y="84" type="curve" smooth="yes"/>
      <point x="162" y="143"/>
      <point x="133" y="173"/>
      <point x="132" y="175" type="curve"/>
      <point x="131" y="178"/>
      <point x="131" y="180"/>
    </contour>
  </outline>
</glyph>
<glyph name="R" format="2">
  <advance width="580"/>
  <unicode hex="0052"/>
  <outline>
    <contour>
      <point x="136" y="27" type="line"/>
      <point x="136" y="222" type="line"/>
      <point x="137" y="225"/>
      <point x="137" y="227"/>
      <point x="138" y="230" type="curve"/>
      <point x="141" y="233"/>
      <point x="144" y="236"/>
      <point x="148" y="237" type="curve" smooth="yes"/>
      <point x="152" y="238" type="line"/>
      <point x="235" y="238"/>
      <point x="279" y="238"/>
      <point x="282" y="237" type="curve" smooth="yes"/>
      <point x="285" y="236"/>
      <point x="287" y="234"/>
      <point x="289" y="232" type="curve"/>
      <point x="410" y="84"/>
      <point x="470" y="10"/>
      <point x="471" y="9" type="curve"/>
      <point x="477" y="4"/>
      <point x="484" y="1"/>
      <point x="491" y="0" type="curve"/>
      <point x="517" y="0"/>
      <point x="531" y="0"/>
      <point x="533" y="1" type="curve"/>
      <point x="538" y="2"/>
      <point x="543" y="6"/>
      <point x="550" y="12" type="curve"/>
      <point x="551" y="12" type="line"/>
      <point x="557" y="18"/>
      <point x="560" y="25"/>
      <point x="560" y="32" type="curve" smooth="yes"/>
      <point x="560" y="37"/>
      <point x="558" y="43"/>
      <point x="555" y="48" type="curve"/>
      <point x="554" y="49" type="line"/>
      <point x="457" y="168"/>
      <point x="408" y="229"/>
      <point x="407" y="231" type="curve"/>
      <point x="406" y="234"/>
      <point x="406" y="237"/>
      <point x="406" y="240" type="curve"/>
      <point x="407" y="243"/>
      <point x="408" y="245"/>
      <point x="409" y="248" type="curve"/>
      <point x="411" y="249"/>
      <point x="449" y="276"/>
      <point x="524" y="327" type="curve"/>
      <point x="525" y="328" type="line"/>
      <point x="531" y="333"/>
      <point x="535" y="340"/>
      <point x="536" y="348" type="curve"/>
      <point x="536" y="590" type="line"/>
      <point x="535" y="598"/>
      <point x="531" y="605"/>
      <point x="525" y="610" type="curve"/>
      <point x="524" y="611" type="line"/>
      <point x="401" y="695" type="line"/>
      <point x="400" y="696"/>
      <point x="398" y="697"/>
      <point x="395" y="698" type="curve"/>
      <point x="393" y="699"/>
      <point x="390" y="699"/>
      <point x="386" y="700" type="curve"/>
      <point x="385" y="700"/>
      <point x="281" y="700"/>
      <point x="73" y="700" type="curve" smooth="yes"/>
      <point x="71" y="700" type="line"/>
      <point x="56" y="698"/>
      <point x="48" y="690"/>
      <point x="46" y="675" type="curve"/>
      <point x="46" y="25" type="line"/>
      <point x="48" y="10"/>
      <point x="56" y="2"/>
      <point x="71" y="0" type="curve"/>
      <point x="111" y="0" type="line"/>
      <point x="126" y="2"/>
      <point x="134" y="10"/>
      <point x="136" y="25" type="curve"/>
    </contour>
    <contour>
      <point x="136" y="344" type="curve"/>
      <point x="136" y="594" type="line"/>
      <point x="137" y="597"/>
      <point x="137" y="599"/>
      <point x="138" y="602" type="curve"/>
      <point x="141" y="605"/>
      <point x="144" y="608"/>
      <point x="148" y="609" type="curve" smooth="yes"/>
      <point x="152" y="610" type="line"/>
      <point x="291" y="610"/>
      <point x="363" y="610"/>
      <point x="366" y="609" type="curve"/>
      <point x="370" y="607" type="line"/>
      <point x="416" y="576"/>
      <point x="440" y="559"/>
      <point x="442" y="558" type="curve"/>
      <point x="444" y="555"/>
      <point x="445" y="551"/>
      <point x="446" y="547" type="curve"/>
      <point x="446" y="391" type="line" smooth="yes"/>
      <point x="446" y="388"/>
      <point x="445" y="386"/>
      <point x="444" y="384" type="curve" smooth="yes"/>
      <point x="442" y="380" type="line"/>
      <point x="440" y="379"/>
      <point x="416" y="362"/>
      <point x="370" y="331" type="curve"/>
      <point x="366" y="329" type="line"/>
      <point x="363" y="328"/>
      <point x="291" y="328"/>
      <point x="152" y="328" type="curve"/>
      <point x="143" y="329"/>
      <point x="137" y="335"/>
    </contour>
  </outline>
</glyph>
<glyph name="S" format="2">
  <advance width="576"/>
  <unicode hex="0053"/>
  <outline>
    <contour>
      <point x="511" y="395" type="line" smooth="yes"/>
      <point x="266.3333333333333" y="395.0"/>
      <point x="142.66666666666666" y="395.3333333333333"/>
      <point x="140.0" y="396.0" type="curve" smooth="yes"/>
      <point x="134.6666666666667" y="397.33333333333326"/>
      <point x="130.33333333333334" y="401.66666666666646"/>
      <point x="129.0" y="407.0" type="curve" smooth="yes"/>
      <point x="128.33333333333331" y="409.66666666666663"/>
      <point x="128.0" y="460.0"/>
      <point x="128.0" y="558.0" type="curve"/>
      <point x="128.66666666666666" y="562.6666666666666"/>
      <point x="131.0" y="567.0"/>
      <point x="135.0" y="571.0" type="curve"/>
      <point x="182.33333333333331" y="602.3333333333333"/>
      <point x="207.66666666666663" y="618.6666666666666"/>
      <point x="211.0" y="620.0" type="curve"/>
      <point x="213.66666666666663" y="620.6666666666666"/>
      <point x="290.3333333333333" y="621.0"/>
      <point x="441" y="621" type="curve" smooth="yes"/>
      <point x="442.0" y="621.0" type="line"/>
      <point x="453.3333333333333" y="622.3333333333333"/>
      <point x="461.3333333333333" y="628.3333333333333"/>
      <point x="466.0" y="639.0" type="curve"/>
      <point x="469.3333333333333" y="649.6666666666666"/>
      <point x="466.3333333333333" y="659.3333333333333"/>
      <point x="457" y="668" type="curve" smooth="yes"/>
      <point x="456.0" y="669.0" type="line"/>
      <point x="418.66666666666663" y="694.3333333333333"/>
      <point x="397.99999999999994" y="707.6666666666666"/>
      <point x="394.0" y="709.0" type="curve"/>
      <point x="391.3333333333333" y="710.3333333333333"/>
      <point x="388.3333333333333" y="711.0"/>
      <point x="385" y="711" type="curve" smooth="yes"/>
      <point x="191.0" y="711.0" type="line" smooth="yes"/>
      <point x="190.33333333333331" y="711.0"/>
      <point x="188.0" y="710.6666666666666"/>
      <point x="184.0" y="710.0" type="curve"/>
      <point x="182.66666666666666" y="709.3333333333333"/>
      <point x="180.33333333333331" y="708.3333333333333"/>
      <point x="177.0" y="707.0" type="curve"/>
      <point x="176.33333333333331" y="706.3333333333333"/>
      <point x="134.0" y="678.0"/>
      <point x="50" y="622" type="curve"/>
      <point x="49.0" y="621.0" type="line"/>
      <point x="43.0" y="615.6666666666666"/>
      <point x="39.33333333333333" y="609.0"/>
      <point x="38" y="601" type="curve"/>
      <point x="38.0" y="330.0" type="line"/>
      <point x="40.0" y="315.3333333333333"/>
      <point x="48.33333333333333" y="307.0"/>
      <point x="63" y="305" type="curve"/>
      <point x="65.0" y="305.0" type="line" smooth="yes"/>
      <point x="309.6666666666667" y="305.0"/>
      <point x="433.3333333333333" y="304.66666666666663"/>
      <point x="436.0" y="304.0" type="curve" smooth="yes"/>
      <point x="441.33333333333326" y="302.66666666666663"/>
      <point x="445.66666666666663" y="298.33333333333326"/>
      <point x="447.0" y="293.0" type="curve" smooth="yes"/>
      <point x="447.66666666666663" y="290.3333333333333"/>
      <point x="447.99999999999994" y="240.0"/>
      <point x="448.0" y="142.0" type="curve"/>
      <point x="447.3333333333333" y="137.33333333333331"/>
      <point x="445.0" y="133.0"/>
      <point x="441.0" y="129.0" type="curve"/>
      <point x="393.66666666666663" y="97.66666666666666"/>
      <point x="368.3333333333333" y="81.33333333333333"/>
      <point x="365.0" y="80.0" type="curve"/>
      <point x="362.3333333333333" y="79.33333333333333"/>
      <point x="285.66666666666663" y="79.0"/>
      <point x="135" y="79" type="curve" smooth="yes"/>
      <point x="134.0" y="79.0" type="line"/>
      <point x="122.66666666666666" y="77.66666666666666"/>
      <point x="114.66666666666666" y="71.66666666666666"/>
      <point x="110.0" y="61.0" type="curve"/>
      <point x="106.66666666666666" y="50.33333333333333"/>
      <point x="109.66666666666666" y="40.666666666666664"/>
      <point x="119" y="32" type="curve" smooth="yes"/>
      <point x="120.0" y="31.0" type="line"/>
      <point x="157.33333333333331" y="5.666666666666664"/>
      <point x="178.0" y="-7.666666666666666"/>
      <point x="182.0" y="-9.0" type="curve"/>
      <point x="184.66666666666666" y="-10.333333333333332"/>
      <point x="187.66666666666666" y="-11.0"/>
      <point x="191" y="-11" type="curve" smooth="yes"/>
      <point x="385.0" y="-11.0" type="line" smooth="yes"/>
      <point x="385.66666666666663" y="-11.0"/>
      <point x="388.0" y="-10.666666666666666"/>
      <point x="392.0" y="-10.0" type="curve"/>
      <point x="393.33333333333326" y="-9.333333333333332"/>
      <point x="395.66666666666663" y="-8.333333333333332"/>
      <point x="399.0" y="-7.0" type="curve"/>
      <point x="399.66666666666663" y="-6.333333333333333"/>
      <point x="441.99999999999994" y="22.0"/>
      <point x="526" y="78" type="curve"/>
      <point x="527.0" y="79.0" type="line"/>
      <point x="533.0" y="84.33333333333333"/>
      <point x="536.6666666666666" y="91.0"/>
      <point x="538" y="99" type="curve"/>
      <point x="538.0" y="370.0" type="line"/>
      <point x="536.0" y="384.66666666666663"/>
      <point x="527.6666666666666" y="393.0"/>
      <point x="513" y="395" type="curve"/>
    </contour>
  </outline>
</glyph>
<glyph name="T" format="2">
  <advance width="552"/>
  <unicode hex="0054"/>
  <outline>
    <contour>
      <point x="53" y="610" type="line" smooth="yes"/>
      <point x="160.99999999999997" y="610.0"/>
      <point x="216.33333333333331" y="609.6666666666666"/>
      <point x="219.0" y="609.0" type="curve" smooth="yes"/>
      <point x="224.33333333333331" y="607.6666666666665"/>
      <point x="228.66666666666663" y="603.3333333333333"/>
      <point x="230.0" y="598.0" type="curve" smooth="yes"/>
      <point x="230.66666666666666" y="595.3333333333333"/>
      <point x="231.0" y="405.0"/>
      <point x="231" y="27" type="curve" smooth="yes"/>
      <point x="231.0" y="25.0" type="line"/>
      <point x="233.0" y="10.333333333333332"/>
      <point x="241.33333333333331" y="2.0"/>
      <point x="256" y="0" type="curve"/>
      <point x="296.0" y="0.0" type="line"/>
      <point x="310.66666666666663" y="2.0"/>
      <point x="319.0" y="10.333333333333332"/>
      <point x="321" y="25" type="curve"/>
      <point x="321.0" y="27.0" type="line" smooth="yes"/>
      <point x="321.0" y="405.0"/>
      <point x="321.3333333333333" y="595.3333333333333"/>
      <point x="322.0" y="598.0" type="curve" smooth="yes"/>
      <point x="323.33333333333326" y="603.3333333333333"/>
      <point x="327.66666666666663" y="607.6666666666665"/>
      <point x="333.0" y="609.0" type="curve" smooth="yes"/>
      <point x="335.66666666666663" y="609.6666666666666"/>
      <point x="391.0" y="610.0"/>
      <point x="499" y="610" type="curve" smooth="yes"/>
      <point x="501.0" y="610.0" type="line"/>
      <point x="515.6666666666666" y="612.0"/>
      <point x="524.0" y="620.3333333333333"/>
      <point x="526" y="635" type="curve"/>
      <point x="526.0" y="675.0" type="line"/>
      <point x="524.0" y="689.6666666666666"/>
      <point x="515.6666666666666" y="698.0"/>
      <point x="501" y="700" type="curve"/>
      <point x="51.0" y="700.0" type="line"/>
      <point x="36.33333333333333" y="698.0"/>
      <point x="28.0" y="689.6666666666666"/>
      <point x="26" y="675" type="curve"/>
      <point x="26.0" y="635.0" type="line"/>
      <point x="28.0" y="620.3333333333333"/>
      <point x="36.33333333333333" y="612.0"/>
      <point x="51" y="610" type="curve"/>
    </contour>
  </outline>
</glyph>
<glyph name="U" format="2">
  <advance width="592"/>
  <unicode hex="0055"/>
  <outline>
    <contour>
      <point x="456" y="673" type="line" smooth="yes"/>
      <point x="456.0" y="351.0"/>
      <point x="455.66666666666663" y="188.66666666666666"/>
      <point x="455.0" y="186.0" type="curve"/>
      <point x="454.33333333333326" y="184.0"/>
      <point x="453.33333333333326" y="181.66666666666666"/>
      <point x="452.0" y="179.0" type="curve"/>
      <point x="396.0" y="123.0"/>
      <point x="367.0" y="94.0"/>
      <point x="365.0" y="92.0" type="curve"/>
      <point x="362.3333333333333" y="91.33333333333333"/>
      <point x="359.66666666666663" y="90.66666666666666"/>
      <point x="357.0" y="90.0" type="curve"/>
      <point x="275.66666666666663" y="90.0"/>
      <point x="233.66666666666666" y="90.33333333333333"/>
      <point x="231.0" y="91.0" type="curve" smooth="yes"/>
      <point x="228.33333333333331" y="91.66666666666666"/>
      <point x="225.99999999999997" y="93.0"/>
      <point x="224.0" y="95.0" type="curve" smooth="yes"/>
      <point x="168.0" y="151.0"/>
      <point x="139.33333333333331" y="180.33333333333331"/>
      <point x="138" y="183" type="curve"/>
      <point x="137.0" y="186.0" type="line"/>
      <point x="136.33333333333331" y="188.66666666666666"/>
      <point x="136.0" y="351.0"/>
      <point x="136" y="673" type="curve" smooth="yes"/>
      <point x="136.0" y="675.0" type="line"/>
      <point x="134.0" y="689.6666666666666"/>
      <point x="125.66666666666666" y="698.0"/>
      <point x="111" y="700" type="curve"/>
      <point x="71.0" y="700.0" type="line"/>
      <point x="56.33333333333333" y="698.0"/>
      <point x="48.0" y="689.6666666666666"/>
      <point x="46" y="675" type="curve"/>
      <point x="46.0" y="157.0" type="line"/>
      <point x="46.666666666666664" y="151.0"/>
      <point x="49.0" y="145.33333333333331"/>
      <point x="53" y="140" type="curve"/>
      <point x="184.0" y="7.0" type="line"/>
      <point x="189.33333333333331" y="3.0"/>
      <point x="195.0" y="0.6666666666666666"/>
      <point x="201" y="0" type="curve"/>
      <point x="391.0" y="0.0" type="line"/>
      <point x="396.99999999999994" y="0.6666666666666666"/>
      <point x="402.66666666666663" y="3.0"/>
      <point x="408" y="7" type="curve"/>
      <point x="539.0" y="140.0" type="line"/>
      <point x="543.0" y="145.33333333333331"/>
      <point x="545.3333333333333" y="151.0"/>
      <point x="546" y="157" type="curve"/>
      <point x="546.0" y="675.0" type="line"/>
      <point x="544.0" y="689.6666666666666"/>
      <point x="535.6666666666666" y="698.0"/>
      <point x="521" y="700" type="curve"/>
      <point x="481.0" y="700.0" type="line"/>
      <point x="466.3333333333333" y="698.0"/>
      <point x="458.0" y="689.6666666666666"/>
      <point x="456" y="675" type="curve"/>
    </contour>
  </outline>
</glyph>
<glyph name="V" format="2">
  <advance width="611"/>
  <unicode hex="0056"/>
  <outline>
    <contour>
      <point x="21" y="661" type="curve"/>
      <point x="245.0" y="9.0" type="line"/>
      <point x="249.66666666666666" y="-1.0"/>
      <point x="257.3333333333333" y="-6.666666666666666"/>
      <point x="268" y="-8" type="curve"/>
      <point x="342.0" y="-8.0" type="line"/>
      <point x="353.3333333333333" y="-6.666666666666666"/>
      <point x="361.3333333333333" y="-1.0"/>
      <point x="366" y="9" type="curve"/>
      <point x="590.0" y="661.0" type="line"/>
      <point x="592.6666666666666" y="676.3333333333333"/>
      <point x="587.3333333333333" y="687.3333333333333"/>
      <point x="574" y="694" type="curve"/>
      <point x="573.0" y="694.0" type="line"/>
      <point x="564.3333333333333" y="696.6666666666666"/>
      <point x="559.6666666666666" y="698.3333333333333"/>
      <point x="559.0" y="699.0" type="curve"/>
      <point x="553.6666666666666" y="699.6666666666666"/>
      <point x="543.0" y="700.0"/>
      <point x="527" y="700" type="curve" smooth="yes"/>
      <point x="526.0" y="700.0" type="line"/>
      <point x="514.6666666666666" y="698.6666666666666"/>
      <point x="506.66666666666663" y="693.0"/>
      <point x="502" y="683" type="curve"/>
      <point x="502.0" y="682.0" type="line"/>
      <point x="380.66666666666663" y="328.66666666666663"/>
      <point x="319.3333333333333" y="150.66666666666666"/>
      <point x="318.0" y="148.0" type="curve"/>
      <point x="315.3333333333333" y="144.66666666666666"/>
      <point x="312.0" y="142.66666666666666"/>
      <point x="308.0" y="142.0" type="curve"/>
      <point x="303.3333333333333" y="142.0"/>
      <point x="299.3333333333333" y="143.0"/>
      <point x="296" y="145" type="curve"/>
      <point x="293.0" y="148.0" type="line"/>
      <point x="291.66666666666663" y="150.66666666666666"/>
      <point x="230.33333333333331" y="328.66666666666663"/>
      <point x="109" y="682" type="curve"/>
      <point x="109.0" y="683.0" type="line"/>
      <point x="103.66666666666666" y="693.0"/>
      <point x="95.66666666666666" y="698.6666666666666"/>
      <point x="85" y="700" type="curve"/>
      <point x="84.0" y="700.0" type="line" smooth="yes"/>
      <point x="68.0" y="700.0"/>
      <point x="59.666666666666664" y="700.0"/>
      <point x="59.0" y="700.0" type="curve"/>
      <point x="53.666666666666664" y="699.3333333333333"/>
      <point x="46.666666666666664" y="697.3333333333333"/>
      <point x="38" y="694" type="curve"/>
      <point x="37.0" y="694.0" type="line"/>
      <point x="23.666666666666664" y="687.3333333333333"/>
      <point x="18.333333333333332" y="676.3333333333333"/>
    </contour>
  </outline>
</glyph>
<glyph name="W" format="2">
  <advance width="827"/>
  <unicode hex="0057"/>
  <outline>
    <contour>
      <point x="362" y="399" type="line"/>
      <point x="263.0" y="164.0" type="line"/>
      <point x="261.66666666666663" y="162.0"/>
      <point x="260.3333333333333" y="160.0"/>
      <point x="259.0" y="158.0" type="curve"/>
      <point x="255.66666666666663" y="156.0"/>
      <point x="251.99999999999997" y="155.0"/>
      <point x="248.0" y="155.0" type="curve"/>
      <point x="243.99999999999997" y="155.66666666666666"/>
      <point x="240.33333333333331" y="157.33333333333331"/>
      <point x="237" y="160" type="curve"/>
      <point x="235.0" y="163.0" type="line"/>
      <point x="234.33333333333331" y="165.66666666666666"/>
      <point x="192.66666666666666" y="338.0"/>
      <point x="110" y="680" type="curve"/>
      <point x="110.0" y="681.0" type="line"/>
      <point x="105.33333333333331" y="692.3333333333333"/>
      <point x="96.99999999999999" y="698.6666666666666"/>
      <point x="85" y="700" type="curve"/>
      <point x="45.0" y="700.0" type="line"/>
      <point x="27.0" y="697.3333333333333"/>
      <point x="19.0" y="686.6666666666666"/>
      <point x="21" y="668" type="curve"/>
      <point x="179.0" y="11.0" type="line"/>
      <point x="183.0" y="-0.3333333333333339"/>
      <point x="191.0" y="-6.666666666666666"/>
      <point x="203" y="-8" type="curve"/>
      <point x="204.0" y="-8.0" type="line" smooth="yes"/>
      <point x="249.33333333333331" y="-8.0"/>
      <point x="274.0" y="-7.666666666666666"/>
      <point x="278.0" y="-7.0" type="curve"/>
      <point x="282.0" y="-5.666666666666666"/>
      <point x="286.3333333333333" y="-2.9999999999999996"/>
      <point x="291.0" y="1.0" type="curve"/>
      <point x="291.66666666666663" y="1.6666666666666665"/>
      <point x="293.0" y="3.666666666666666"/>
      <point x="295.0" y="7.0" type="curve"/>
      <point x="295.66666666666663" y="7.666666666666666"/>
      <point x="330.3333333333333" y="90.33333333333331"/>
      <point x="399.0" y="255.0" type="curve"/>
      <point x="401.66666666666663" y="259.66666666666663"/>
      <point x="405.66666666666663" y="263.0"/>
      <point x="411.0" y="265.0" type="curve"/>
      <point x="417.0" y="265.0"/>
      <point x="422.0" y="263.0"/>
      <point x="426" y="259" type="curve"/>
      <point x="428" y="255" type="line"/>
      <point x="531.0" y="8.0" type="line"/>
      <point x="531.6666666666666" y="7.333333333333332"/>
      <point x="533.0" y="5.333333333333333"/>
      <point x="535.0" y="2.0" type="curve"/>
      <point x="537.6666666666666" y="-1.3333333333333335"/>
      <point x="541.6666666666666" y="-4.0"/>
      <point x="547.0" y="-6.0" type="curve" smooth="yes"/>
      <point x="550.3333333333333" y="-7.333333333333333"/>
      <point x="575.6666666666666" y="-8.0"/>
      <point x="623" y="-8" type="curve" smooth="yes"/>
      <point x="624.0" y="-8.0" type="line"/>
      <point x="636.0" y="-6.666666666666666"/>
      <point x="644.0" y="-0.3333333333333339"/>
      <point x="648" y="11" type="curve"/>
      <point x="806.0" y="668.0" type="line"/>
      <point x="807.9999999999999" y="686.6666666666666"/>
      <point x="799.6666666666665" y="697.3333333333333"/>
      <point x="781" y="700" type="curve"/>
      <point x="741.0" y="700.0" type="line"/>
      <point x="729.0" y="698.6666666666666"/>
      <point x="721.0" y="692.3333333333333"/>
      <point x="717" y="681" type="curve"/>
      <point x="716" y="680" type="line"/>
      <point x="593.0" y="167.0" type="line" smooth="yes"/>
      <point x="592.3333333333333" y="164.33333333333331"/>
      <point x="591.0" y="162.0"/>
      <point x="589.0" y="160.0" type="curve" smooth="yes"/>
      <point x="586.3333333333333" y="157.33333333333331"/>
      <point x="583.0" y="155.66666666666666"/>
      <point x="579.0" y="155.0" type="curve"/>
      <point x="575.0" y="155.0"/>
      <point x="571.3333333333333" y="156.0"/>
      <point x="568" y="158" type="curve"/>
      <point x="565" y="161" type="line"/>
      <point x="563" y="164" type="line"/>
      <point x="465" y="399" type="line"/>
      <point x="465.0" y="400.0" type="line"/>
      <point x="457.0" y="412.66666666666663"/>
      <point x="445.66666666666663" y="417.0"/>
      <point x="431" y="413" type="curve"/>
      <point x="430.0" y="413.0" type="line"/>
      <point x="422.66666666666663" y="410.33333333333326"/>
      <point x="417.66666666666663" y="408.33333333333326"/>
      <point x="415.0" y="407.0" type="curve"/>
      <point x="411.66666666666663" y="407.0"/>
      <point x="405.3333333333333" y="409.0"/>
      <point x="396" y="413" type="curve"/>
      <point x="395.0" y="413.0" type="line"/>
      <point x="381.0" y="417.0"/>
      <point x="370.0" y="412.66666666666663"/>
      <point x="362" y="400" type="curve"/>
    </contour>
  </outline>
</glyph>
